<svg width="20" height="19" viewBox="0 0 20 19" fill="none" xmlns="http://www.w3.org/2000/svg">
<path d="M19.0546 17.3087C19.3328 17.5869 19.3328 18.0381 19.0546 18.3163C18.7763 18.5946 18.3252 18.5946 18.047 18.3163L14.627 14.8963C14.3487 14.6181 14.3487 14.1669 14.627 13.8887C14.9052 13.6104 15.3563 13.6104 15.6346 13.8887L19.0546 17.3087ZM8.29078 15.105C4.11965 15.105 0.738281 11.7236 0.738281 7.5525C0.738281 3.38137 4.11965 0 8.29078 0C12.4619 0 15.8433 3.38137 15.8433 7.5525C15.8433 11.7236 12.4619 15.105 8.29078 15.105ZM8.29078 13.68C11.6749 13.68 14.4183 10.9366 14.4183 7.5525C14.4183 4.16838 11.6749 1.425 8.29078 1.425C4.90666 1.425 2.16328 4.16838 2.16328 7.5525C2.16328 10.9366 4.90666 13.68 8.29078 13.68ZM4.77578 6.9825C4.77578 7.24483 4.56312 7.4575 4.30078 7.4575C4.03845 7.4575 3.82578 7.24483 3.82578 6.9825C3.82578 4.83135 5.56963 3.0875 7.72078 3.0875C7.98312 3.0875 8.19578 3.30016 8.19578 3.5625C8.19578 3.82484 7.98312 4.0375 7.72078 4.0375C6.0943 4.0375 4.77578 5.35602 4.77578 6.9825Z" fill="#D0C9D6"/>
</svg>
