<svg width="34" height="34" viewBox="0 0 34 34" fill="none" xmlns="http://www.w3.org/2000/svg">
<path d="M31.2373 24.8051V9.50508C31.2373 8.09408 30.0983 6.95508 28.6873 6.95508H4.87031C3.45931 6.95508 2.32031 8.09408 2.32031 9.50508V24.8051C2.32031 26.2161 3.45931 27.3551 4.87031 27.3551H28.6873C30.0983 27.3551 31.2373 26.2161 31.2373 24.8051ZM29.0103 9.31808C29.5713 9.87908 29.2653 10.4571 28.9593 10.7461L22.0573 17.0701L28.6873 23.9721C28.8913 24.2101 29.0273 24.5841 28.7893 24.8391C28.5683 25.1111 28.0583 25.0941 27.8373 24.9241L20.4083 18.5831L16.7703 21.8981L13.1493 18.5831L5.72031 24.9241C5.49931 25.0941 4.98931 25.1111 4.76831 24.8391C4.53031 24.5841 4.66631 24.2101 4.87031 23.9721L11.5003 17.0701L4.59831 10.7461C4.29231 10.4571 3.98631 9.87908 4.54731 9.31808C5.10831 8.75708 5.68631 9.02908 6.16231 9.43708L16.7703 18.0051L27.3953 9.43708C27.8713 9.02908 28.4493 8.75708 29.0103 9.31808Z" fill="#0071BC"/>
</svg>
