<svg width="20" height="14" viewBox="0 0 20 14" fill="none" xmlns="http://www.w3.org/2000/svg">
<path d="M6.83404 13.3686L6.83403 13.3686L0.630079 7.267C0.456573 7.09636 0.456543 6.82314 0.630084 6.65244C0.630089 6.65243 0.630093 6.65243 0.630097 6.65242L1.97985 5.32491L1.97987 5.3249C2.15802 5.14967 2.45029 5.14967 2.62844 5.3249L2.62846 5.32491L6.80773 9.43518L7.15833 9.77999L7.50893 9.43518L16.4605 0.631411C16.6386 0.456196 16.9309 0.456196 17.1091 0.631411L18.4588 1.95893L18.8094 1.60246L18.4588 1.95894C18.6324 2.12959 18.6324 2.40281 18.4588 2.57352L7.48265 13.3686C7.30445 13.5438 7.01219 13.5438 6.83404 13.3686Z" stroke="white"/>
</svg>
