<svg width="335" height="210" viewBox="0 0 335 210" fill="none" xmlns="http://www.w3.org/2000/svg">
<g filter="url(#filter0_d_1_297)">
<rect x="40" y="34.6523" width="255.352" height="131.127" rx="11.5023" fill="white"/>
<rect x="40" y="34.6523" width="255.352" height="131.127" rx="11.5023" fill="url(#paint0_linear_1_297)" fill-opacity="0.4"/>
</g>
<path d="M64.4417 49.9709V62.8535H63.0983V56.9091H55.0374V62.8535H53.6755V49.9709H55.0374V55.7129H63.0983V49.9709H64.4417ZM72.4711 62.9455C71.5386 62.9455 70.6982 62.737 69.9498 62.3198C69.2014 61.8904 68.6125 61.3015 68.183 60.553C67.7536 59.8046 67.5389 58.9581 67.5389 58.0133C67.5389 57.0686 67.7536 56.222 68.183 55.4736C68.6125 54.7252 69.2014 54.1424 69.9498 53.7253C70.6982 53.3081 71.5386 53.0995 72.4711 53.0995C73.4036 53.0995 74.244 53.3081 74.9924 53.7253C75.7408 54.1424 76.3236 54.7252 76.7408 55.4736C77.1702 56.222 77.3849 57.0686 77.3849 58.0133C77.3849 58.9581 77.1702 59.8046 76.7408 60.553C76.3236 61.3015 75.7408 61.8904 74.9924 62.3198C74.244 62.737 73.4036 62.9455 72.4711 62.9455ZM72.4711 61.7861C73.1582 61.7861 73.7716 61.6327 74.3115 61.326C74.8636 61.007 75.293 60.5592 75.5997 59.9825C75.9065 59.4059 76.0598 58.7495 76.0598 58.0133C76.0598 57.2772 75.9065 56.6208 75.5997 56.0441C75.293 55.4675 74.8636 55.0258 74.3115 54.7191C73.7716 54.4001 73.1582 54.2406 72.4711 54.2406C71.784 54.2406 71.1644 54.4001 70.6123 54.7191C70.0725 55.0258 69.6431 55.4675 69.3241 56.0441C69.0173 56.6208 68.864 57.2772 68.864 58.0133C68.864 58.7495 69.0173 59.4059 69.3241 59.9825C69.6431 60.5592 70.0725 61.007 70.6123 61.326C71.1644 61.6327 71.784 61.7861 72.4711 61.7861ZM86.3428 57.8477C87.6556 58.1544 88.312 58.9458 88.312 60.2218C88.312 61.0684 87.9991 61.7186 87.3734 62.1726C86.7477 62.6265 85.8152 62.8535 84.576 62.8535H80.1775V53.1731H84.4472C85.5514 53.1731 86.4164 53.3878 87.0421 53.8173C87.6679 54.2467 87.9807 54.8601 87.9807 55.6576C87.9807 56.1852 87.8335 56.6392 87.539 57.0195C87.2568 57.3876 86.8581 57.6637 86.3428 57.8477ZM81.4474 57.4796H84.3552C85.1036 57.4796 85.6741 57.3385 86.0667 57.0563C86.4716 56.7741 86.6741 56.3631 86.6741 55.8233C86.6741 55.2834 86.4716 54.8786 86.0667 54.6086C85.6741 54.3387 85.1036 54.2037 84.3552 54.2037H81.4474V57.4796ZM84.5208 61.8229C85.3551 61.8229 85.9809 61.6879 86.398 61.418C86.8152 61.1481 87.0237 60.7248 87.0237 60.1482C87.0237 59.5715 86.8336 59.1482 86.4532 58.8783C86.0729 58.5961 85.4717 58.455 84.6496 58.455H81.4474V61.8229H84.5208ZM95.4416 56.5962C96.6562 56.6085 97.5826 56.8784 98.2205 57.406C98.8585 57.9336 99.1775 58.6943 99.1775 59.6881C99.1775 60.7187 98.834 61.51 98.1469 62.0622C97.4599 62.6143 96.4783 62.8842 95.2023 62.8719L91.3744 62.8535V53.1731H92.681V56.5594L95.4416 56.5962ZM100.797 53.1731H102.104V62.8535H100.797V53.1731ZM95.1287 61.8781C96.0244 61.8904 96.6992 61.7125 97.1531 61.3444C97.6194 60.9641 97.8525 60.412 97.8525 59.6881C97.8525 58.9765 97.6255 58.4489 97.1715 58.1053C96.7176 57.7618 96.0366 57.5839 95.1287 57.5716L92.681 57.5348V61.8413L95.1287 61.8781ZM111.879 62.8535L108.806 58.8047L105.714 62.8535H104.241L108.069 57.8845L104.425 53.1731H105.898L108.806 56.9643L111.713 53.1731H113.149L109.505 57.8845L113.37 62.8535H111.879ZM123.843 58.547H121.635V62.8535H120.328V53.1731H121.635V57.4244H123.861L127.266 53.1731H128.683L124.874 57.8661L128.959 62.8535H127.413L123.843 58.547ZM138.935 53.1731V62.8535H137.628V54.3326H132.991L132.862 56.7251C132.764 58.7372 132.531 60.2831 132.163 61.3628C131.794 62.4425 131.138 62.9823 130.193 62.9823C129.936 62.9823 129.623 62.9333 129.255 62.8351L129.347 61.7125C129.568 61.7616 129.721 61.7861 129.807 61.7861C130.31 61.7861 130.69 61.553 130.948 61.0868C131.206 60.6205 131.377 60.0439 131.463 59.3568C131.549 58.6697 131.623 57.7618 131.684 56.633L131.85 53.1731H138.935ZM142.65 53.1731H143.956V60.8659L150.416 53.1731H151.575V62.8535H150.269V55.1607L143.828 62.8535H142.65V53.1731ZM163.786 58.4182H155.688C155.762 59.4243 156.148 60.2402 156.848 60.8659C157.547 61.4794 158.43 61.7861 159.498 61.7861C160.099 61.7861 160.651 61.6818 161.154 61.4732C161.657 61.2524 162.093 60.9334 162.461 60.5162L163.197 61.3628C162.768 61.8781 162.228 62.2707 161.577 62.5407C160.94 62.8106 160.234 62.9455 159.461 62.9455C158.467 62.9455 157.584 62.737 156.811 62.3198C156.05 61.8904 155.455 61.3015 155.026 60.553C154.596 59.8046 154.382 58.9581 154.382 58.0133C154.382 57.0686 154.584 56.222 154.989 55.4736C155.406 54.7252 155.97 54.1424 156.682 53.7253C157.406 53.3081 158.216 53.0995 159.111 53.0995C160.007 53.0995 160.811 53.3081 161.522 53.7253C162.234 54.1424 162.792 54.7252 163.197 55.4736C163.602 56.2098 163.804 57.0563 163.804 58.0133L163.786 58.4182ZM159.111 54.2222C158.179 54.2222 157.394 54.5227 156.756 55.1239C156.13 55.7129 155.774 56.4858 155.688 57.4428H162.553C162.467 56.4858 162.105 55.7129 161.467 55.1239C160.841 54.5227 160.056 54.2222 159.111 54.2222ZM166.697 53.1731H168.003V57.4612H174.095V53.1731H175.402V62.8535H174.095V58.5838H168.003V62.8535H166.697V53.1731ZM185.925 54.3326H182.263V62.8535H180.956V54.3326H177.294V53.1731H185.925V54.3326ZM191.359 62.9455C190.426 62.9455 189.586 62.737 188.837 62.3198C188.089 61.8904 187.5 61.3015 187.071 60.553C186.641 59.8046 186.426 58.9581 186.426 58.0133C186.426 57.0686 186.641 56.222 187.071 55.4736C187.5 54.7252 188.089 54.1424 188.837 53.7253C189.586 53.3081 190.426 53.0995 191.359 53.0995C192.291 53.0995 193.132 53.3081 193.88 53.7253C194.628 54.1424 195.211 54.7252 195.628 55.4736C196.058 56.222 196.272 57.0686 196.272 58.0133C196.272 58.9581 196.058 59.8046 195.628 60.553C195.211 61.3015 194.628 61.8904 193.88 62.3198C193.132 62.737 192.291 62.9455 191.359 62.9455ZM191.359 61.7861C192.046 61.7861 192.659 61.6327 193.199 61.326C193.751 61.007 194.181 60.5592 194.487 59.9825C194.794 59.4059 194.947 58.7495 194.947 58.0133C194.947 57.2772 194.794 56.6208 194.487 56.0441C194.181 55.4675 193.751 55.0258 193.199 54.7191C192.659 54.4001 192.046 54.2406 191.359 54.2406C190.672 54.2406 190.052 54.4001 189.5 54.7191C188.96 55.0258 188.531 55.4675 188.212 56.0441C187.905 56.6208 187.752 57.2772 187.752 58.0133C187.752 58.7495 187.905 59.4059 188.212 59.9825C188.531 60.5592 188.96 61.007 189.5 61.326C190.052 61.6327 190.672 61.7861 191.359 61.7861ZM205.23 57.8477C206.543 58.1544 207.2 58.9458 207.2 60.2218C207.2 61.0684 206.887 61.7186 206.261 62.1726C205.635 62.6265 204.703 62.8535 203.464 62.8535H199.065V53.1731H203.335C204.439 53.1731 205.304 53.3878 205.93 53.8173C206.555 54.2467 206.868 54.8601 206.868 55.6576C206.868 56.1852 206.721 56.6392 206.427 57.0195C206.144 57.3876 205.746 57.6637 205.23 57.8477ZM200.335 57.4796H203.243C203.991 57.4796 204.562 57.3385 204.954 57.0563C205.359 56.7741 205.562 56.3631 205.562 55.8233C205.562 55.2834 205.359 54.8786 204.954 54.6086C204.562 54.3387 203.991 54.2037 203.243 54.2037H200.335V57.4796ZM203.408 61.8229C204.243 61.8229 204.868 61.6879 205.286 61.418C205.703 61.1481 205.911 60.7248 205.911 60.1482C205.911 59.5715 205.721 59.1482 205.341 58.8783C204.96 58.5961 204.359 58.455 203.537 58.455H200.335V61.8229H203.408Z" fill="#565656"/>
<path d="M62.6428 88.7762H59.0402V92.296H56.3694V88.7762H52.7876V86.2503H56.3694V82.7306H59.0402V86.2503H62.6428V88.7762ZM76.1592 80.2668V94.7598H72.8052V82.9584H69.9066V80.2668H76.1592ZM88.5942 87.1406C89.312 87.4995 89.8572 87.9688 90.2299 88.5485C90.6163 89.1282 90.8096 89.7977 90.8096 90.5568C90.8096 91.454 90.5542 92.2408 90.0435 92.9171C89.5328 93.5796 88.8151 94.0972 87.8903 94.4699C86.9655 94.8288 85.8958 95.0082 84.6811 95.0082C83.4665 95.0082 82.3968 94.8288 81.472 94.4699C80.561 94.0972 79.8502 93.5796 79.3394 92.9171C78.8425 92.2408 78.5941 91.454 78.5941 90.5568C78.5941 89.7977 78.7804 89.1282 79.1531 88.5485C79.5396 87.9688 80.0848 87.4995 80.7887 87.1406C80.2504 86.8093 79.8363 86.3953 79.5465 85.8984C79.2566 85.3877 79.1117 84.8079 79.1117 84.1592C79.1117 83.3172 79.3463 82.5857 79.8156 81.9646C80.2849 81.3434 80.9406 80.8672 81.7825 80.536C82.6245 80.1909 83.5907 80.0184 84.6811 80.0184C85.7854 80.0184 86.7585 80.1909 87.6004 80.536C88.4562 80.8672 89.1187 81.3434 89.588 81.9646C90.0573 82.5857 90.292 83.3172 90.292 84.1592C90.292 84.8079 90.1471 85.3877 89.8572 85.8984C89.5673 86.3953 89.1463 86.8093 88.5942 87.1406ZM84.6811 82.4822C84.0048 82.4822 83.4596 82.6478 83.0455 82.9791C82.6452 83.2965 82.4451 83.7382 82.4451 84.3041C82.4451 84.8562 82.6452 85.291 83.0455 85.6085C83.4458 85.926 83.991 86.0847 84.6811 86.0847C85.3713 86.0847 85.9234 85.926 86.3375 85.6085C86.7516 85.291 86.9586 84.8562 86.9586 84.3041C86.9586 83.7382 86.7516 83.2965 86.3375 82.9791C85.9234 82.6478 85.3713 82.4822 84.6811 82.4822ZM84.6811 92.5444C85.5231 92.5444 86.1856 92.3581 86.6687 91.9854C87.1656 91.5989 87.4141 91.0882 87.4141 90.4533C87.4141 89.8184 87.1656 89.3146 86.6687 88.9419C86.1856 88.5692 85.5231 88.3829 84.6811 88.3829C83.853 88.3829 83.1973 88.5692 82.7142 88.9419C82.2311 89.3146 81.9896 89.8184 81.9896 90.4533C81.9896 91.102 82.2311 91.6127 82.7142 91.9854C83.1973 92.3581 83.853 92.5444 84.6811 92.5444ZM109.554 80.2668V82.4407L104.171 94.7598H100.527L105.724 82.9998H100.921V85.36H97.9393V80.2668H109.554ZM117.676 86.1675C118.946 86.3746 119.919 86.8508 120.596 87.5961C121.272 88.3277 121.61 89.2386 121.61 90.3291C121.61 91.171 121.389 91.9509 120.948 92.6686C120.506 93.3726 119.829 93.9385 118.918 94.3664C118.021 94.7943 116.917 95.0082 115.606 95.0082C114.584 95.0082 113.577 94.8771 112.583 94.6148C111.603 94.3388 110.768 93.9523 110.078 93.4554L111.382 90.8881C111.934 91.3022 112.569 91.6265 113.287 91.8612C114.018 92.082 114.764 92.1924 115.523 92.1924C116.365 92.1924 117.028 92.0337 117.511 91.7162C117.994 91.385 118.235 90.9226 118.235 90.3291C118.235 89.142 117.331 88.5485 115.523 88.5485H113.991V86.3331L116.972 82.9584H110.802V80.2668H120.948V82.4407L117.676 86.1675ZM128.749 80.2668V94.7598H125.395V82.9584H122.496V80.2668H128.749Z" fill="#565656"/>
<path d="M197.844 106.699C175.607 103.938 163.099 123.569 159.625 133.729V156.578H283.546V96.9222C283.546 96.9222 288.411 94.7365 259.225 106.699C222.744 121.652 225.639 110.15 197.844 106.699Z" fill="url(#paint1_linear_1_297)"/>
<path d="M159.625 133.729C163.076 123.569 175.498 103.938 197.583 106.699C225.188 110.15 222.313 121.652 258.545 106.699C287.531 94.7365 282.7 96.9222 282.7 96.9222" stroke="url(#paint2_linear_1_297)" stroke-width="2.30047" stroke-linecap="round"/>
<path d="M87.689 135.22V143.271H86.8608V135.956H84.9629V135.22H87.689ZM98.3062 135.22V135.806L94.936 143.271H94.0388L97.3515 135.956H93.2106V137.463H92.394V135.22H98.3062ZM102.034 138.671C102.877 138.717 103.518 138.947 103.955 139.361C104.399 139.767 104.622 140.3 104.622 140.96C104.622 141.42 104.511 141.83 104.288 142.19C104.066 142.543 103.736 142.823 103.299 143.03C102.862 143.237 102.329 143.34 101.7 143.34C101.117 143.34 100.565 143.248 100.044 143.064C99.5301 142.873 99.1161 142.62 98.8017 142.305L99.2042 141.65C99.4726 141.926 99.8292 142.152 100.274 142.328C100.719 142.497 101.194 142.581 101.7 142.581C102.36 142.581 102.87 142.439 103.23 142.156C103.59 141.864 103.771 141.466 103.771 140.96C103.771 140.461 103.59 140.07 103.23 139.786C102.87 139.503 102.325 139.361 101.597 139.361H101.022V138.751L103.253 135.956H99.1352V135.22H104.311V135.806L102.034 138.671ZM108.02 135.22V143.271H107.192V135.956H105.294V135.22H108.02ZM118.085 137.221V143.271H117.269V140.752C116.571 141.059 115.885 141.213 115.21 141.213C114.481 141.213 113.914 141.048 113.507 140.718C113.101 140.381 112.898 139.878 112.898 139.211V137.221H113.714V139.165C113.714 139.618 113.86 139.963 114.152 140.2C114.443 140.43 114.846 140.545 115.359 140.545C115.927 140.545 116.563 140.396 117.269 140.097V137.221H118.085ZM122.751 133.587H123.499L119.703 144.422H118.955L122.751 133.587ZM130.235 137.221V143.271H129.487V138.487L127.037 142.535H126.669L124.219 138.475V143.271H123.471V137.221H124.299L126.864 141.581L129.475 137.221H130.235ZM137.85 140.499H132.788C132.834 141.128 133.076 141.638 133.513 142.029C133.95 142.413 134.502 142.604 135.169 142.604C135.545 142.604 135.89 142.539 136.205 142.409C136.519 142.271 136.791 142.071 137.021 141.811L137.481 142.34C137.213 142.662 136.876 142.907 136.469 143.076C136.07 143.245 135.63 143.329 135.146 143.329C134.525 143.329 133.973 143.199 133.49 142.938C133.015 142.67 132.643 142.301 132.374 141.834C132.106 141.366 131.972 140.837 131.972 140.246C131.972 139.656 132.098 139.127 132.351 138.659C132.612 138.191 132.965 137.827 133.41 137.566C133.862 137.306 134.368 137.175 134.928 137.175C135.488 137.175 135.99 137.306 136.435 137.566C136.879 137.827 137.228 138.191 137.481 138.659C137.734 139.119 137.861 139.648 137.861 140.246L137.85 140.499ZM134.928 137.877C134.345 137.877 133.854 138.065 133.456 138.44C133.065 138.809 132.842 139.292 132.788 139.89H137.079C137.025 139.292 136.799 138.809 136.4 138.44C136.009 138.065 135.518 137.877 134.928 137.877ZM142.199 143.329C141.601 143.329 141.064 143.199 140.589 142.938C140.121 142.677 139.753 142.313 139.485 141.845C139.216 141.37 139.082 140.837 139.082 140.246C139.082 139.656 139.216 139.127 139.485 138.659C139.753 138.191 140.121 137.827 140.589 137.566C141.064 137.306 141.601 137.175 142.199 137.175C142.721 137.175 143.185 137.279 143.591 137.486C144.005 137.685 144.331 137.98 144.569 138.371L143.959 138.786C143.76 138.487 143.507 138.264 143.2 138.118C142.893 137.965 142.56 137.888 142.199 137.888C141.762 137.888 141.367 137.988 141.015 138.187C140.669 138.379 140.397 138.655 140.198 139.016C140.006 139.376 139.91 139.786 139.91 140.246C139.91 140.714 140.006 141.128 140.198 141.489C140.397 141.841 140.669 142.117 141.015 142.317C141.367 142.508 141.762 142.604 142.199 142.604C142.56 142.604 142.893 142.531 143.2 142.386C143.507 142.24 143.76 142.018 143.959 141.719L144.569 142.133C144.331 142.524 144.005 142.823 143.591 143.03C143.177 143.229 142.713 143.329 142.199 143.329Z" fill="#DD54FF"/>
<g opacity="0.7">
<circle cx="67.606" cy="138.172" r="9.777" fill="#F7EAFF" stroke="#C971FF" stroke-width="1.15023"/>
<path d="M67.0304 143.924C67.0304 144.241 67.2878 144.499 67.6055 144.499C67.9231 144.499 68.1806 144.241 68.1806 143.924L67.0304 143.924ZM68.0121 132.015C67.7875 131.79 67.4234 131.79 67.1988 132.015L63.5388 135.675C63.3142 135.899 63.3142 136.264 63.5388 136.488C63.7634 136.713 64.1275 136.713 64.3521 136.488L67.6055 133.235L70.8588 136.488C71.0834 136.713 71.4476 136.713 71.6722 136.488C71.8968 136.264 71.8968 135.899 71.6722 135.675L68.0121 132.015ZM68.1806 143.924L68.1806 132.421L67.0304 132.421L67.0304 143.924L68.1806 143.924Z" fill="#C971FF"/>
</g>
<defs>
<filter id="filter0_d_1_297" x="0.892017" y="0.1453" width="333.568" height="209.343" filterUnits="userSpaceOnUse" color-interpolation-filters="sRGB">
<feFlood flood-opacity="0" result="BackgroundImageFix"/>
<feColorMatrix in="SourceAlpha" type="matrix" values="0 0 0 0 0 0 0 0 0 0 0 0 0 0 0 0 0 0 127 0" result="hardAlpha"/>
<feOffset dy="4.60094"/>
<feGaussianBlur stdDeviation="19.554"/>
<feComposite in2="hardAlpha" operator="out"/>
<feColorMatrix type="matrix" values="0 0 0 0 0 0 0 0 0 0 0 0 0 0 0 0 0 0 0.1 0"/>
<feBlend mode="normal" in2="BackgroundImageFix" result="effect1_dropShadow_1_297"/>
<feBlend mode="normal" in="SourceGraphic" in2="effect1_dropShadow_1_297" result="shape"/>
</filter>
<linearGradient id="paint0_linear_1_297" x1="41.6369" y1="36.6941" x2="296.68" y2="157.936" gradientUnits="userSpaceOnUse">
<stop stop-color="#FCF6FF"/>
<stop offset="1" stop-color="#F8F0FD"/>
</linearGradient>
<linearGradient id="paint1_linear_1_297" x1="221.738" y1="96.7656" x2="221.738" y2="156.578" gradientUnits="userSpaceOnUse">
<stop stop-color="#EABDFF"/>
<stop offset="0.700529" stop-color="#EED1FF" stop-opacity="0"/>
<stop offset="1" stop-color="#EBD1FF" stop-opacity="0"/>
</linearGradient>
<linearGradient id="paint2_linear_1_297" x1="221.314" y1="96.7656" x2="221.314" y2="133.729" gradientUnits="userSpaceOnUse">
<stop stop-color="#E168FF"/>
<stop offset="1" stop-color="#ECA1FF"/>
</linearGradient>
</defs>
</svg>
