<svg width="356" height="273" viewBox="0 0 356 273" fill="none" xmlns="http://www.w3.org/2000/svg">
<g filter="url(#filter0_d_1_309)">
<rect x="39.3242" y="35.2168" width="277.207" height="193.239" rx="11.5023" fill="url(#paint0_linear_1_309)"/>
</g>
<g clip-path="url(#clip0_1_309)">
<path d="M70.6371 200.769C69.2262 200.769 68.0794 199.625 68.1122 198.215C68.4275 184.66 71.2498 171.273 76.4441 158.733C81.9645 145.405 90.0558 133.296 100.256 123.095C110.456 112.895 122.566 104.804 135.893 99.2835C149.22 93.7632 163.505 90.9219 177.93 90.9219C192.355 90.9219 206.639 93.7632 219.967 99.2835C233.294 104.804 245.404 112.895 255.604 123.095C265.804 133.296 273.895 145.405 279.416 158.733C284.61 171.273 287.432 184.66 287.748 198.215C287.78 199.625 286.634 200.769 285.223 200.769H262.87C261.459 200.769 260.32 199.625 260.276 198.215C259.967 188.267 257.858 178.45 254.044 169.242C249.904 159.246 243.836 150.164 236.185 142.514C228.535 134.864 219.453 128.795 209.458 124.655C199.462 120.515 188.749 118.384 177.93 118.384C167.111 118.384 156.398 120.515 146.402 124.655C136.407 128.795 127.325 134.864 119.675 142.514C112.024 150.164 105.956 159.246 101.816 169.242C98.0014 178.45 95.8925 188.267 95.584 198.215C95.5402 199.625 94.4006 200.769 92.9898 200.769H70.6371Z" fill="url(#paint1_linear_1_309)" fill-opacity="0.6"/>
<path d="M70.6371 200.769C69.2262 200.769 68.0794 199.625 68.1122 198.215C68.6762 173.953 77.2623 150.532 92.5664 131.635C107.87 112.738 128.996 99.473 152.611 93.8796C153.984 93.5544 155.341 94.4385 155.634 95.8185L160.29 117.735C160.583 119.115 159.701 120.467 158.331 120.803C140.882 125.08 125.284 134.955 113.948 148.952C102.612 162.949 96.1939 180.258 95.6367 198.215C95.593 199.625 94.4534 200.769 93.0425 200.769H70.6371Z" fill="url(#paint2_linear_1_309)"/>
<path d="M136.15 77.7284V81.7956H134.88V78.9062H123.635L123.617 81.7956H122.347L122.365 77.7284H123.01C123.856 77.6793 124.445 77.0107 124.776 75.7224C125.108 74.4219 125.31 72.5815 125.384 70.2013L125.531 66.0236H134.217V77.7284H136.15ZM126.598 70.3301C126.537 72.2932 126.384 73.9127 126.138 75.1887C125.905 76.4524 125.506 77.299 124.942 77.7284H132.874V67.2015H126.709L126.598 70.3301ZM142.339 78.9983C141.406 78.9983 140.566 78.7897 139.818 78.3725C139.069 77.9431 138.48 77.3542 138.051 76.6058C137.621 75.8574 137.407 75.0108 137.407 74.0661C137.407 73.1213 137.621 72.2748 138.051 71.5263C138.48 70.7779 139.069 70.1951 139.818 69.778C140.566 69.3608 141.406 69.1523 142.339 69.1523C143.271 69.1523 144.112 69.3608 144.86 69.778C145.609 70.1951 146.191 70.7779 146.609 71.5263C147.038 72.2748 147.253 73.1213 147.253 74.0661C147.253 75.0108 147.038 75.8574 146.609 76.6058C146.191 77.3542 145.609 77.9431 144.86 78.3725C144.112 78.7897 143.271 78.9983 142.339 78.9983ZM142.339 77.8388C143.026 77.8388 143.639 77.6855 144.179 77.3787C144.731 77.0597 145.161 76.6119 145.468 76.0353C145.774 75.4586 145.928 74.8022 145.928 74.0661C145.928 73.3299 145.774 72.6735 145.468 72.0969C145.161 71.5202 144.731 71.0785 144.179 70.7718C143.639 70.4528 143.026 70.2933 142.339 70.2933C141.652 70.2933 141.032 70.4528 140.48 70.7718C139.94 71.0785 139.511 71.5202 139.192 72.0969C138.885 72.6735 138.732 73.3299 138.732 74.0661C138.732 74.8022 138.885 75.4586 139.192 76.0353C139.511 76.6119 139.94 77.0597 140.48 77.3787C141.032 77.6855 141.652 77.8388 142.339 77.8388ZM158.732 69.2259V78.9062H157.425V70.3853H151.352V78.9062H150.045V69.2259H158.732ZM167.434 69.1523C168.342 69.1523 169.164 69.3608 169.9 69.778C170.636 70.1829 171.213 70.7595 171.63 71.5079C172.047 72.2564 172.256 73.1091 172.256 74.0661C172.256 75.0353 172.047 75.8942 171.63 76.6426C171.213 77.391 170.636 77.9738 169.9 78.3909C169.176 78.7958 168.354 78.9983 167.434 78.9983C166.649 78.9983 165.937 78.8388 165.299 78.5198C164.673 78.1885 164.158 77.71 163.753 77.0843V82.4766H162.446V69.2259H163.698V71.1399C164.09 70.5019 164.606 70.0111 165.244 69.6676C165.894 69.324 166.624 69.1523 167.434 69.1523ZM167.342 77.8388C168.017 77.8388 168.63 77.6855 169.182 77.3787C169.734 77.0597 170.164 76.6119 170.47 76.0353C170.789 75.4586 170.949 74.8022 170.949 74.0661C170.949 73.3299 170.789 72.6796 170.47 72.1153C170.164 71.5386 169.734 71.0908 169.182 70.7718C168.63 70.4528 168.017 70.2933 167.342 70.2933C166.655 70.2933 166.035 70.4528 165.483 70.7718C164.943 71.0908 164.514 71.5386 164.195 72.1153C163.888 72.6796 163.735 73.3299 163.735 74.0661C163.735 74.8022 163.888 75.4586 164.195 76.0353C164.514 76.6119 164.943 77.0597 165.483 77.3787C166.035 77.6855 166.655 77.8388 167.342 77.8388ZM179.057 78.9983C178.124 78.9983 177.284 78.7897 176.535 78.3725C175.787 77.9431 175.198 77.3542 174.768 76.6058C174.339 75.8574 174.124 75.0108 174.124 74.0661C174.124 73.1213 174.339 72.2748 174.768 71.5263C175.198 70.7779 175.787 70.1951 176.535 69.778C177.284 69.3608 178.124 69.1523 179.057 69.1523C179.989 69.1523 180.829 69.3608 181.578 69.778C182.326 70.1951 182.909 70.7779 183.326 71.5263C183.756 72.2748 183.97 73.1213 183.97 74.0661C183.97 75.0108 183.756 75.8574 183.326 76.6058C182.909 77.3542 182.326 77.9431 181.578 78.3725C180.829 78.7897 179.989 78.9983 179.057 78.9983ZM179.057 77.8388C179.744 77.8388 180.357 77.6855 180.897 77.3787C181.449 77.0597 181.878 76.6119 182.185 76.0353C182.492 75.4586 182.645 74.8022 182.645 74.0661C182.645 73.3299 182.492 72.6735 182.185 72.0969C181.878 71.5202 181.449 71.0785 180.897 70.7718C180.357 70.4528 179.744 70.2933 179.057 70.2933C178.369 70.2933 177.75 70.4528 177.198 70.7718C176.658 71.0785 176.229 71.5202 175.91 72.0969C175.603 72.6735 175.449 73.3299 175.449 74.0661C175.449 74.8022 175.603 75.4586 175.91 76.0353C176.229 76.6119 176.658 77.0597 177.198 77.3787C177.75 77.6855 178.369 77.8388 179.057 77.8388ZM196.15 77.7652V81.2435H194.917V78.9062H186.249V81.2435H185.016V77.7652H185.568C186.218 77.7284 186.66 77.2499 186.893 76.3297C187.126 75.4095 187.286 74.1213 187.372 72.4649L187.5 69.2259H194.641V77.7652H196.15ZM188.568 72.5385C188.507 73.9127 188.39 75.0476 188.218 75.9432C188.046 76.8266 187.74 77.4339 187.298 77.7652H193.334V70.3853H188.678L188.568 72.5385ZM202.028 69.1523C203.291 69.1523 204.261 69.4713 204.936 70.1093C205.61 70.735 205.948 71.6674 205.948 72.9066V78.9062H204.696V77.3971C204.402 77.9002 203.966 78.2928 203.39 78.575C202.825 78.8572 202.15 78.9983 201.365 78.9983C200.286 78.9983 199.427 78.7406 198.789 78.2253C198.151 77.71 197.832 77.0291 197.832 76.1825C197.832 75.3605 198.126 74.6979 198.715 74.1949C199.316 73.6919 200.267 73.4403 201.568 73.4403H204.641V72.8514C204.641 72.0171 204.408 71.3852 203.942 70.9558C203.476 70.5141 202.795 70.2933 201.899 70.2933C201.285 70.2933 200.697 70.3976 200.132 70.6062C199.568 70.8025 199.083 71.0785 198.678 71.4343L198.089 70.4589C198.58 70.0418 199.169 69.7228 199.856 69.5019C200.543 69.2688 201.267 69.1523 202.028 69.1523ZM201.568 77.9677C202.304 77.9677 202.936 77.802 203.463 77.4708C203.991 77.1272 204.383 76.6365 204.641 75.9985V74.4157H201.604C199.948 74.4157 199.12 74.9924 199.12 76.1457C199.12 76.7101 199.335 77.1579 199.764 77.4892C200.194 77.8082 200.795 77.9677 201.568 77.9677ZM217.91 74.5998H215.812V78.9062H214.506V74.5998H212.408L209.445 78.9062H207.88L211.359 73.9188L208.156 69.2259H209.573L212.408 73.4771H214.506V69.2259H215.812V73.4771H217.91L220.763 69.2259H222.18L218.978 73.9372L222.456 78.9062H220.892L217.91 74.5998ZM224.631 69.2259H225.938V76.9186L232.397 69.2259H233.557V78.9062H232.25V71.2135L225.809 78.9062H224.631V69.2259Z" fill="#565656"/>
<path d="M170.305 182.406H165.209V188.941H160.029V182.406H144.245V178.706L158.426 160.168H164.14L150.781 177.884H160.194V172.089H165.209V177.884H170.305V182.406ZM184.402 172.047C187.06 172.376 189.088 173.281 190.486 174.76C191.883 176.24 192.582 178.09 192.582 180.309C192.582 181.981 192.157 183.502 191.308 184.872C190.458 186.242 189.17 187.338 187.444 188.16C185.745 188.955 183.662 189.352 181.196 189.352C179.141 189.352 177.154 189.065 175.236 188.489C173.345 187.886 171.728 187.064 170.385 186.023L172.687 181.871C173.729 182.748 174.989 183.447 176.469 183.968C177.976 184.461 179.524 184.708 181.114 184.708C183.005 184.708 184.484 184.324 185.553 183.557C186.649 182.762 187.197 181.693 187.197 180.351C187.197 179.008 186.677 177.966 185.635 177.227C184.621 176.459 183.059 176.076 180.949 176.076H178.319V172.417L184.854 164.649H171.783V160.168H191.39V163.744L184.402 172.047ZM200.141 179.458C198.672 179.458 197.488 178.939 196.588 177.902C195.688 176.865 195.237 175.504 195.237 173.821C195.237 172.137 195.688 170.777 196.588 169.74C197.488 168.702 198.672 168.184 200.141 168.184C201.609 168.184 202.793 168.702 203.693 169.74C204.613 170.758 205.073 172.118 205.073 173.821C205.073 175.524 204.613 176.894 203.693 177.931C202.793 178.949 201.609 179.458 200.141 179.458ZM212.472 168.389H215.349L201.315 188.941H198.438L212.472 168.389ZM200.141 177.403C200.943 177.403 201.56 177.09 201.99 176.463C202.44 175.837 202.666 174.956 202.666 173.821C202.666 172.686 202.44 171.805 201.99 171.178C201.56 170.552 200.943 170.239 200.141 170.239C199.377 170.239 198.761 170.562 198.291 171.208C197.841 171.834 197.616 172.705 197.616 173.821C197.616 174.937 197.841 175.817 198.291 176.463C198.761 177.09 199.377 177.403 200.141 177.403ZM213.617 189.147C212.149 189.147 210.965 188.628 210.064 187.591C209.164 186.553 208.714 185.193 208.714 183.51C208.714 181.826 209.164 180.466 210.064 179.429C210.965 178.391 212.149 177.873 213.617 177.873C215.085 177.873 216.269 178.391 217.17 179.429C218.089 180.466 218.549 181.826 218.549 183.51C218.549 185.193 218.089 186.553 217.17 187.591C216.269 188.628 215.085 189.147 213.617 189.147ZM213.617 187.092C214.4 187.092 215.016 186.779 215.467 186.152C215.917 185.506 216.142 184.625 216.142 183.51C216.142 182.394 215.917 181.523 215.467 180.897C215.016 180.251 214.4 179.928 213.617 179.928C212.834 179.928 212.217 180.241 211.767 180.867C211.317 181.494 211.092 182.374 211.092 183.51C211.092 184.645 211.317 185.526 211.767 186.152C212.217 186.779 212.834 187.092 213.617 187.092Z" fill="url(#paint3_linear_1_309)" fill-opacity="0.8"/>
</g>
<defs>
<filter id="filter0_d_1_309" x="0.216236" y="0.709754" width="355.423" height="271.455" filterUnits="userSpaceOnUse" color-interpolation-filters="sRGB">
<feFlood flood-opacity="0" result="BackgroundImageFix"/>
<feColorMatrix in="SourceAlpha" type="matrix" values="0 0 0 0 0 0 0 0 0 0 0 0 0 0 0 0 0 0 127 0" result="hardAlpha"/>
<feOffset dy="4.60094"/>
<feGaussianBlur stdDeviation="19.554"/>
<feComposite in2="hardAlpha" operator="out"/>
<feColorMatrix type="matrix" values="0 0 0 0 0 0 0 0 0 0 0 0 0 0 0 0 0 0 0.1 0"/>
<feBlend mode="normal" in2="BackgroundImageFix" result="effect1_dropShadow_1_309"/>
<feBlend mode="normal" in="SourceGraphic" in2="effect1_dropShadow_1_309" result="shape"/>
</filter>
<linearGradient id="paint0_linear_1_309" x1="41.1012" y1="38.2257" x2="343.462" y2="144.108" gradientUnits="userSpaceOnUse">
<stop stop-color="#FAFDFC"/>
<stop offset="1" stop-color="#F0F8FD"/>
</linearGradient>
<linearGradient id="paint1_linear_1_309" x1="287.888" y1="101.595" x2="63.9222" y2="106.195" gradientUnits="userSpaceOnUse">
<stop stop-color="#1C89D1"/>
<stop offset="1" stop-color="#2FA0EB"/>
</linearGradient>
<linearGradient id="paint2_linear_1_309" x1="287.888" y1="101.595" x2="63.9222" y2="106.195" gradientUnits="userSpaceOnUse">
<stop stop-color="#1C89D1"/>
<stop offset="1" stop-color="#2FA0EB"/>
</linearGradient>
<linearGradient id="paint3_linear_1_309" x1="142.809" y1="150.516" x2="221.269" y2="152.858" gradientUnits="userSpaceOnUse">
<stop stop-color="#1C89D1"/>
<stop offset="1" stop-color="#2FA0EB"/>
</linearGradient>
<clipPath id="clip0_1_309">
<rect width="219.695" height="159.917" fill="white" transform="translate(68.082 58.2227)"/>
</clipPath>
</defs>
</svg>
