<svg width="340" height="257" viewBox="0 0 340 257" fill="none" xmlns="http://www.w3.org/2000/svg">
<g filter="url(#filter0_d_1_317)">
<rect x="40.0469" y="34.498" width="259.953" height="178.286" rx="11.5023" fill="white"/>
<rect x="40.0469" y="34.498" width="259.953" height="178.286" rx="11.5023" fill="url(#paint0_linear_1_317)" fill-opacity="0.6"/>
</g>
<path opacity="0.5" d="M52.3795 186.893C53.6412 186.893 54.2721 185.695 54.2721 183.299C54.2721 181.857 54.06 180.85 53.6359 180.277C53.3284 179.874 52.9096 179.673 52.3795 179.673C51.2556 179.673 50.6353 180.606 50.5187 182.472C50.5081 182.726 50.5028 182.997 50.5028 183.283C50.5028 183.559 50.5081 183.829 50.5187 184.094C50.5399 184.349 50.5717 184.608 50.6141 184.874C50.6565 185.139 50.7201 185.393 50.8049 185.637C50.8898 185.87 51.0011 186.077 51.1389 186.257C51.4464 186.681 51.8599 186.893 52.3795 186.893ZM52.3795 178.798C54.394 178.798 55.4013 180.298 55.4013 183.299C55.4013 184.158 55.3377 184.815 55.2104 185.271C55.0832 185.727 54.9453 186.098 54.7969 186.384C54.6485 186.66 54.4629 186.899 54.2403 187.1C53.7631 187.535 53.1429 187.752 52.3795 187.752C51.2768 187.752 50.4762 187.296 49.9779 186.384C49.575 185.653 49.3735 184.624 49.3735 183.299C49.3735 182.43 49.4319 181.762 49.5485 181.295C49.6757 180.829 49.8136 180.457 49.962 180.182C50.121 179.896 50.3119 179.652 50.5346 179.45C51.0117 179.015 51.6267 178.798 52.3795 178.798ZM57.9583 184.349V187.132C57.9583 187.291 57.9053 187.413 57.7992 187.498C57.6932 187.583 57.5766 187.625 57.4494 187.625C57.3327 187.625 57.2214 187.588 57.1154 187.514C57.0199 187.429 56.9722 187.302 56.9722 187.132V179.371C56.9722 179.212 57.0252 179.09 57.1313 179.005C57.2373 178.92 57.3327 178.878 57.4175 178.878C57.513 178.878 57.5872 178.888 57.6402 178.909C57.7038 178.931 57.7568 178.962 57.7992 179.005C57.9053 179.111 57.9583 179.233 57.9583 179.371V184.015L60.7256 181.693C60.8211 181.597 60.9271 181.55 61.0437 181.55C61.1604 181.55 61.2611 181.587 61.3459 181.661C61.4307 181.735 61.4731 181.809 61.4731 181.884C61.4731 182.032 61.4307 182.138 61.3459 182.202L58.9762 184.174L61.6481 186.941C61.7223 187.037 61.7594 187.116 61.7594 187.18C61.7594 187.243 61.7435 187.302 61.7117 187.355C61.6905 187.408 61.6587 187.455 61.6163 187.498C61.5102 187.583 61.3989 187.625 61.2823 187.625C61.1763 187.625 61.0702 187.572 60.9642 187.466L57.9583 184.349ZM64.0319 184.349V187.132C64.0319 187.291 63.9789 187.413 63.8729 187.498C63.7668 187.583 63.6502 187.625 63.523 187.625C63.4063 187.625 63.295 187.588 63.189 187.514C63.0935 187.429 63.0458 187.302 63.0458 187.132V179.371C63.0458 179.212 63.0988 179.09 63.2049 179.005C63.3109 178.92 63.4063 178.878 63.4912 178.878C63.5866 178.878 63.6608 178.888 63.7138 178.909C63.7774 178.931 63.8304 178.962 63.8729 179.005C63.9789 179.111 64.0319 179.233 64.0319 179.371V184.015L66.7992 181.693C66.8947 181.597 67.0007 181.55 67.1173 181.55C67.234 181.55 67.3347 181.587 67.4195 181.661C67.5043 181.735 67.5467 181.809 67.5467 181.884C67.5467 182.032 67.5043 182.138 67.4195 182.202L65.0498 184.174L67.7217 186.941C67.7959 187.037 67.833 187.116 67.833 187.18C67.833 187.243 67.8171 187.302 67.7853 187.355C67.7641 187.408 67.7323 187.455 67.6899 187.498C67.5839 187.583 67.4725 187.625 67.3559 187.625C67.2499 187.625 67.1438 187.572 67.0378 187.466L64.0319 184.349Z" fill="#565656"/>
<line x1="52.4922" y1="192.315" x2="288.051" y2="192.315" stroke="#E2F1EA" stroke-width="1.25644"/>
<path opacity="0.5" d="M52.459 149.912C52.2787 149.912 52.1091 149.928 51.95 149.959C51.8016 149.981 51.6585 150.018 51.5206 150.071C51.1919 150.198 50.9481 150.315 50.789 150.421C50.6724 150.484 50.5558 150.516 50.4391 150.516C50.3331 150.516 50.2377 150.479 50.1529 150.405C50.0786 150.331 50.0415 150.246 50.0415 150.15C50.0415 150.055 50.0786 149.965 50.1529 149.88C50.2271 149.784 50.3278 149.694 50.455 149.61C50.5823 149.525 50.7254 149.45 50.8845 149.387C51.0541 149.313 51.229 149.244 51.4093 149.18C51.8016 149.063 52.1674 149.005 52.5067 149.005C52.846 149.005 53.1694 149.053 53.4769 149.148C53.7949 149.233 54.0706 149.36 54.3039 149.53C54.8234 149.912 55.0832 150.426 55.0832 151.073C55.0832 152.144 54.2615 153.485 52.618 155.096C52.2999 155.415 51.9659 155.749 51.6161 156.098C51.2768 156.438 50.9799 156.719 50.7254 156.941H54.6538C54.8022 156.941 54.9082 156.989 54.9719 157.085C55.0461 157.18 55.0832 157.286 55.0832 157.403C55.0832 157.509 55.0461 157.609 54.9719 157.705C54.8976 157.79 54.7916 157.832 54.6538 157.832H50.2006C49.9461 157.832 49.7552 157.779 49.628 157.673C49.5114 157.567 49.4531 157.44 49.4531 157.291C49.4531 157.005 49.5909 156.745 49.8666 156.512C50.068 156.332 50.3225 156.077 50.63 155.749C50.9375 155.42 51.2396 155.107 51.5365 154.81C51.8334 154.513 52.125 154.201 52.4113 153.872C52.7081 153.533 52.9732 153.204 53.2065 152.886C53.7154 152.197 53.9699 151.624 53.9699 151.168C53.9699 150.765 53.8108 150.452 53.4928 150.23C53.1959 150.018 52.8513 149.912 52.459 149.912ZM57.9583 154.556V157.339C57.9583 157.498 57.9053 157.62 57.7992 157.705C57.6932 157.79 57.5766 157.832 57.4494 157.832C57.3327 157.832 57.2214 157.795 57.1154 157.721C57.0199 157.636 56.9722 157.509 56.9722 157.339V149.578C56.9722 149.419 57.0252 149.297 57.1313 149.212C57.2373 149.127 57.3327 149.085 57.4175 149.085C57.513 149.085 57.5872 149.095 57.6402 149.116C57.7038 149.138 57.7568 149.169 57.7992 149.212C57.9053 149.318 57.9583 149.44 57.9583 149.578V154.222L60.7256 151.9C60.8211 151.804 60.9271 151.757 61.0437 151.757C61.1604 151.757 61.2611 151.794 61.3459 151.868C61.4307 151.942 61.4731 152.016 61.4731 152.091C61.4731 152.239 61.4307 152.345 61.3459 152.409L58.9762 154.381L61.6481 157.148C61.7223 157.244 61.7594 157.323 61.7594 157.387C61.7594 157.45 61.7435 157.509 61.7117 157.562C61.6905 157.615 61.6587 157.662 61.6163 157.705C61.5102 157.79 61.3989 157.832 61.2823 157.832C61.1763 157.832 61.0702 157.779 60.9642 157.673L57.9583 154.556ZM64.0319 154.556V157.339C64.0319 157.498 63.9789 157.62 63.8729 157.705C63.7668 157.79 63.6502 157.832 63.523 157.832C63.4063 157.832 63.295 157.795 63.189 157.721C63.0935 157.636 63.0458 157.509 63.0458 157.339V149.578C63.0458 149.419 63.0988 149.297 63.2049 149.212C63.3109 149.127 63.4063 149.085 63.4912 149.085C63.5866 149.085 63.6608 149.095 63.7138 149.116C63.7774 149.138 63.8304 149.169 63.8729 149.212C63.9789 149.318 64.0319 149.44 64.0319 149.578V154.222L66.7992 151.9C66.8947 151.804 67.0007 151.757 67.1173 151.757C67.234 151.757 67.3347 151.794 67.4195 151.868C67.5043 151.942 67.5467 152.016 67.5467 152.091C67.5467 152.239 67.5043 152.345 67.4195 152.409L65.0498 154.381L67.7217 157.148C67.7959 157.244 67.833 157.323 67.833 157.387C67.833 157.45 67.8171 157.509 67.7853 157.562C67.7641 157.615 67.7323 157.662 67.6899 157.705C67.5839 157.79 67.4725 157.832 67.3559 157.832C67.2499 157.832 67.1438 157.779 67.0378 157.673L64.0319 154.556Z" fill="#565656"/>
<line x1="52.4922" y1="162.772" x2="288.051" y2="162.772" stroke="#E2F1EA" stroke-width="1.25644"/>
<path opacity="0.5" d="M52.5862 119.783C52.7771 119.454 53.0686 119.29 53.4609 119.29C53.8002 119.29 54.0335 119.428 54.1607 119.703C54.2031 119.799 54.2244 119.91 54.2244 120.037V125.286H55.1627C55.3005 125.286 55.4013 125.328 55.4649 125.413C55.5391 125.498 55.5762 125.593 55.5762 125.699C55.5762 125.805 55.5391 125.901 55.4649 125.985C55.4013 126.06 55.3005 126.097 55.1627 126.097H54.2244V127.544C54.2244 127.693 54.1872 127.799 54.113 127.862C53.9858 127.979 53.848 128.037 53.6995 128.037C53.4769 128.037 53.3125 127.942 53.2065 127.751C53.1747 127.698 53.1588 127.629 53.1588 127.544V126.097H49.628C49.4478 126.097 49.3046 126.038 49.1986 125.922C49.0926 125.805 49.0396 125.694 49.0396 125.588C49.0396 125.397 49.0767 125.243 49.1509 125.127L52.5862 119.783ZM49.9779 125.286H53.1588V120.292L49.9779 125.286ZM57.9583 124.761V127.544C57.9583 127.703 57.9053 127.825 57.7992 127.91C57.6932 127.995 57.5766 128.037 57.4494 128.037C57.3327 128.037 57.2214 128 57.1154 127.926C57.0199 127.841 56.9722 127.714 56.9722 127.544V119.783C56.9722 119.624 57.0252 119.502 57.1313 119.417C57.2373 119.332 57.3327 119.29 57.4175 119.29C57.513 119.29 57.5872 119.3 57.6402 119.322C57.7038 119.343 57.7568 119.375 57.7992 119.417C57.9053 119.523 57.9583 119.645 57.9583 119.783V124.427L60.7256 122.105C60.8211 122.009 60.9271 121.962 61.0437 121.962C61.1604 121.962 61.2611 121.999 61.3459 122.073C61.4307 122.147 61.4731 122.221 61.4731 122.296C61.4731 122.444 61.4307 122.55 61.3459 122.614L58.9762 124.586L61.6481 127.353C61.7223 127.449 61.7594 127.528 61.7594 127.592C61.7594 127.655 61.7435 127.714 61.7117 127.767C61.6905 127.82 61.6587 127.867 61.6163 127.91C61.5102 127.995 61.3989 128.037 61.2823 128.037C61.1763 128.037 61.0702 127.984 60.9642 127.878L57.9583 124.761ZM64.0319 124.761V127.544C64.0319 127.703 63.9789 127.825 63.8729 127.91C63.7668 127.995 63.6502 128.037 63.523 128.037C63.4063 128.037 63.295 128 63.189 127.926C63.0935 127.841 63.0458 127.714 63.0458 127.544V119.783C63.0458 119.624 63.0988 119.502 63.2049 119.417C63.3109 119.332 63.4063 119.29 63.4912 119.29C63.5866 119.29 63.6608 119.3 63.7138 119.322C63.7774 119.343 63.8304 119.375 63.8729 119.417C63.9789 119.523 64.0319 119.645 64.0319 119.783V124.427L66.7992 122.105C66.8947 122.009 67.0007 121.962 67.1173 121.962C67.234 121.962 67.3347 121.999 67.4195 122.073C67.5043 122.147 67.5467 122.221 67.5467 122.296C67.5467 122.444 67.5043 122.55 67.4195 122.614L65.0498 124.586L67.7217 127.353C67.7959 127.449 67.833 127.528 67.833 127.592C67.833 127.655 67.8171 127.714 67.7853 127.767C67.7641 127.82 67.7323 127.867 67.6899 127.91C67.5839 127.995 67.4725 128.037 67.3559 128.037C67.2499 128.037 67.1438 127.984 67.0378 127.878L64.0319 124.761Z" fill="#565656"/>
<line x1="52.4922" y1="133.229" x2="288.051" y2="133.229" stroke="#E2F1EA" stroke-width="1.25644"/>
<path opacity="0.5" d="M50.6141 90.1648C50.8792 89.9315 51.1972 89.7512 51.5683 89.624C51.9394 89.4862 52.4272 89.4173 53.0315 89.4173C53.6359 89.4173 54.2138 89.5657 54.7651 89.8626C54.8923 89.9156 54.956 90.0269 54.956 90.1966C54.956 90.3768 54.8764 90.52 54.7174 90.626C54.6644 90.6578 54.6114 90.6737 54.5583 90.6737C54.5159 90.6737 54.4205 90.6419 54.2721 90.5783C53.8267 90.398 53.4026 90.3079 52.9997 90.3079C52.5968 90.3079 52.2628 90.3609 51.9978 90.4669C51.7327 90.573 51.51 90.7161 51.3298 90.8964C51.1495 91.066 51.0011 91.2675 50.8845 91.5007C50.7678 91.734 50.6777 91.9832 50.6141 92.2482C50.5187 92.7041 50.4709 93.2449 50.4709 93.8705C50.683 93.4357 50.9852 93.1124 51.3775 92.9003C51.7698 92.6776 52.1992 92.5663 52.6657 92.5663C53.1323 92.5663 53.5299 92.6352 53.8586 92.7731C54.1978 92.9109 54.4841 93.1018 54.7174 93.3456C55.1945 93.844 55.4331 94.5278 55.4331 95.3973C55.4331 96.2879 55.1786 97.0036 54.6697 97.5444C54.1607 98.0957 53.4556 98.3714 52.5544 98.3714C50.4126 98.3714 49.3417 96.9877 49.3417 94.2204C49.3417 92.2588 49.7659 90.907 50.6141 90.1648ZM52.4908 97.5125C52.7665 97.5125 53.0209 97.4648 53.2542 97.3694C53.4875 97.274 53.6889 97.1414 53.8586 96.9718C54.1766 96.6219 54.3357 96.113 54.3357 95.445C54.3357 94.4801 54.0176 93.8334 53.3814 93.5047C53.1694 93.3986 52.9043 93.3456 52.5862 93.3456C52.2787 93.3456 51.9978 93.3986 51.7433 93.5047C51.4994 93.6107 51.2927 93.7591 51.123 93.95C50.7837 94.3105 50.6141 94.83 50.6141 95.5086C50.6141 96.1024 50.7837 96.5795 51.123 96.94C51.4835 97.3217 51.9394 97.5125 52.4908 97.5125ZM57.9583 94.9679V97.7511C57.9583 97.9102 57.9053 98.0321 57.7992 98.1169C57.6932 98.2017 57.5766 98.2441 57.4494 98.2441C57.3327 98.2441 57.2214 98.207 57.1154 98.1328C57.0199 98.048 56.9722 97.9208 56.9722 97.7511V89.9898C56.9722 89.8308 57.0252 89.7088 57.1313 89.624C57.2373 89.5392 57.3327 89.4968 57.4175 89.4968C57.513 89.4968 57.5872 89.5074 57.6402 89.5286C57.7038 89.5498 57.7568 89.5816 57.7992 89.624C57.9053 89.73 57.9583 89.852 57.9583 89.9898V94.6339L60.7256 92.3118C60.8211 92.2164 60.9271 92.1687 61.0437 92.1687C61.1604 92.1687 61.2611 92.2058 61.3459 92.28C61.4307 92.3543 61.4731 92.4285 61.4731 92.5027C61.4731 92.6511 61.4307 92.7572 61.3459 92.8208L58.9762 94.7929L61.6481 97.5603C61.7223 97.6557 61.7594 97.7352 61.7594 97.7988C61.7594 97.8624 61.7435 97.9208 61.7117 97.9738C61.6905 98.0268 61.6587 98.0745 61.6163 98.1169C61.5102 98.2017 61.3989 98.2441 61.2823 98.2441C61.1763 98.2441 61.0702 98.1911 60.9642 98.0851L57.9583 94.9679ZM64.0319 94.9679V97.7511C64.0319 97.9102 63.9789 98.0321 63.8729 98.1169C63.7668 98.2017 63.6502 98.2441 63.523 98.2441C63.4063 98.2441 63.295 98.207 63.189 98.1328C63.0935 98.048 63.0458 97.9208 63.0458 97.7511V89.9898C63.0458 89.8308 63.0988 89.7088 63.2049 89.624C63.3109 89.5392 63.4063 89.4968 63.4912 89.4968C63.5866 89.4968 63.6608 89.5074 63.7138 89.5286C63.7774 89.5498 63.8304 89.5816 63.8729 89.624C63.9789 89.73 64.0319 89.852 64.0319 89.9898V94.6339L66.7992 92.3118C66.8947 92.2164 67.0007 92.1687 67.1173 92.1687C67.234 92.1687 67.3347 92.2058 67.4195 92.28C67.5043 92.3543 67.5467 92.4285 67.5467 92.5027C67.5467 92.6511 67.5043 92.7572 67.4195 92.8208L65.0498 94.7929L67.7217 97.5603C67.7959 97.6557 67.833 97.7352 67.833 97.7988C67.833 97.8624 67.8171 97.9208 67.7853 97.9738C67.7641 98.0268 67.7323 98.0745 67.6899 98.1169C67.5839 98.2017 67.4725 98.2441 67.3559 98.2441C67.2499 98.2441 67.1438 98.1911 67.0378 98.0851L64.0319 94.9679Z" fill="#565656"/>
<line x1="52.4922" y1="102.909" x2="288.051" y2="102.909" stroke="#E2F1EA" stroke-width="1.25644"/>
<rect x="74.5547" y="148.371" width="6.90141" height="47.1596" rx="3.4507" fill="#00B76A"/>
<rect x="91.8086" y="147.221" width="8.05164" height="48.3099" rx="4.02582" fill="#00B76A"/>
<rect x="110.211" y="142.621" width="8.05164" height="52.9108" rx="4.02582" fill="#00B76A"/>
<rect x="128.613" y="139.17" width="8.05164" height="56.3615" rx="4.02582" fill="#00B76A"/>
<rect x="147.02" y="133.418" width="6.90141" height="62.1127" rx="3.4507" fill="#00B76A"/>
<rect x="165.422" y="116.164" width="6.90141" height="79.3662" rx="3.4507" fill="#00B76A"/>
<rect x="183.828" y="112.715" width="8.05164" height="82.8169" rx="4.02582" fill="#00B76A"/>
<rect width="7.53863" height="71.074" rx="3.76932" transform="matrix(0.999999 0.00145042 -0.00199964 0.999998 202.504 124.582)" fill="#00B76A"/>
<rect width="7.53863" height="63.5664" rx="3.76932" transform="matrix(0.999999 0.00145042 -0.00199964 0.999998 220.992 132.09)" fill="#00B76A"/>
<rect x="239.039" y="124.217" width="8.05164" height="71.3146" rx="4.02582" fill="#00B76A"/>
<rect x="257.441" y="102.361" width="8.05164" height="93.169" rx="4.02582" fill="#00B76A"/>
<rect x="276.996" y="87.4102" width="6.90141" height="108.122" rx="3.4507" fill="#00B76A"/>
<path d="M59.5141 62.96C58.2381 62.96 57.0848 62.6778 56.0542 62.1135C55.0359 61.5491 54.2323 60.77 53.6433 59.7762C53.0667 58.7701 52.7784 57.6475 52.7784 56.4083C52.7784 55.1691 53.0667 54.0526 53.6433 53.0588C54.2323 52.0527 55.042 51.2675 56.0726 50.7031C57.1032 50.1387 58.2565 49.8566 59.5325 49.8566C60.4895 49.8566 61.3729 50.0161 62.1827 50.3351C62.9924 50.6541 63.6795 51.1203 64.2439 51.7337L63.3789 52.5987C62.3728 51.5804 61.103 51.0712 59.5693 51.0712C58.551 51.0712 57.6247 51.3043 56.7904 51.7705C55.9561 52.2368 55.2997 52.8748 54.8212 53.6845C54.3549 54.4943 54.1218 55.4022 54.1218 56.4083C54.1218 57.4144 54.3549 58.3223 54.8212 59.1321C55.2997 59.9418 55.9561 60.5798 56.7904 61.046C57.6247 61.5123 58.551 61.7454 59.5693 61.7454C61.1153 61.7454 62.3851 61.2301 63.3789 60.1995L64.2439 61.0644C63.6795 61.6779 62.9863 62.1503 62.1643 62.4815C61.3545 62.8005 60.4711 62.96 59.5141 62.96ZM71.7309 53.0956C72.6388 53.0956 73.4609 53.3042 74.197 53.7213C74.9332 54.1262 75.5098 54.7029 75.927 55.4513C76.3441 56.1997 76.5527 57.0524 76.5527 58.0094C76.5527 58.9787 76.3441 59.8375 75.927 60.5859C75.5098 61.3344 74.9332 61.9172 74.197 62.3343C73.4731 62.7392 72.6511 62.9416 71.7309 62.9416C70.9457 62.9416 70.2341 62.7821 69.5961 62.4631C68.9704 62.1319 68.455 61.6534 68.0502 61.0276V66.4199H66.7435V53.1692H67.995V55.0832C68.3876 54.4452 68.9029 53.9545 69.5409 53.6109C70.1911 53.2674 70.9212 53.0956 71.7309 53.0956ZM71.6389 61.7822C72.3137 61.7822 72.9272 61.6288 73.4793 61.3221C74.0314 61.0031 74.4608 60.5553 74.7675 59.9786C75.0865 59.402 75.246 58.7456 75.246 58.0094C75.246 57.2733 75.0865 56.623 74.7675 56.0586C74.4608 55.482 74.0314 55.0341 73.4793 54.7151C72.9272 54.3961 72.3137 54.2367 71.6389 54.2367C70.9518 54.2367 70.3322 54.3961 69.7801 54.7151C69.2403 55.0341 68.8109 55.482 68.4919 56.0586C68.1851 56.623 68.0318 57.2733 68.0318 58.0094C68.0318 58.7456 68.1851 59.402 68.4919 59.9786C68.8109 60.5553 69.2403 61.0031 69.7801 61.3221C70.3322 61.6288 70.9518 61.7822 71.6389 61.7822ZM87.8259 58.4143H79.7282C79.8018 59.4204 80.1883 60.2363 80.8876 60.862C81.587 61.4755 82.4704 61.7822 83.5378 61.7822C84.139 61.7822 84.6911 61.6779 85.1941 61.4693C85.6972 61.2485 86.1327 60.9295 86.5008 60.5123L87.2369 61.3589C86.8075 61.8742 86.2677 62.2668 85.6174 62.5367C84.9794 62.8067 84.2739 62.9416 83.501 62.9416C82.5072 62.9416 81.6238 62.7331 80.8508 62.3159C80.0902 61.8865 79.4951 61.2976 79.0657 60.5491C78.6363 59.8007 78.4215 58.9541 78.4215 58.0094C78.4215 57.0647 78.624 56.2181 79.0289 55.4697C79.446 54.7213 80.0104 54.1385 80.722 53.7213C81.4459 53.3042 82.2557 53.0956 83.1513 53.0956C84.047 53.0956 84.8506 53.3042 85.5622 53.7213C86.2738 54.1385 86.8321 54.7213 87.2369 55.4697C87.6418 56.2059 87.8443 57.0524 87.8443 58.0094L87.8259 58.4143ZM83.1513 54.2182C82.2189 54.2182 81.4336 54.5188 80.7956 55.12C80.1699 55.709 79.8141 56.4819 79.7282 57.4389H86.5928C86.5069 56.4819 86.145 55.709 85.507 55.12C84.8813 54.5188 84.096 54.2182 83.1513 54.2182ZM99.9801 61.7086V65.1869H98.7471V62.8496H90.0789V65.1869H88.8458V61.7086H89.3979C90.0482 61.6718 90.4899 61.1933 90.723 60.2731C90.9561 59.3529 91.1156 58.0646 91.2015 56.4083L91.3303 53.1692H98.471V61.7086H99.9801ZM92.3978 56.4819C92.3364 57.8561 92.2199 58.991 92.0481 59.8866C91.8763 60.77 91.5696 61.3773 91.1279 61.7086H97.1643V54.3287H92.5082L92.3978 56.4819ZM102.527 53.1692H103.833V57.4573H109.925V53.1692H111.232V62.8496H109.925V58.5799H103.833V62.8496H102.527V53.1692ZM114.946 53.1692H116.252V60.862L122.712 53.1692H123.871V62.8496H122.565V55.1568L116.123 62.8496H114.946V53.1692ZM127.616 53.1692H128.923V60.862L135.382 53.1692H136.542V62.8496H135.235V55.1568L128.794 62.8496H127.616V53.1692ZM132.015 51.7705C131.18 51.7705 130.518 51.562 130.027 51.1448C129.536 50.7277 129.285 50.1387 129.272 49.3781H130.211C130.223 49.8566 130.395 50.243 130.726 50.5375C131.058 50.8197 131.487 50.9608 132.015 50.9608C132.542 50.9608 132.972 50.8197 133.303 50.5375C133.646 50.243 133.824 49.8566 133.837 49.3781H134.775C134.763 50.1387 134.505 50.7277 134.002 51.1448C133.511 51.562 132.849 51.7705 132.015 51.7705ZM152.41 53.1692V62.8496H151.103V58.8192C149.986 59.31 148.888 59.5553 147.809 59.5553C146.643 59.5553 145.735 59.2915 145.085 58.764C144.435 58.2241 144.109 57.4205 144.109 56.3531V53.1692H145.416V56.2795C145.416 57.0033 145.649 57.5555 146.115 57.9358C146.582 58.3039 147.226 58.4879 148.048 58.4879C148.956 58.4879 149.974 58.2487 151.103 57.7702V53.1692H152.41ZM164.586 58.4143H156.488C156.562 59.4204 156.949 60.2363 157.648 60.862C158.347 61.4755 159.231 61.7822 160.298 61.7822C160.899 61.7822 161.451 61.6779 161.954 61.4693C162.457 61.2485 162.893 60.9295 163.261 60.5123L163.997 61.3589C163.568 61.8742 163.028 62.2668 162.378 62.5367C161.74 62.8067 161.034 62.9416 160.261 62.9416C159.267 62.9416 158.384 62.7331 157.611 62.3159C156.85 61.8865 156.255 61.2976 155.826 60.5491C155.396 59.8007 155.182 58.9541 155.182 58.0094C155.182 57.0647 155.384 56.2181 155.789 55.4697C156.206 54.7213 156.771 54.1385 157.482 53.7213C158.206 53.3042 159.016 53.0956 159.912 53.0956C160.807 53.0956 161.611 53.3042 162.322 53.7213C163.034 54.1385 163.592 54.7213 163.997 55.4697C164.402 56.2059 164.604 57.0524 164.604 58.0094L164.586 58.4143ZM159.912 54.2182C158.979 54.2182 158.194 54.5188 157.556 55.12C156.93 55.709 156.574 56.4819 156.488 57.4389H163.353C163.267 56.4819 162.905 55.709 162.267 55.12C161.641 54.5188 160.856 54.2182 159.912 54.2182ZM171.012 58.5431H168.804V62.8496H167.497V53.1692H168.804V57.4205H171.03L174.435 53.1692H175.852L172.043 57.8622L176.128 62.8496H174.582L171.012 58.5431Z" fill="#565656"/>
<defs>
<filter id="filter0_d_1_317" x="0.938892" y="-0.00899649" width="338.169" height="256.503" filterUnits="userSpaceOnUse" color-interpolation-filters="sRGB">
<feFlood flood-opacity="0" result="BackgroundImageFix"/>
<feColorMatrix in="SourceAlpha" type="matrix" values="0 0 0 0 0 0 0 0 0 0 0 0 0 0 0 0 0 0 127 0" result="hardAlpha"/>
<feOffset dy="4.60094"/>
<feGaussianBlur stdDeviation="19.554"/>
<feComposite in2="hardAlpha" operator="out"/>
<feColorMatrix type="matrix" values="0 0 0 0 0 0 0 0 0 0 0 0 0 0 0 0 0 0 0.1 0"/>
<feBlend mode="normal" in2="BackgroundImageFix" result="effect1_dropShadow_1_317"/>
<feBlend mode="normal" in="SourceGraphic" in2="effect1_dropShadow_1_317" result="shape"/>
</filter>
<linearGradient id="paint0_linear_1_317" x1="41.7132" y1="37.2741" x2="324.234" y2="137.832" gradientUnits="userSpaceOnUse">
<stop stop-color="#E9FFF8"/>
<stop offset="1" stop-color="#F0FDF2"/>
</linearGradient>
</defs>
</svg>
