<svg width="18" height="20" viewBox="0 0 18 20" fill="none" xmlns="http://www.w3.org/2000/svg">
<path d="M9.09193 7.09931C7.45666 7.09931 6.12216 8.51725 6.12216 10.2547C6.12216 11.9922 7.45666 13.4102 9.09193 13.4102C10.7272 13.4102 12.0617 11.9922 12.0617 10.2547C12.0617 8.51725 10.7272 7.09931 9.09193 7.09931ZM17.999 10.2547C17.999 8.94807 18.0101 7.65323 17.9411 6.34892C17.872 4.83394 17.5467 3.48939 16.5041 2.38155C15.4592 1.27135 14.196 0.928113 12.7702 0.854731C11.5404 0.781349 10.3217 0.793185 9.09415 0.793185C7.86436 0.793185 6.64572 0.781349 5.41815 0.854731C3.99231 0.928113 2.72688 1.27372 1.68423 2.38155C0.639354 3.49175 0.316311 4.83394 0.247247 6.34892C0.178183 7.6556 0.189322 8.95044 0.189322 10.2547C0.189322 11.5591 0.178183 12.8563 0.247247 14.1606C0.316311 15.6756 0.641582 17.0201 1.68423 18.1279C2.7291 19.2381 3.99231 19.5814 5.41815 19.6548C6.64794 19.7281 7.86659 19.7163 9.09415 19.7163C10.3239 19.7163 11.5426 19.7281 12.7702 19.6548C14.196 19.5814 15.4614 19.2358 16.5041 18.1279C17.549 17.0177 17.872 15.6756 17.9411 14.1606C18.0124 12.8563 17.999 11.5614 17.999 10.2547ZM9.09193 15.1098C6.56328 15.1098 4.52255 12.9415 4.52255 10.2547C4.52255 7.56801 6.56328 5.39969 9.09193 5.39969C11.6206 5.39969 13.6613 7.56801 13.6613 10.2547C13.6613 12.9415 11.6206 15.1098 9.09193 15.1098ZM13.8484 6.33472C13.2581 6.33472 12.7813 5.82815 12.7813 5.20085C12.7813 4.57355 13.2581 4.06697 13.8484 4.06697C14.4388 4.06697 14.9156 4.57355 14.9156 5.20085C14.9158 5.3498 14.8883 5.49733 14.8347 5.63498C14.7812 5.77263 14.7026 5.89771 14.6034 6.00303C14.5043 6.10836 14.3866 6.19187 14.257 6.24879C14.1275 6.30571 13.9886 6.33491 13.8484 6.33472Z" fill="#2D2D2D"/>
</svg>
