<svg width="23" height="23" viewBox="0 0 23 23" fill="none" xmlns="http://www.w3.org/2000/svg">
<g clip-path="url(#clip0_3460_416)">
<path d="M19.6317 3.36826C17.4597 1.19622 14.5717 0 11.5 0C8.42829 0 5.54031 1.19622 3.36826 3.36826C1.19622 5.54031 0 8.42829 0 11.5C0 14.5717 1.19622 17.4597 3.36826 19.6317C5.54031 21.8038 8.42829 23 11.5 23C14.5717 23 17.4597 21.8038 19.6317 19.6317C21.8038 17.4597 23 14.5717 23 11.5C23 8.42829 21.8038 5.54031 19.6317 3.36826ZM18.6787 18.6787C16.7613 20.5963 14.2118 21.6523 11.5 21.6523C8.78819 21.6523 6.2387 20.5963 4.32127 18.6787C2.40367 16.7613 1.34766 14.2118 1.34766 11.5C1.34766 8.78819 2.40367 6.2387 4.32127 4.32127C6.2387 2.40367 8.78819 1.34766 11.5 1.34766C14.2118 1.34766 16.7613 2.40367 18.6787 4.32127C20.5963 6.2387 21.6523 8.78819 21.6523 11.5C21.6523 14.2118 20.5963 16.7613 18.6787 18.6787Z" fill="#0071BC"/>
<path d="M13.7898 15.0055H13.7583V10.2443C13.7583 9.68575 13.3039 9.23145 12.7455 9.23145H9.39566C8.83712 9.23145 8.38281 9.68575 8.38281 10.2443V11.8887C8.38281 12.4472 8.83712 12.9015 9.39566 12.9015H9.4304V15.0055H9.39566C8.83712 15.0055 8.38281 15.4598 8.38281 16.0183V17.6627C8.38281 18.2213 8.83712 18.6756 9.39566 18.6756H13.7898C14.3483 18.6756 14.8026 18.2213 14.8026 17.6627V16.0183C14.8026 15.46 14.3481 15.0055 13.7898 15.0055ZM13.4549 17.3281H9.73029V16.3531H10.054C10.4533 16.3531 10.7781 16.0283 10.7781 15.6291V12.2779C10.7781 11.8787 10.4533 11.554 10.054 11.554H9.73029V10.5791H12.4107V15.6291C12.4107 16.0283 12.7355 16.3531 13.1347 16.3531H13.4549V17.3281Z" fill="#0071BC"/>
<path d="M11.5894 8.67448C12.789 8.67448 13.7648 7.69866 13.7648 6.49911C13.7648 5.29973 12.789 4.32373 11.5894 4.32373C10.3899 4.32373 9.41406 5.29973 9.41406 6.49911C9.41406 7.69866 10.3899 8.67448 11.5894 8.67448ZM11.5894 5.67139C12.0459 5.67139 12.4172 6.04287 12.4172 6.49911C12.4172 6.95552 12.0459 7.32683 11.5894 7.32683C11.133 7.32683 10.7617 6.95552 10.7617 6.49911C10.7617 6.04287 11.133 5.67139 11.5894 5.67139Z" fill="#0071BC"/>
</g>
<defs>
<clipPath id="clip0_3460_416">
<rect width="23" height="23" fill="white"/>
</clipPath>
</defs>
</svg>
