<svg width="21" height="42" viewBox="0 0 21 42" fill="none" xmlns="http://www.w3.org/2000/svg">
<path d="M0.00709625 21.0329C0.00572675 21.7327 0.249726 22.4108 0.696738 22.9496L15.689 40.9181C16.1979 41.5297 16.9293 41.9143 17.7222 41.9873C18.515 42.0603 19.3045 41.8158 19.9168 41.3075C20.5291 40.7991 20.9142 40.0687 20.9873 39.2768C21.0604 38.4849 20.8156 37.6964 20.3066 37.0848L6.87355 21.0329L19.8269 4.98103C20.0759 4.67471 20.2619 4.32224 20.3742 3.94388C20.4864 3.56552 20.5227 3.16875 20.4809 2.77635C20.4391 2.38395 20.32 2.00367 20.1306 1.65736C19.9412 1.31106 19.6851 1.00556 19.3771 0.758423C19.0688 0.484161 18.7071 0.276451 18.3147 0.148296C17.9223 0.0201415 17.5076 -0.0256845 17.0966 0.0136755C16.6856 0.0530355 16.2872 0.176735 15.9263 0.377033C15.5654 0.577331 15.2499 0.849914 14.9993 1.17769L0.516833 19.1462C0.140479 19.7005 -0.0389929 20.3648 0.00709625 21.0329Z" fill="#979797"/>
</svg>
