<svg width="73" height="75" viewBox="0 0 73 75" fill="none" xmlns="http://www.w3.org/2000/svg">
<path d="M11.468 74.8921C11.006 73.2661 10.492 71.5281 10.018 69.7781C6.79399 57.8761 3.572 45.9741 0.383995 34.0641C0.249995 33.5621 0.285996 32.8781 0.527996 32.4341C2.534 28.7341 4.578 25.0521 6.678 21.4041C7.228 20.4481 7.34 19.6221 6.882 18.6021C5.486 15.4901 4.162 12.3461 2.742 9.05407C5.228 8.04007 7.744 6.89207 10.344 5.98007C16.672 3.76207 23.224 2.52207 29.862 1.65407C35.2 0.956069 40.546 0.792069 45.916 1.04807C46.486 1.07607 46.796 1.24607 47.07 1.76007C49.338 6.00807 51.41 10.3421 52.972 14.9041C53.232 15.6601 53.684 16.1601 54.394 16.5341C56.244 17.5121 58.074 18.5301 59.884 19.5821C60.21 19.7721 60.524 20.1581 60.63 20.5181C64.512 33.5781 68.368 46.6441 72.228 59.7101C72.27 59.8521 72.298 59.9981 72.368 60.2981C62.074 62.1041 51.812 63.9581 41.738 66.6721C31.664 69.3841 21.606 72.1361 11.468 74.8921ZM61.918 54.7201C61.954 54.6321 61.99 54.5441 62.026 54.4561C64.79 55.8161 67.554 57.1761 70.426 58.5901C70.104 57.4181 69.828 56.3381 69.512 55.2681C66.238 44.1301 62.954 32.9961 59.688 21.8561C59.548 21.3801 59.344 21.2261 58.854 21.2841C56.056 21.6141 53.25 21.8761 50.456 22.2381C42.148 23.3141 33.888 24.6701 25.712 26.5221C17.782 28.3181 9.954 30.4521 2.378 33.4361C2.18 33.5141 1.99 33.6181 1.776 33.7201C5.31 46.7861 8.82799 59.7941 12.346 72.8021C12.422 72.7981 12.498 72.7941 12.574 72.7901C14.094 69.7681 15.538 66.7021 17.826 64.1341C16.278 67.0521 14.732 69.9701 13.11 73.0261C31.908 67.4061 50.688 62.3661 69.934 59.2301C69.932 59.1681 69.928 59.1041 69.926 59.0421C67.256 57.6001 64.588 56.1601 61.918 54.7201ZM53.48 20.4701C53.412 20.2201 53.386 20.1021 53.35 19.9861C51.52 14.1281 49.458 8.36607 46.594 2.91407C46.27 2.29807 45.922 2.04607 45.242 2.01807C40.07 1.81007 34.908 1.93207 29.78 2.62407C21.358 3.76207 13.1 5.57407 5.25 8.95207C4.824 9.13607 4.39 9.30007 3.9 9.49607C7.266 15.6561 9.54 22.1621 11.664 28.7601C25.382 24.7221 39.286 22.0721 53.48 20.4701ZM2.214 31.9641C3.128 31.7161 4.056 31.6221 4.632 30.7601C5.946 28.7901 7.31999 26.8581 8.65399 24.9021C8.78399 24.7121 8.92799 24.4261 8.87599 24.2381C8.67599 23.5061 8.39799 22.7961 8.08999 21.9061C6.07199 25.3601 4.144 28.6621 2.214 31.9641ZM9.18 25.0441C7.746 27.0561 6.402 28.9441 5.056 30.8301C5.09 30.8741 5.122 30.9201 5.156 30.9641C6.918 30.3501 8.67799 29.7381 10.476 29.1121C10.048 27.7681 9.638 26.4821 9.18 25.0441ZM57.728 19.8881C56.458 19.1601 55.294 18.4941 54.082 17.8001C54.168 19.4741 55.64 20.6701 57.728 19.8881Z" fill="#0071BC"/>
<path d="M61.918 54.7201C64.586 56.1601 67.256 57.6001 69.924 59.0421C69.926 59.1041 69.93 59.1681 69.932 59.2301C50.686 62.3641 31.906 67.4061 13.108 73.0261C14.728 69.9701 16.276 67.0521 17.824 64.1341C15.536 66.7021 14.092 69.7681 12.572 72.7901C12.496 72.7941 12.42 72.7981 12.344 72.8021C8.82599 59.7941 5.30799 46.7861 1.77399 33.7201C1.98799 33.6181 2.17799 33.5141 2.37599 33.4361C9.95199 30.4521 17.78 28.3181 25.71 26.5221C33.886 24.6701 42.146 23.3141 50.454 22.2381C53.248 21.8761 56.054 21.6141 58.852 21.2841C59.342 21.2261 59.546 21.3801 59.686 21.8561C62.952 32.9961 66.234 44.1321 69.51 55.2681C69.824 56.3381 70.102 57.4181 70.424 58.5901C67.552 57.1761 64.788 55.8161 62.024 54.4561C61.99 54.5441 61.954 54.6321 61.918 54.7201ZM47.082 43.1281C41.566 48.4341 35.07 49.0501 28.032 47.4581C28.06 47.6461 28.06 47.8201 28.114 47.9761C29.484 51.9461 31.584 55.4281 34.992 57.9861C37.06 59.5361 39.428 60.1901 41.976 59.7161C45.158 59.1261 46.94 56.9521 47.884 54.0021C49.072 50.2921 48.258 46.7161 47.082 43.1281ZM27.356 37.4581C27.168 36.5881 27.1 35.6721 26.77 34.8601C25.764 32.3721 23.134 31.9101 21.502 34.0461C20.706 35.0901 20.022 35.2021 18.99 34.7601C18.968 34.7501 18.94 34.7521 18.916 34.7441C17.204 34.1921 15.758 35.4941 15.412 36.8261C14.934 38.6661 15.488 40.2381 16.762 41.5561C19.01 43.8781 21.858 44.7621 25.008 44.8221C25.234 44.8261 25.6 44.5821 25.676 44.3721C26.484 42.1421 27.22 39.8941 27.356 37.4581ZM39.786 32.6341C39.83 34.5041 40.708 35.9601 42.06 37.1741C43.898 38.8241 46.09 39.7081 48.49 40.1461C48.926 40.2261 49.196 40.0941 49.38 39.6841C49.826 38.6821 50.336 37.7081 50.748 36.6941C51.484 34.8801 52.042 33.0201 51.794 31.0221C51.454 28.2861 48.81 26.9841 46.822 28.8001C45.614 29.9021 44.754 29.8341 43.5 29.2681C42.448 28.7921 41.5 29.1641 40.756 30.0301C40.114 30.7761 39.762 31.6341 39.786 32.6341Z" fill="white"/>
<path d="M53.48 20.4701C39.286 22.0721 25.382 24.7221 11.666 28.7601C9.54001 22.1621 7.26801 15.6561 3.90201 9.49614C4.39001 9.30014 4.82601 9.13414 5.25201 8.95214C13.102 5.57414 21.36 3.76014 29.782 2.62414C34.91 1.93214 40.072 1.81014 45.244 2.01814C45.924 2.04614 46.274 2.29814 46.596 2.91414C49.46 8.36614 51.52 14.1281 53.352 19.9861C53.384 20.1021 53.412 20.2201 53.48 20.4701ZM29.07 19.5001C30.666 19.4901 32.202 19.1101 33.45 18.4181C35.974 17.0201 37.274 14.5461 36.782 11.8021C36.238 8.76014 34.604 6.50414 31.716 5.22614C27.142 3.20214 21.654 5.65214 21.276 11.9601C21.028 16.1041 24.704 19.5281 29.07 19.5001Z" fill="white"/>
<path d="M2.21399 31.9643C4.14399 28.6623 6.07399 25.3583 8.09199 21.9043C8.39999 22.7943 8.67799 23.5063 8.87799 24.2363C8.92999 24.4263 8.78599 24.7103 8.65599 24.9003C7.31999 26.8563 5.94799 28.7883 4.63399 30.7583C4.05599 31.6243 3.12799 31.7183 2.21399 31.9643Z" fill="white"/>
<path d="M9.18 25.0439C9.638 26.4819 10.048 27.7679 10.476 29.1119C8.678 29.7379 6.918 30.3499 5.156 30.9639C5.122 30.9199 5.09 30.8739 5.056 30.8299C6.402 28.9439 7.746 27.0559 9.18 25.0439Z" fill="white"/>
<path d="M57.728 19.8883C55.64 20.6703 54.168 19.4763 54.082 17.8003C55.294 18.4943 56.458 19.1603 57.728 19.8883Z" fill="white"/>
<path d="M47.082 43.1279C48.256 46.7159 49.072 50.2919 47.884 54.0019C46.94 56.9519 45.158 59.1259 41.976 59.7159C39.428 60.1879 37.058 59.5359 34.992 57.9859C31.584 55.4279 29.484 51.9459 28.114 47.9759C28.06 47.8199 28.06 47.6459 28.032 47.4579C35.07 49.0519 41.566 48.4359 47.082 43.1279ZM32.99 55.4579C37.392 51.8279 42.262 51.4399 47.424 53.2699C48.274 50.0879 47.748 47.1499 46.806 44.2059C41.406 48.8599 35.238 49.4819 28.548 48.0479C29.646 50.7479 30.954 53.2599 32.99 55.4579ZM33.352 55.8079C35.464 58.3599 38.756 59.6579 41.838 59.1879C44.386 58.7999 47.026 56.1539 47.242 53.7619C42.27 51.9839 37.61 52.3339 33.352 55.8079Z" fill="#0071BC"/>
<path d="M27.356 37.4582C27.22 39.8922 26.484 42.1423 25.678 44.3703C25.602 44.5803 25.236 44.8243 25.01 44.8203C21.86 44.7603 19.012 43.8762 16.764 41.5542C15.49 40.2362 14.936 38.6622 15.414 36.8242C15.76 35.4922 17.206 34.1903 18.918 34.7423C18.942 34.7503 18.968 34.7482 18.992 34.7582C20.024 35.2022 20.708 35.0882 21.504 34.0442C23.134 31.9082 25.764 32.3722 26.772 34.8582C27.1 35.6722 27.168 36.5882 27.356 37.4582ZM21.266 35.8002C20.19 35.6442 19.238 35.4382 18.278 35.3842C17.248 35.3282 16.63 35.8082 16.324 36.7822C15.818 38.3863 16.266 39.7822 17.37 40.9882C19.312 43.1083 21.906 43.6482 24.6 43.9042C24.762 43.9202 25.062 43.6443 25.118 43.4523C25.478 42.2103 25.894 40.9683 26.082 39.6963C26.262 38.4783 26.288 37.2142 26.194 35.9842C26.114 34.9442 25.66 33.9683 24.502 33.6703C23.482 33.4083 22.384 34.0182 21.7 35.1122C21.538 35.3662 21.38 35.6162 21.266 35.8002Z" fill="#0071BC"/>
<path d="M39.786 32.6343C39.762 31.6343 40.114 30.7783 40.756 30.0303C41.5 29.1643 42.448 28.7943 43.5 29.2683C44.754 29.8343 45.614 29.9043 46.822 28.8003C48.81 26.9843 51.454 28.2883 51.794 31.0223C52.042 33.0203 51.484 34.8803 50.748 36.6943C50.336 37.7083 49.826 38.6823 49.38 39.6843C49.198 40.0963 48.926 40.2263 48.49 40.1463C46.09 39.7063 43.896 38.8243 42.06 37.1743C40.708 35.9603 39.83 34.5043 39.786 32.6343ZM40.678 32.5903C40.692 33.9343 41.1 35.0123 42.024 35.9743C43.722 37.7463 45.83 38.7523 48.218 39.1883C48.418 39.2243 48.804 39.0083 48.884 38.8163C49.47 37.4443 50.136 36.0843 50.506 34.6503C50.822 33.4223 50.988 32.0783 50.846 30.8283C50.626 28.8823 48.508 28.1003 47.204 29.5463C46.156 30.7083 45.376 30.5683 44.146 30.0703C42.184 29.2803 40.656 30.4703 40.678 32.5903Z" fill="#0071BC"/>
<path d="M29.07 19.5003C24.704 19.5283 21.028 16.1043 21.276 11.9623C21.654 5.6523 27.142 3.2023 31.716 5.2283C34.606 6.5063 36.238 8.7623 36.782 11.8043C37.274 14.5483 35.972 17.0203 33.45 18.4203C32.202 19.1103 30.666 19.4903 29.07 19.5003ZM29.144 18.8103C29.736 18.7323 30.334 18.6903 30.916 18.5743C34.056 17.9503 36.146 15.6283 36.114 12.8263C36.078 9.6323 33.89 6.6103 30.844 5.6503C28.43 4.8903 26.15 5.0703 24.252 6.9543C22.414 8.7783 21.588 10.9723 22.156 13.5503C22.842 16.6543 25.67 18.7283 29.144 18.8103Z" fill="#0071BC"/>
<path d="M32.99 55.458C30.954 53.26 29.646 50.748 28.548 48.05C35.24 49.482 41.406 48.862 46.806 44.208C47.748 47.152 48.272 50.09 47.424 53.272C42.262 51.44 37.39 51.828 32.99 55.458Z" fill="white"/>
<path d="M33.352 55.8079C37.61 52.3339 42.27 51.9839 47.242 53.7619C47.024 56.1539 44.384 58.7999 41.838 59.1879C38.756 59.6559 35.464 58.3579 33.352 55.8079Z" fill="white"/>
<path d="M21.266 35.8002C21.382 35.6162 21.54 35.3642 21.698 35.1122C22.382 34.0202 23.482 33.4082 24.5 33.6702C25.658 33.9682 26.114 34.9442 26.192 35.9842C26.286 37.2142 26.26 38.4782 26.08 39.6962C25.892 40.9682 25.476 42.2102 25.116 43.4522C25.06 43.6442 24.762 43.9182 24.598 43.9042C21.904 43.6502 19.31 43.1082 17.368 40.9882C16.264 39.7822 15.816 38.3862 16.322 36.7822C16.63 35.8082 17.246 35.3282 18.276 35.3842C19.238 35.4382 20.19 35.6442 21.266 35.8002Z" fill="white"/>
<path d="M40.678 32.59C40.656 30.472 42.186 29.28 44.144 30.07C45.374 30.566 46.154 30.708 47.202 29.546C48.506 28.1 50.624 28.884 50.844 30.828C50.986 32.078 50.82 33.422 50.504 34.65C50.134 36.084 49.468 37.444 48.882 38.816C48.8 39.008 48.416 39.224 48.216 39.188C45.828 38.752 43.72 37.746 42.022 35.974C41.1 35.012 40.69 33.932 40.678 32.59Z" fill="white"/>
<path d="M29.144 18.8099C25.67 18.7279 22.842 16.6539 22.158 13.5479C21.59 10.9699 22.416 8.77587 24.254 6.95187C26.152 5.06987 28.432 4.88787 30.846 5.64787C33.892 6.60587 36.08 9.62987 36.116 12.8239C36.146 15.6259 34.058 17.9479 30.918 18.5719C30.334 18.6899 29.736 18.7339 29.144 18.8099ZM31.754 9.73187C32.086 9.25787 32.288 8.76587 31.85 8.25387C31.612 7.97587 29.484 8.08187 29.244 8.36987C29.166 8.46387 29.106 8.57987 29.068 8.69587C28.798 9.50587 29.53 10.5739 30.616 10.9439C31.586 11.2739 31.394 10.2999 31.734 9.92587C31.776 9.87987 31.762 9.78387 31.774 9.70987L31.754 9.73187ZM27.15 11.2679C27.058 10.8119 27.036 10.3279 26.858 9.90787C26.626 9.36187 26.002 9.24987 25.648 9.69387C25.36 10.0519 25.068 10.2099 24.622 10.2839C24.42 10.3179 24.162 10.6759 24.124 10.9179C24.004 11.6939 24.906 12.4159 25.966 12.4599C27.024 12.5019 27.084 12.4399 27.15 11.2679ZM27.624 14.2899C28.106 15.4519 28.93 16.2459 30.17 16.4919C30.968 16.6499 31.666 16.3779 32.102 15.6679C32.756 14.6039 32.538 13.5239 32.094 12.4619C32.1 13.1519 32.214 13.8419 32.214 14.5299C32.212 15.7499 31.218 16.5439 30.054 16.1899C29.466 16.0119 28.93 15.6019 28.426 15.2239C28.104 14.9819 27.888 14.6059 27.624 14.2899ZM30.848 13.1839C30.82 13.1259 30.792 13.0659 30.764 13.0079C29.84 13.2199 28.914 13.4339 27.99 13.6459C28 13.6939 28.01 13.7399 28.02 13.7879C28.964 13.5859 29.906 13.3839 30.848 13.1839Z" fill="white"/>
<path d="M27.15 11.2683C27.084 12.4403 27.026 12.5023 25.966 12.4603C24.904 12.4163 24.004 11.6943 24.124 10.9183C24.162 10.6763 24.42 10.3183 24.622 10.2843C25.066 10.2103 25.36 10.0543 25.648 9.6943C26.002 9.2523 26.626 9.3623 26.858 9.9083C27.036 10.3263 27.058 10.8123 27.15 11.2683ZM26.88 12.0723C26.838 11.4623 26.864 10.8643 26.74 10.2963C26.602 9.6583 26.214 9.5943 25.71 10.0123C25.518 10.1723 25.26 10.2483 25.038 10.3743C24.816 10.5023 24.464 10.6143 24.422 10.7923C24.366 11.0303 24.48 11.3923 24.652 11.5843C25.202 12.2003 25.924 12.2963 26.88 12.0723Z" fill="#0071BC"/>
<path d="M31.776 9.70991C31.764 9.78391 31.778 9.87991 31.736 9.92591C31.394 10.2999 31.588 11.2759 30.618 10.9439C29.532 10.5739 28.8 9.50591 29.07 8.69591C29.108 8.57991 29.168 8.46391 29.246 8.36991C29.484 8.08191 31.614 7.97391 31.852 8.25391C32.29 8.76591 32.088 9.25791 31.754 9.73391C31.752 9.61391 31.738 9.48991 31.756 9.37191C31.894 8.46791 31.686 8.28391 30.832 8.48591C30.59 8.54191 30.306 8.47591 30.054 8.41191C29.658 8.31191 29.432 8.42991 29.342 8.82991C29.192 9.50391 29.7 10.2719 30.514 10.6219C31.254 10.9399 31.294 10.2539 31.574 9.90591C31.63 9.83191 31.708 9.77391 31.776 9.70991Z" fill="#0071BC"/>
<path d="M27.624 14.2899C27.888 14.6059 28.106 14.9819 28.426 15.2239C28.93 15.6039 29.466 16.0119 30.054 16.1899C31.218 16.5419 32.21 15.7499 32.214 14.5299C32.216 13.8419 32.1 13.1519 32.094 12.4619C32.536 13.5239 32.756 14.6039 32.102 15.6679C31.666 16.3779 30.968 16.6519 30.17 16.4919C28.93 16.2439 28.106 15.4499 27.624 14.2899Z" fill="#0071BC"/>
<path d="M30.848 13.1843C29.906 13.3863 28.964 13.5863 28.022 13.7883C28.012 13.7403 28.002 13.6943 27.992 13.6463C28.916 13.4343 29.842 13.2203 30.766 13.0083C30.792 13.0663 30.82 13.1243 30.848 13.1843Z" fill="#0071BC"/>
<path d="M26.88 12.0718C25.924 12.2958 25.202 12.1998 24.654 11.5858C24.482 11.3938 24.368 11.0318 24.424 10.7938C24.466 10.6158 24.818 10.5038 25.04 10.3758C25.26 10.2478 25.52 10.1718 25.712 10.0138C26.216 9.59583 26.604 9.65983 26.742 10.2978C26.864 10.8618 26.838 11.4618 26.88 12.0718Z" fill="white"/>
<path d="M31.776 9.70988C31.708 9.77388 31.63 9.83187 31.572 9.90387C31.292 10.2539 31.252 10.9379 30.512 10.6199C29.698 10.2699 29.19 9.49988 29.34 8.82788C29.43 8.42588 29.656 8.30988 30.052 8.40988C30.304 8.47388 30.588 8.53988 30.83 8.48388C31.684 8.28388 31.892 8.46588 31.754 9.36988C31.736 9.48788 31.752 9.61188 31.752 9.73188C31.754 9.73188 31.776 9.70988 31.776 9.70988Z" fill="white"/>
</svg>
