<svg width="60" height="60" viewBox="0 0 60 60" fill="none" xmlns="http://www.w3.org/2000/svg">
<g clip-path="url(#clip0_610_2227)">
<path d="M31.2383 33.9898C28.9967 33.9794 26.7698 33.6283 24.6338 32.9483C21.2209 31.8066 18.686 28.9173 17.998 25.3849C17.2451 21.7584 18.6172 17.9239 21.7617 14.8649C22.0991 14.5363 22.4497 14.2216 22.8135 13.9206C26.0331 11.2252 30.3738 10.2885 34.4185 11.4162C38.3342 12.6661 41.0399 16.2446 41.1753 20.3527C41.3219 22.7175 40.5511 25.0477 39.0234 26.8586C37.8451 28.3429 35.9359 29.044 34.0771 28.675C33.3169 28.5173 32.6536 28.0569 32.24 27.3998C31.8689 26.7616 31.7737 25.9998 31.9764 25.2898C32.8509 21.9842 33.74 16.9607 33.7488 16.9098C33.8109 16.5579 34.056 16.2659 34.3918 16.1437C34.7276 16.0216 35.1031 16.0878 35.3768 16.3176C35.6505 16.5473 35.7809 16.9056 35.7188 17.2575C35.6817 17.4665 34.8062 22.4147 33.9102 25.801C33.8462 25.9887 33.8623 26.1944 33.9546 26.3698C34.0929 26.5612 34.3015 26.6897 34.5346 26.7272C35.6725 26.9172 36.8219 26.4607 37.5195 25.5417C38.7059 24.1224 39.3003 22.3008 39.1795 20.4548C39.0817 17.1848 36.9373 14.3299 33.8241 13.3248C30.4258 12.3901 26.7851 13.1886 24.09 15.4598C23.7687 15.7265 23.4562 16.0057 23.1564 16.2977C21.6018 17.8099 19.1193 20.9477 19.9558 24.9777C20.5178 27.7932 22.5287 30.1006 25.2409 31.0422C29.9309 32.5383 36.6701 32.7184 40.2209 28.3034C40.5697 27.8833 41.1911 27.8207 41.6168 28.1629C42.0424 28.505 42.1148 29.1253 41.7795 29.5563C39.1538 32.8216 35.1582 33.9898 31.2383 33.9898Z" fill="#2D2D2D"/>
<path d="M27.8149 28.805C26.7578 28.8232 25.7268 28.4765 24.8955 27.8235C22.9761 26.2874 22.9233 23.6189 23.4614 21.8016C23.6426 21.1964 23.8859 20.6115 24.1875 20.0564C24.9378 18.5425 26.1375 17.2974 27.6226 16.4915C29.4719 15.5319 31.7314 15.8958 33.186 17.3875C33.9076 18.1783 34.4512 19.1148 34.78 20.1336C34.9541 20.6506 34.6817 21.2118 34.1678 21.3948C33.6538 21.5779 33.088 21.3152 32.8962 20.8045C32.6591 20.0518 32.265 19.358 31.74 18.7688C30.8919 17.9016 29.5706 17.7042 28.5062 18.2859C27.3925 18.914 26.4975 19.8676 25.9412 21.0188C25.7074 21.4501 25.5186 21.9044 25.3777 22.3743C24.9891 23.6888 25.0745 25.4043 26.1468 26.263C27.3191 27.2044 29.2968 26.8064 30.4095 25.8465C31.2387 25.1 31.9512 24.2332 32.5232 23.2752C32.7084 22.9648 33.0467 22.7786 33.408 22.788C33.7693 22.7975 34.0974 23.0011 34.2661 23.3207C34.4349 23.6403 34.4181 24.0261 34.2222 24.3298C33.5447 25.4587 32.7013 26.4792 31.7202 27.3571C30.6267 28.2797 29.2455 28.7918 27.8149 28.805Z" fill="#2D2D2D"/>
<path d="M57 59.9997H2.99999C1.34389 59.9978 0.00180536 58.6558 -1.33514e-05 56.9997V19.9997C2.36856e-06 19.6119 0.224203 19.2591 0.57527 19.0944C0.926336 18.9297 1.34097 18.9828 1.63919 19.2307L26.1763 39.6232C28.3965 41.4567 31.6057 41.4561 33.8252 39.6218L58.36 19.2307C58.6582 18.9823 59.0732 18.9289 59.4245 19.0936C59.7759 19.2584 60.0002 19.6116 60 19.9997V56.9997C59.9982 58.6558 58.6561 59.9978 57 59.9997ZM1.99999 22.131V56.9997C2.0007 57.5517 2.448 57.9989 2.99999 57.9997H57C57.5521 57.9992 57.9995 57.5517 58 56.9997V22.131L35.1021 41.161C32.1415 43.6077 27.8607 43.6083 24.8994 41.1625L1.99999 22.131Z" fill="#2D2D2D"/>
<path d="M1.00098 20.9996C0.565413 21 0.179688 20.7184 0.0473486 20.3034C-0.0849905 19.8884 0.0665006 19.4355 0.421883 19.1837L9.42188 12.8037C9.87248 12.4914 10.4905 12.6001 10.8075 13.0474C11.1244 13.4948 11.0221 14.1139 10.5781 14.4355L1.57808 20.8155C1.40956 20.9354 1.20782 20.9998 1.00098 20.9996Z" fill="#2D2D2D"/>
<path d="M58.999 20.9996C58.7921 20.9998 58.5904 20.9354 58.4219 20.8155L49.4219 14.4355C48.9779 14.1139 48.8756 13.4948 49.1925 13.0474C49.5095 12.6001 50.1275 12.4914 50.5781 12.8037L59.5781 19.1837C59.9335 19.4355 60.0849 19.8884 59.9526 20.3034C59.8203 20.7184 59.4345 21 58.999 20.9996Z" fill="#2D2D2D"/>
<path d="M39.2393 6.99983C39.0323 6.99994 38.8304 6.9356 38.6616 6.81573L33.8816 3.42573C31.6627 1.55072 28.4203 1.53119 26.179 3.37933L21.339 6.81583C21.0475 7.02255 20.6679 7.05805 20.3431 6.90897C20.0183 6.75988 19.7978 6.44886 19.7645 6.09307C19.7312 5.73727 19.8903 5.39075 20.1818 5.18403L24.9618 1.79403C27.9154 -0.621 32.1669 -0.601791 35.0986 1.83983L39.8186 5.18363C40.1743 5.43542 40.326 5.88854 40.1935 6.30371C40.0611 6.71889 39.6751 7.0005 39.2393 6.99983Z" fill="#2D2D2D"/>
<path d="M1.64999 59.46C1.22855 59.4603 0.852123 59.1965 0.708756 58.8002C0.56539 58.4039 0.685862 57.9602 1.00999 57.6909L23.83 38.7309C24.1042 38.4977 24.4826 38.4299 24.8207 38.5533C25.1588 38.6767 25.4045 38.9724 25.464 39.3274C25.5235 39.6823 25.3877 40.0419 25.1083 40.2689L2.28829 59.2289C2.10912 59.3782 1.88324 59.46 1.64999 59.46Z" fill="#2D2D2D"/>
<path d="M58.3486 59.4599C58.1155 59.46 57.8898 59.3783 57.7109 59.2289L34.8909 40.2689C34.6115 40.0419 34.4757 39.6823 34.5352 39.3274C34.5947 38.9724 34.8404 38.6767 35.1785 38.5533C35.5166 38.4299 35.895 38.4977 36.1692 38.7309L58.9886 57.6909C59.3127 57.9602 59.4332 58.4039 59.2898 58.8002C59.1465 59.1965 58.77 59.4603 58.3486 59.46V59.4599Z" fill="#2D2D2D"/>
<path d="M50 28.4797C49.4477 28.4797 49 28.032 49 27.4797V7.00748C48.9971 7.02848 48.957 7.00018 48.89 6.99968H11.11C11.0658 6.99697 11.0224 7.01251 10.99 7.04268L11 27.4797C11 28.032 10.5523 28.4797 9.99998 28.4797C9.4477 28.4797 8.99998 28.032 8.99998 27.4797V6.99968C9.03224 5.86558 9.97578 4.97124 11.11 4.99968H48.89C50.0241 4.97135 50.9676 5.86563 51 6.99968V27.4797C51 28.032 50.5523 28.4797 50 28.4797Z" fill="#2D2D2D"/>
</g>
<defs>
<clipPath id="clip0_610_2227">
<rect width="60" height="60" fill="white"/>
</clipPath>
</defs>
</svg>
