<svg width="15" height="14" viewBox="0 0 15 14" fill="none" xmlns="http://www.w3.org/2000/svg">
<path d="M1.81486 0.500353C1.65352 0.500395 1.49586 0.548566 1.36203 0.638707C1.2282 0.728847 1.12429 0.856862 1.06358 1.00639C1.00287 1.15591 0.988115 1.32014 1.02121 1.4781C1.0543 1.63605 1.13374 1.78054 1.24936 1.8931L6.35315 6.99826L1.24936 12.1034C1.17152 12.1782 1.10938 12.2677 1.06657 12.3668C1.02376 12.4659 1.00114 12.5725 1.00004 12.6804C0.998944 12.7883 1.01939 12.8954 1.06017 12.9953C1.10096 13.0953 1.16127 13.186 1.23757 13.2624C1.31387 13.3387 1.40463 13.399 1.50453 13.4398C1.60443 13.4806 1.71146 13.5011 1.81936 13.5C1.92726 13.4989 2.03386 13.4762 2.13291 13.4334C2.23196 13.3906 2.32147 13.3284 2.39621 13.2506L7.5 8.14541L12.6038 13.2506C12.6785 13.3284 12.768 13.3906 12.8671 13.4334C12.9661 13.4762 13.0727 13.4989 13.1806 13.5C13.2885 13.5011 13.3956 13.4806 13.4955 13.4398C13.5954 13.399 13.6861 13.3387 13.7624 13.2624C13.8387 13.186 13.899 13.0953 13.9398 12.9953C13.9806 12.8954 14.0011 12.7883 14 12.6804C13.9989 12.5725 13.9762 12.4659 13.9334 12.3668C13.8906 12.2677 13.8285 12.1782 13.7506 12.1034L8.64685 6.99826L13.7506 1.8931C13.8678 1.77915 13.9479 1.63244 13.9803 1.47221C14.0127 1.31197 13.996 1.14568 13.9323 0.99512C13.8686 0.844564 13.7609 0.716768 13.6233 0.628481C13.4858 0.540194 13.3247 0.495534 13.1614 0.500353C12.9507 0.506633 12.7507 0.594717 12.6038 0.745945L7.5 5.8511L2.39621 0.745945C2.32063 0.668232 2.23024 0.60646 2.13039 0.564278C2.03054 0.522095 1.92325 0.500359 1.81486 0.500353Z" fill="#D6D6D6" stroke="#D6D6D6" stroke-width="0.6"/>
</svg>
