<svg width="143" height="86" viewBox="0 0 143 86" fill="none" xmlns="http://www.w3.org/2000/svg">
<path d="M129.476 74.6482C128.794 73.7992 128.283 72.8404 127.852 71.8517C127.641 71.3623 127.441 70.8529 127.25 70.3535C127.16 70.1138 127.06 69.8841 126.99 69.6444C126.91 69.3947 126.88 69.2649 127 69.0252C127 68.8554 127.07 68.7855 127.2 68.8055C127.311 68.7755 127.381 68.8254 127.421 68.9553C127.521 68.9453 127.621 68.9253 127.712 68.9153C127.11 67.1076 126.719 65.2399 126.549 63.3523C126.469 62.4334 126.439 61.5046 126.459 60.5757C126.469 60.1463 126.489 59.7168 126.529 59.2774C126.539 59.1076 126.519 58.6282 126.619 58.4883C126.729 58.4584 126.829 58.4284 126.94 58.4084C127.12 58.2586 127.26 58.2586 127.351 58.4184C127.461 58.5083 127.531 58.6681 127.601 58.788C129.436 61.8242 130.658 65.2499 131.25 68.7356C131.591 70.7431 131.721 72.7705 131.631 74.808C131.621 74.9977 131.921 74.9977 131.931 74.808C132.092 70.763 131.42 66.6981 129.947 62.9228C129.576 61.984 129.165 61.0651 128.704 60.1662C128.493 59.7468 128.263 59.3373 128.032 58.9378C127.842 58.6082 127.651 58.2087 127.331 57.989C126.709 57.5695 126.348 58.1687 126.278 58.7181C126.148 59.7568 126.128 60.8154 126.158 61.8641C126.228 64.2911 126.649 66.6881 127.411 68.9853C127.461 69.1451 127.712 69.1251 127.702 68.9453C127.702 68.5458 127.25 68.376 126.91 68.5458C126.308 68.8354 126.649 69.6644 126.809 70.1038C127.431 71.7818 128.102 73.4397 129.235 74.8479C129.385 75.0177 129.596 74.798 129.476 74.6482Z" fill="#F3F3F3"/>
<path d="M131.24 67.177C131.32 65.8487 131.49 64.5303 131.781 63.2219C131.922 62.6127 132.072 62.0035 132.262 61.4042C132.353 61.1046 132.453 60.805 132.553 60.5153C132.603 60.3655 132.653 60.2157 132.713 60.0759C132.733 60.0159 132.753 59.956 132.784 59.8961C132.824 59.6864 132.964 59.5665 133.194 59.5266C133.174 59.6963 133.445 59.7263 133.485 59.5665C133.686 58.9073 135.309 54.6626 136.302 55.3917C136.592 55.6015 136.673 56.0909 136.723 56.4204C136.803 56.8799 136.873 57.3493 136.923 57.8087C137.013 58.5977 137.074 59.3867 137.094 60.1857C137.184 63.4317 136.693 66.6976 135.65 69.7837C135.049 71.5515 134.267 73.2394 133.325 74.8474C133.225 75.0172 133.485 75.167 133.585 74.9972C135.48 71.7812 136.693 68.2057 137.174 64.5203C137.414 62.6626 137.475 60.785 137.334 58.9173C137.264 58.0284 137.164 57.1395 137.003 56.2606C136.913 55.7812 136.693 55.0721 136.121 54.9822C135.37 54.8624 134.788 56.1008 134.488 56.6002C133.936 57.5091 133.515 58.4779 133.205 59.4866C133.305 59.4966 133.405 59.5166 133.495 59.5266C133.555 59.0472 132.954 59.0172 132.713 59.3268C132.533 59.5565 132.453 59.8961 132.363 60.1658C132.192 60.6352 132.042 61.1146 131.901 61.594C131.37 63.4117 131.059 65.2794 130.949 67.167C130.929 67.3668 131.23 67.3668 131.24 67.177Z" fill="#F3F3F3"/>
<path d="M126.529 58.378C128.714 63.4617 130.087 68.8649 130.588 74.368C130.608 74.5578 130.909 74.5578 130.889 74.368C130.378 68.805 128.995 63.3618 126.79 58.2182C126.709 58.0484 126.449 58.2082 126.529 58.378Z" fill="#F3F3F3"/>
<path d="M126.469 64.9598C127.511 65.4792 128.473 66.1284 129.345 66.8874C129.486 67.0173 129.706 66.8075 129.556 66.6777C128.654 65.8986 127.682 65.2395 126.609 64.7001C126.449 64.6202 126.288 64.8799 126.469 64.9598Z" fill="#F3F3F3"/>
<path d="M129.255 62.0334C128.975 62.5827 128.764 63.162 128.634 63.7713C128.594 63.961 128.884 64.0409 128.924 63.8512C129.055 63.2719 129.245 62.7126 129.516 62.1832C129.606 62.0135 129.345 61.8636 129.255 62.0334Z" fill="#F3F3F3"/>
<path d="M135.81 55.6221C135.159 61.4248 134.447 67.4173 131.611 72.6308C131.521 72.8006 131.781 72.9504 131.871 72.7807C134.738 67.5172 135.45 61.4847 136.111 55.6221C136.131 55.4323 135.831 55.4323 135.81 55.6221Z" fill="#F3F3F3"/>
<path d="M132.062 61.3047C132.864 63.1824 133.455 65.13 133.846 67.1275C133.886 67.3172 134.177 67.2373 134.137 67.0476C133.736 65.0201 133.124 63.0525 132.322 61.1549C132.242 60.9751 131.992 61.1249 132.062 61.3047Z" fill="#F3F3F3"/>
<path d="M135.079 62.8126C135.831 61.8637 136.582 60.9149 137.334 59.9761C137.454 59.8263 137.244 59.6166 137.124 59.7664C136.372 60.7152 135.62 61.664 134.868 62.6028C134.748 62.7426 134.959 62.9624 135.079 62.8126Z" fill="#F3F3F3"/>
<path d="M10.5175 73.3198C9.86602 72.6207 9.20447 71.9016 8.67323 71.1026C8.42264 70.7131 8.1921 70.3136 8.01168 69.8841C7.91144 69.6444 7.44034 68.366 8.09187 68.6257C8.25224 68.6856 8.32241 68.4759 8.24222 68.376C7.58067 67.537 7.13964 66.5583 6.75875 65.5695C6.3979 64.6307 6.04708 63.6819 5.71631 62.733C5.35547 61.6943 5.04474 60.6257 4.92446 59.537C4.83425 58.6781 4.74404 57.4996 5.36549 56.7905C6.27762 55.7618 7.19978 57.4596 7.63079 58.0988C8.21215 58.9578 8.78348 59.8367 9.33477 60.7156C10.4273 62.5033 11.4197 64.361 12.1514 66.3385C12.9833 68.5957 13.4444 70.9827 13.3341 73.3897C13.3241 73.5795 13.6248 73.5795 13.6348 73.3897C13.8553 68.5158 11.7604 63.9715 9.20447 59.9365C8.57299 58.9478 7.94151 57.949 7.2499 57.0002C6.85898 56.4709 6.23753 55.9216 5.53589 56.2711C4.89439 56.5807 4.65383 57.4097 4.59368 58.0589C4.48343 59.2374 4.71397 60.4359 5.03472 61.5645C5.39556 62.8429 5.88671 64.0814 6.34779 65.3198C6.7788 66.4784 7.25992 67.607 8.03173 68.5857C8.08184 68.5058 8.13196 68.4159 8.18208 68.336C7.92147 68.2362 7.69093 68.2661 7.47041 68.4259C7.43032 68.4559 7.39022 68.5058 7.40025 68.5558C7.62076 70.5732 8.99398 72.1213 10.3171 73.5395C10.4374 73.6794 10.6478 73.4696 10.5175 73.3198Z" fill="#F3F3F3"/>
<path d="M11.3394 63.8216C11.0287 61.0251 11.3995 58.2186 12.4219 55.5919C12.3417 55.6118 12.2515 55.6318 12.1713 55.6618C12.4821 55.9414 12.6926 56.261 12.8128 56.6605C12.8529 56.8003 13.0634 56.8103 13.1035 56.6605C13.7851 54.3035 14.7774 52.0563 16.0805 49.9689C15.9903 49.9589 15.9001 49.9489 15.8098 49.9289C16.5917 51.9164 17.0828 54.0138 17.2432 56.1512C17.3835 58.0688 17.4336 60.276 16.2609 61.904C16.2008 61.9839 16.2609 62.1037 16.3511 62.1237C17.2532 62.3334 16.9826 63.7517 16.9024 64.3909C16.7821 65.4495 16.6017 66.5082 16.3712 67.5469C15.9301 69.5544 15.2886 71.522 14.4767 73.4096C14.3965 73.5894 14.6571 73.7392 14.7373 73.5594C15.6896 71.3622 16.4012 69.065 16.8523 66.718C17.0528 65.6393 17.2833 64.5007 17.3033 63.4021C17.3134 62.7729 17.153 61.9839 16.4413 61.8241C16.4714 61.894 16.5015 61.9739 16.5315 62.0438C17.7043 60.4158 17.6842 58.2386 17.564 56.3209C17.4236 54.0937 16.9225 51.9065 16.1106 49.839C16.0604 49.7192 15.9101 49.6892 15.8399 49.7991C14.5268 51.9065 13.5245 54.1736 12.8329 56.5606C12.9331 56.5606 13.0233 56.5606 13.1236 56.5606C12.9832 56.1112 12.7527 55.7517 12.4019 55.4321C12.3117 55.3522 12.1914 55.3921 12.1513 55.502C11.1189 58.1487 10.748 60.9951 11.0587 63.8116C11.0587 64.0113 11.3594 64.0113 11.3394 63.8216Z" fill="#F3F3F3"/>
<path d="M5.47594 56.7405C6.8692 59.4871 8.29253 62.2237 9.62565 65.0002C10.9287 67.7368 12.0814 70.5633 12.7028 73.5395C12.7429 73.7293 13.0336 73.6494 12.9935 73.4596C12.3721 70.5133 11.2494 67.7268 9.95642 65.0102C8.61328 62.1737 7.14986 59.3872 5.72653 56.5807C5.64634 56.4209 5.38573 56.5708 5.47594 56.7405Z" fill="#F3F3F3"/>
<path d="M15.8702 50.3485C15.6597 53.3148 14.7375 56.1513 14.0559 59.0277C13.3743 61.9041 12.9032 64.8304 12.6426 67.7767C12.6226 67.9665 12.9233 67.9665 12.9433 67.7767C13.2139 64.7306 13.7151 61.7043 14.4368 58.7381C15.1184 55.9615 15.9604 53.215 16.1709 50.3485C16.1809 50.1488 15.8802 50.1488 15.8702 50.3485Z" fill="#F3F3F3"/>
<path d="M5.31541 62.463C6.82894 62.9724 8.21218 63.7514 9.44506 64.7701C9.59541 64.89 9.8059 64.6802 9.65555 64.5604C8.38258 63.5117 6.95925 62.7127 5.39559 62.1734C5.20515 62.1035 5.12496 62.3931 5.31541 62.463Z" fill="#F3F3F3"/>
<path d="M12.0813 55.832C12.4221 57.6397 12.9233 59.4175 13.5748 61.1353C13.645 61.3151 13.9356 61.2352 13.8655 61.0554C13.2139 59.3276 12.7228 57.5598 12.372 55.7521C12.3319 55.5623 12.0512 55.6422 12.0813 55.832Z" fill="#F3F3F3"/>
<path d="M13.1637 68.4355C14.2463 67.0173 15.3589 65.5891 16.9426 64.7002C17.113 64.6103 16.9626 64.3506 16.7922 64.4405C15.1684 65.3594 14.0157 66.8275 12.9031 68.2857C12.7929 68.4355 13.0535 68.5853 13.1637 68.4355Z" fill="#F3F3F3"/>
<path d="M117.408 75.1872C125.837 75.1872 134.277 75.1872 142.707 75.1872C143.098 75.1872 143.098 74.5879 142.707 74.5879C134.277 74.5879 125.837 74.5879 117.408 74.5879C117.017 74.5879 117.017 75.1872 117.408 75.1872Z" fill="#2D2D2D"/>
<path d="M25.8431 73.1899C19.2276 73.1899 12.6122 73.1899 5.99668 73.1899C5.60577 73.1899 5.60577 73.7892 5.99668 73.7892C12.6122 73.7892 19.2276 73.7892 25.8431 73.7892C26.224 73.7892 26.224 73.1899 25.8431 73.1899Z" fill="#2D2D2D"/>
<path d="M93.2211 80.0612C102.363 80.0612 111.504 80.0612 120.645 80.0612C123.251 80.0612 125.847 80.0612 128.454 80.0612C128.844 80.0612 128.844 79.4619 128.454 79.4619C119.312 79.4619 110.171 79.4619 101.029 79.4619C98.4233 79.4619 95.8272 79.4619 93.2211 79.4619C92.8402 79.4619 92.8302 80.0612 93.2211 80.0612Z" fill="#2D2D2D"/>
<path d="M114.861 75.3474C85.6931 74.7681 56.5248 74.1888 27.3566 73.6096C22.1344 73.5097 18.4859 68.426 20.0696 63.4722L38.0817 7.00276C39.1041 3.79677 42.0911 1.59952 45.469 1.57954C72.4621 1.38978 99.4552 1.19003 126.448 1.00026C131.38 0.960315 135.119 5.44471 134.166 10.2687L122.67 69.0552C121.958 72.7706 118.66 75.4273 114.861 75.3474Z" fill="#FF6871" stroke="#2D2D2D" stroke-width="1.35981" stroke-miterlimit="10"/>
<path d="M114.3 74.8583C85.1321 74.309 55.9639 73.7696 26.7956 73.2203C21.5734 73.1204 17.9249 68.3264 19.5086 63.6523L37.5207 10.3489C38.5431 7.32263 41.5301 5.25522 44.908 5.22525C71.9011 5.04548 98.8943 4.85572 125.887 4.67594C130.819 4.64598 134.558 8.8707 133.605 13.425L122.109 68.9257C121.397 72.4213 118.099 74.9282 114.3 74.8583Z" fill="white" stroke="#2D2D2D" stroke-width="1.35981" stroke-miterlimit="10"/>
<path d="M121.778 70.4133C120.815 72.5207 118.961 74.1087 116.726 74.728C116.535 74.7779 116.616 75.0675 116.806 75.0176C119.111 74.3784 121.046 72.7304 122.038 70.5632C122.108 70.3934 121.858 70.2336 121.778 70.4133Z" fill="#2D2D2D"/>
<path d="M46.2411 3.78687C45.9404 3.7569 45.8301 3.4373 45.9103 3.17763C46.0206 2.84804 46.3413 2.77813 46.642 2.92794C46.8525 3.0378 46.9628 3.29748 46.8725 3.52719C46.7723 3.77688 46.4816 3.85678 46.2411 3.76689C46.0606 3.69698 45.9805 3.98661 46.1609 4.05653C46.5518 4.20634 47.0329 4.00659 47.1732 3.5971C47.3136 3.15765 47.0329 2.72819 46.6119 2.59835C46.1408 2.45853 45.7299 2.67825 45.6096 3.16764C45.5094 3.61708 45.79 4.03655 46.2411 4.08649C46.4315 4.10647 46.4315 3.80684 46.2411 3.78687Z" fill="#2D2D2D"/>
<path d="M45.8901 3.54692C46.0104 3.85653 46.4514 3.9564 46.712 3.76664C46.8824 3.6368 46.9626 3.38712 46.8824 3.16739C46.7922 2.92769 46.5316 2.78787 46.3011 2.82782C45.9803 2.88774 45.7698 3.25728 45.8901 3.54692Z" fill="white"/>
<path d="M49.629 3.69703C49.3283 3.66707 49.218 3.34746 49.2982 3.08779C49.4085 2.7582 49.7292 2.68829 50.0299 2.8381C50.2404 2.94796 50.3507 3.20764 50.2605 3.43735C50.1602 3.68704 49.8695 3.76694 49.629 3.67705C49.4486 3.60714 49.3684 3.89678 49.5488 3.96669C49.9397 4.1165 50.4208 3.91675 50.5612 3.50726C50.7015 3.06781 50.4208 2.63835 49.9999 2.50851C49.5288 2.36868 49.1178 2.58841 48.9975 3.0778C48.8973 3.52724 49.1779 3.94672 49.629 3.99665C49.8194 4.01663 49.8194 3.717 49.629 3.69703Z" fill="#2D2D2D"/>
<path d="M49.278 3.45684C49.3983 3.76646 49.8394 3.86633 50.1 3.67657C50.2704 3.54673 50.3506 3.29704 50.2704 3.07731C50.1802 2.83761 49.9195 2.69778 49.689 2.73773C49.3683 2.79766 49.1578 3.1672 49.278 3.45684Z" stroke="#2D2D2D" stroke-width="1.35981" stroke-miterlimit="10"/>
<path d="M46.0405 2.92763C46.1809 3.23724 46.3412 3.53686 46.5317 3.8265C46.6319 3.9863 46.8925 3.83649 46.7923 3.67669C46.6119 3.38705 46.4515 3.08743 46.3011 2.77781C46.221 2.60803 45.9604 2.75784 46.0405 2.92763Z" fill="#2D2D2D"/>
<path d="M46.0706 3.82707C46.2109 3.70722 46.3412 3.57738 46.4816 3.45753C46.6018 3.34767 46.7221 3.21783 46.8725 3.13793C47.0429 3.04804 46.8925 2.78837 46.7221 2.87826C46.5718 2.95816 46.4515 3.08799 46.3212 3.20784C46.1708 3.34767 46.0105 3.48749 45.8601 3.62732C45.7198 3.74717 45.9303 3.9569 46.0706 3.82707Z" fill="#2D2D2D"/>
<path d="M83.2976 10.568C82.4055 13.4244 81.5034 16.2908 80.6113 19.1473C80.06 20.925 81.3731 22.7228 83.2374 22.7528C95.6765 22.9026 108.106 23.0424 120.545 23.1922C121.908 23.2122 123.081 22.2334 123.321 20.8951C123.852 17.8589 124.394 14.8227 124.925 11.7865C125.226 10.0886 123.913 8.53052 122.179 8.53052C110.1 8.56048 98.022 8.59044 85.9538 8.6204C84.741 8.6204 83.6584 9.40942 83.2976 10.568Z" fill="white" stroke="#2D2D2D" stroke-width="1.35981" stroke-miterlimit="10"/>
<path d="M35.5659 50.3884C33.8319 55.3522 32.0978 60.316 30.3638 65.2798C29.2913 68.3559 31.8372 71.492 35.4457 71.5319C59.522 71.7816 83.6083 72.0413 107.685 72.291C110.331 72.321 112.606 70.6331 113.057 68.306C114.1 63.0425 115.132 57.7691 116.174 52.5057C116.756 49.5494 114.21 46.8528 110.852 46.8528C87.4674 46.9027 64.0826 46.9527 40.6979 47.0026C38.3424 47.0126 36.2676 48.3809 35.5659 50.3884Z" fill="white" stroke="#2D2D2D" stroke-width="1.35981" stroke-miterlimit="10"/>
<path d="M87.0664 27.6764C85.4527 32.4904 83.8389 37.3044 82.2251 42.1184C82.165 42.2981 82.4556 42.378 82.5158 42.1983C84.1296 37.3843 85.7433 32.5703 87.3571 27.7563C87.4173 27.5665 87.1266 27.4866 87.0664 27.6764Z" fill="#F3F3F3"/>
<path d="M87.257 27.7071C91.4468 27.4873 95.6566 27.1478 99.8565 27.1478C104.036 27.1478 108.206 27.5073 112.366 27.8669C112.556 27.8868 112.556 27.5872 112.366 27.5672C108.206 27.2077 104.036 26.8581 99.8565 26.8481C95.6566 26.8481 91.4468 27.1877 87.257 27.4074C87.0666 27.4174 87.0565 27.7171 87.257 27.7071Z" fill="#F3F3F3"/>
<path d="M112.316 27.8565C111.193 32.6305 110.06 37.3945 108.938 42.1686C108.898 42.3583 109.188 42.4382 109.228 42.2485C110.351 37.4744 111.484 32.7104 112.606 27.9364C112.646 27.7566 112.356 27.6767 112.316 27.8565Z" fill="#F3F3F3"/>
<path d="M82.4056 42.6383C89.2817 42.2688 96.1678 42.1789 103.054 42.3887C105.018 42.4486 106.973 42.5285 108.938 42.6383C109.128 42.6483 109.128 42.3487 108.938 42.3387C102.062 41.9592 95.1755 41.8793 88.2894 42.089C86.3248 42.149 84.3702 42.2289 82.4056 42.3387C82.2152 42.3487 82.2051 42.6483 82.4056 42.6383Z" fill="#F3F3F3"/>
<path d="M95.7568 42.1292C100.047 39.902 104.948 39.5724 109.689 39.2828C109.88 39.2728 109.88 38.9732 109.689 38.9832C104.898 39.2828 99.9466 39.6224 95.6065 41.8696C95.4261 41.9594 95.5764 42.2191 95.7568 42.1292Z" fill="#F3F3F3"/>
<path d="M102.603 32.6208C103.074 34.9079 103.314 37.235 103.324 39.5721C103.324 39.7618 103.625 39.7618 103.625 39.5721C103.605 37.205 103.365 34.858 102.893 32.5409C102.853 32.3511 102.563 32.431 102.603 32.6208Z" fill="#F3F3F3"/>
<path d="M102.493 32.571C101.881 33.4599 101.28 34.3587 100.668 35.2476C100.758 35.2776 100.859 35.2976 100.949 35.3275C100.899 34.4287 101.129 33.5897 101.641 32.8506C101.751 32.6908 101.49 32.541 101.38 32.7008C100.839 33.4798 100.588 34.3887 100.638 35.3275C100.648 35.4773 100.829 35.5273 100.919 35.4074C101.53 34.5185 102.132 33.6197 102.743 32.7308C102.863 32.561 102.603 32.4112 102.493 32.571Z" fill="#F3F3F3"/>
<path d="M101.48 32.4911C101.139 32.3413 100.799 32.2713 100.428 32.2913C100.207 32.3013 99.3151 32.571 99.4454 32.2414C99.4955 32.1115 99.7762 31.9417 99.8864 31.8519C100.097 31.6821 100.317 31.5223 100.548 31.3924C101.059 31.1028 101.631 30.963 102.212 31.0529C102.402 31.0828 102.483 30.7932 102.292 30.7632C101.129 30.5834 99.9165 31.2127 99.1647 32.0816C98.9643 32.3113 98.9943 32.6309 99.3251 32.7308C99.5055 32.7807 99.706 32.7108 99.8764 32.6708C100.368 32.561 100.849 32.521 101.33 32.7308C101.5 32.8306 101.651 32.571 101.48 32.4911Z" fill="#F3F3F3"/>
<path d="M102.483 30.743C102.864 29.8441 103.615 29.1849 104.547 28.9053C104.497 28.8254 104.447 28.7355 104.397 28.6556C104.056 29.095 103.856 29.5744 103.786 30.1237C103.766 30.3135 104.066 30.3135 104.086 30.1237C104.147 29.6543 104.327 29.2349 104.608 28.8653C104.688 28.7555 104.618 28.5657 104.457 28.6156C103.415 28.9252 102.603 29.6643 102.182 30.6631C102.122 30.8428 102.412 30.9227 102.483 30.743Z" fill="#F3F3F3"/>
<path d="M104.006 30.3031C104.788 29.8537 105.71 29.8437 106.502 30.2732C106.502 30.1833 106.502 30.1034 106.502 30.0135C105.871 30.3131 105.269 30.6727 104.698 31.0722C104.537 31.182 104.688 31.4417 104.848 31.3318C105.419 30.9323 106.021 30.5728 106.652 30.2732C106.753 30.2232 106.743 30.0634 106.652 30.0135C105.76 29.5241 104.728 29.5341 103.856 30.0435C103.685 30.1433 103.836 30.403 104.006 30.3031Z" fill="#F3F3F3"/>
<path d="M104.587 31.3528C105.239 31.7124 105.871 32.3016 105.69 33.1206C105.78 33.1106 105.871 33.1007 105.961 33.0807C105.54 32.4115 104.818 32.032 104.026 32.062C103.836 32.0719 103.836 32.3716 104.026 32.3616C104.718 32.3316 105.339 32.6512 105.7 33.2305C105.76 33.3304 105.951 33.3304 105.971 33.1905C106.171 32.2417 105.51 31.5126 104.728 31.0832C104.567 31.0033 104.417 31.2629 104.587 31.3528Z" fill="#F3F3F3"/>
<path d="M103.766 32.311C104.227 34.708 104.397 37.1349 104.267 39.5719C104.257 39.7617 104.557 39.7617 104.567 39.5719C104.698 37.115 104.527 34.648 104.056 32.2311C104.016 32.0413 103.725 32.1212 103.766 32.311Z" fill="#F3F3F3"/>
<path d="M103.435 37.0149C103.765 37.0549 104.076 36.9949 104.377 36.8651C104.557 36.7852 104.397 36.5255 104.227 36.6054C103.976 36.7253 103.705 36.7552 103.435 36.7153C103.244 36.6853 103.244 36.985 103.435 37.0149Z" fill="#F3F3F3"/>
<path d="M83.7087 38.553C85.3525 38.6529 87.0164 38.6829 88.6502 38.8726C89.4521 38.9625 90.2239 39.2022 91.0158 39.322C91.7876 39.4319 92.5393 39.322 93.3111 39.1822C96.689 38.593 100.087 38.9126 103.465 39.2721C103.655 39.2921 103.655 38.9925 103.465 38.9725C100.197 38.6229 96.8795 38.2834 93.6118 38.8227C92.6897 38.9725 91.8176 39.1522 90.8855 38.9925C90.1337 38.8626 89.412 38.6629 88.6603 38.573C87.0264 38.3832 85.3625 38.3533 83.7187 38.2534C83.5182 38.2334 83.5182 38.533 83.7087 38.553Z" fill="#F3F3F3"/>
<path d="M103.084 34.9476C103.124 35.1174 103.294 35.1573 103.455 35.1274C103.766 35.0774 104.086 34.9676 104.387 34.8777C104.577 34.8277 104.497 34.5381 104.307 34.588C104.126 34.638 103.946 34.6879 103.766 34.7279C103.685 34.7478 103.595 34.7678 103.515 34.7978C103.475 34.8078 103.435 34.8178 103.395 34.8277C103.325 34.8178 103.325 34.8277 103.375 34.8577C103.335 34.6779 103.044 34.7578 103.084 34.9476Z" fill="#F3F3F3"/>
<path d="M90.3843 31.1323C89.3919 30.8127 90.685 29.1148 91.3766 29.8739C91.6272 30.1436 91.6171 30.613 91.3866 30.8926C91.126 31.2122 90.6749 31.2622 90.3241 31.0624C90.1537 30.9625 90.0034 31.2222 90.1738 31.3221C90.685 31.6117 91.3766 31.5019 91.6973 30.9925C91.988 30.5231 91.9078 29.794 91.3966 29.5044C90.284 28.8851 88.9509 30.9925 90.3141 31.432C90.4945 31.4819 90.5747 31.1923 90.3843 31.1323Z" fill="#F3F3F3"/>
<path d="M113.558 28.7261C116.796 28.8959 120.003 29.2754 123.191 29.8747C123.381 29.9146 123.462 29.625 123.271 29.585C120.064 28.9758 116.826 28.5863 113.558 28.4165C113.368 28.4165 113.368 28.7161 113.558 28.7261Z" fill="#F3F3F3"/>
<path d="M113.508 29.594C116.596 29.9236 119.693 30.2732 122.77 30.6427C122.96 30.6627 122.96 30.3631 122.77 30.3431C119.683 29.9736 116.596 29.624 113.508 29.2944C113.318 29.2744 113.318 29.5741 113.508 29.594Z" fill="#F3F3F3"/>
<path d="M113.408 30.493C115.272 30.8026 117.147 31.0024 119.031 31.0623C119.222 31.0723 119.222 30.7726 119.031 30.7627C117.177 30.6927 115.322 30.513 113.488 30.2033C113.298 30.1734 113.218 30.463 113.408 30.493Z" fill="#F3F3F3"/>
<path d="M112.285 35.8768C114.821 36.2363 117.367 36.536 119.913 36.7757C120.104 36.7956 120.104 36.496 119.913 36.476C117.387 36.2363 114.872 35.9367 112.366 35.5871C112.175 35.5572 112.095 35.8468 112.285 35.8768Z" fill="#F3F3F3"/>
<path d="M112.095 36.7353C114.11 37.0849 116.124 37.3745 118.149 37.6142C118.34 37.6342 118.34 37.3346 118.149 37.3146C116.144 37.0849 114.16 36.7952 112.175 36.4457C111.985 36.4057 111.905 36.6954 112.095 36.7353Z" fill="#F3F3F3"/>
<path d="M111.885 38.0041C114.411 38.5035 116.956 38.8431 119.522 39.0029C119.713 39.0129 119.713 38.7132 119.522 38.7032C116.987 38.5335 114.461 38.2039 111.965 37.7145C111.774 37.6745 111.694 37.9642 111.885 38.0041Z" fill="#F3F3F3"/>
<path d="M39.9063 50.8575C44.5171 51.0872 49.148 50.8475 53.7587 50.7776C58.3695 50.7077 62.9703 50.6877 67.5811 50.6977C76.8327 50.7177 86.0743 50.8875 95.326 51.0972C100.538 51.2171 105.74 51.3569 110.953 51.4867C111.143 51.4967 111.143 51.1971 110.953 51.1871C101.711 50.9474 92.4593 50.6977 83.2076 50.5479C73.956 50.3981 64.7144 50.3282 55.4627 50.448C50.2806 50.5079 45.0784 50.8176 39.9063 50.5479C39.7059 50.5479 39.7059 50.8475 39.9063 50.8575Z" fill="#F3F3F3"/>
<path d="M39.7256 15.6822C40.327 15.7721 40.748 15.3626 41.9408 14.4837C43.7349 13.1553 44.1158 13.1154 44.3865 13.1354C44.5168 13.1454 44.7573 13.1853 45.89 14.0342C47.5439 15.2727 47.6441 15.6522 48.1854 15.6822C49.1677 15.7221 49.308 14.4837 50.4807 14.3738C51.5432 14.2739 51.874 15.2427 53.1871 15.1928C54.1994 15.1628 54.7908 14.5436 54.881 14.6734C54.9913 14.8432 54.039 16.1516 52.6658 16.3613C51.6535 16.5111 51.433 15.9219 50.4507 16.0617C49.0875 16.2615 48.8269 17.4999 47.8245 17.41C47.2331 17.3501 47.1529 16.9106 46.1305 16.2115C45.5893 15.842 44.6471 15.2028 43.6147 15.1229C41.7202 14.9831 40.7379 16.8108 39.5953 16.2814C39.044 16.0317 38.7333 15.3526 38.8034 15.2727C38.8535 15.1928 39.2044 15.6023 39.7256 15.6822Z" fill="#0071BC"/>
<path d="M86.6853 10.558C86.0739 13.3245 85.3221 16.0611 84.4401 18.7577C84.3799 18.9375 84.6706 19.0174 84.7308 18.8376C85.6128 16.141 86.3646 13.4044 86.976 10.6379C87.0161 10.4481 86.7254 10.3682 86.6853 10.558Z" fill="#F3F3F3"/>
<path d="M84.6208 18.9877C85.6532 19.1075 86.6856 19.0576 87.7281 19.0376C88.8106 19.0077 89.8931 18.9877 90.9857 18.9577C93.1508 18.9078 95.3258 18.8479 97.4909 18.7979C97.6814 18.7979 97.6814 18.4983 97.4909 18.4983C95.3258 18.5482 93.1508 18.6082 90.9857 18.6581C89.9332 18.6881 88.8808 18.708 87.8283 18.738C86.7558 18.768 85.6933 18.8179 84.6208 18.698C84.4304 18.6681 84.4304 18.9677 84.6208 18.9877Z" fill="#F3F3F3"/>
<path d="M88.3496 13.3443C87.9687 15.1221 87.6479 16.9099 87.3773 18.7076C87.3472 18.8974 87.6379 18.9773 87.668 18.7875C87.9386 16.9898 88.2594 15.202 88.6403 13.4242C88.6804 13.2345 88.3897 13.1546 88.3496 13.3443Z" fill="#F3F3F3"/>
<path d="M88.5799 13.5049C89.1112 13.5349 89.6324 13.5849 90.1536 13.6847C90.1235 13.6248 90.0834 13.5649 90.0534 13.5049C89.5823 15.1928 89.1813 16.9007 88.8506 18.6186C88.8105 18.8083 89.1011 18.8882 89.1412 18.6985C89.472 16.9806 89.8729 15.2727 90.344 13.5849C90.3641 13.5149 90.324 13.4151 90.2438 13.4051C89.6925 13.3052 89.1513 13.2453 88.5899 13.2153C88.3795 13.1953 88.3795 13.495 88.5799 13.5049Z" fill="#F3F3F3"/>
<path d="M91.1659 15.0427C91.0155 16.2612 90.8151 17.4597 90.5645 18.6582C90.5244 18.848 90.8151 18.9279 90.8552 18.7381C91.1158 17.5196 91.3162 16.2812 91.4666 15.0427C91.4866 14.8529 91.1859 14.8529 91.1659 15.0427Z" fill="#F3F3F3"/>
<path d="M91.3165 15.0627C91.8778 15.0428 92.4491 15.0528 93.0104 15.0927C92.9603 15.0328 92.9102 14.9629 92.8701 14.9029C92.6496 16.0915 92.4591 17.28 92.2987 18.4785C92.2687 18.6682 92.5694 18.6682 92.5994 18.4785C92.7598 17.3099 92.9402 16.1514 93.1608 14.9828C93.1808 14.883 93.1207 14.8031 93.0204 14.7931C92.4591 14.7531 91.8878 14.7531 91.3265 14.7631C91.116 14.7631 91.116 15.0627 91.3165 15.0627Z" fill="#F3F3F3"/>
<path d="M94.8246 12.3258C94.4738 14.4132 94.0629 16.5006 93.6118 18.568C93.5717 18.7578 93.8624 18.8377 93.9025 18.6479C94.3535 16.5805 94.7645 14.4931 95.1153 12.4057C95.1554 12.2159 94.8647 12.136 94.8246 12.3258Z" fill="#F3F3F3"/>
<path d="M95.0652 12.1762C95.0652 12.1961 95.0652 12.2061 95.0652 12.2261C95.0652 12.306 95.1353 12.3759 95.2155 12.3759C95.2957 12.3759 95.3658 12.306 95.3658 12.2261C95.3658 12.2061 95.3658 12.1961 95.3658 12.1762C95.3658 12.0963 95.2957 12.0264 95.2155 12.0264C95.1353 12.0364 95.0652 12.0963 95.0652 12.1762Z" fill="#F3F3F3"/>
<path d="M95.1353 12.4259C95.5964 12.5257 96.0374 12.5757 96.5085 12.5657C96.4584 12.5058 96.4083 12.4358 96.3682 12.3759C95.9773 14.4633 95.6165 16.5607 95.2757 18.6581C95.2456 18.8478 95.5363 18.9277 95.5663 18.738C95.9071 16.6406 96.268 14.5432 96.6589 12.4558C96.6789 12.3659 96.6188 12.2661 96.5186 12.2661C96.0775 12.2661 95.6566 12.2261 95.2255 12.1362C95.0251 12.0963 94.9449 12.3759 95.1353 12.4259Z" fill="#F3F3F3"/>
<path d="M99.716 11.7469C103.124 11.707 106.522 11.727 109.93 11.8169C110.12 11.8169 110.12 11.5172 109.93 11.5172C106.522 11.4373 103.124 11.4173 99.716 11.4473C99.5256 11.4473 99.5256 11.7469 99.716 11.7469Z" fill="#F3F3F3"/>
<path d="M99.9466 12.9652C102.062 13.105 104.187 13.075 106.302 12.8753C106.492 12.8553 106.492 12.5557 106.302 12.5757C104.187 12.7754 102.062 12.8054 99.9466 12.6655C99.7562 12.6556 99.7562 12.9552 99.9466 12.9652Z" fill="#F3F3F3"/>
<path d="M99.4853 14.4733C102.392 14.4234 105.299 14.4733 108.206 14.6231C108.396 14.6331 108.396 14.3335 108.206 14.3235C105.299 14.1637 102.392 14.1138 99.4853 14.1737C99.2949 14.1737 99.2949 14.4733 99.4853 14.4733Z" fill="#F3F3F3"/>
<path d="M115.082 19.108C114.059 18.9781 113.568 17.9594 113.278 17.0905C113.007 16.2715 112.907 15.4126 113.217 14.5936C113.759 13.1554 115.232 11.9968 116.716 11.6673C118.259 11.3177 119.823 12.1367 120.565 13.505C121.346 14.9432 121.076 16.7909 120.164 18.0992C119.041 19.7072 116.676 19.887 115.032 19.0381C114.861 18.9482 114.711 19.2078 114.881 19.2977C116.455 20.1067 118.63 20.0668 119.963 18.7984C121.266 17.5599 121.687 15.3527 121.006 13.7147C120.354 12.1666 118.71 11.088 117.006 11.3077C115.322 11.5274 113.628 12.8058 112.987 14.3739C112.556 15.4425 112.736 16.5612 113.157 17.5999C113.518 18.4788 114.089 19.2778 115.092 19.4076C115.272 19.4276 115.272 19.1279 115.082 19.108Z" fill="#F3F3F3"/>
<path d="M115.503 12.0668C115.974 13.2753 116.405 14.5037 116.816 15.7422C116.876 15.922 117.167 15.8421 117.107 15.6623C116.696 14.4238 116.265 13.2054 115.794 11.9869C115.724 11.8171 115.433 11.887 115.503 12.0668Z" fill="#F3F3F3"/>
<path d="M117.127 15.9116C118.31 15.0926 119.482 14.2437 120.625 13.3748C120.775 13.2549 120.625 12.9952 120.475 13.1151C119.322 13.984 118.159 14.8329 116.976 15.6519C116.816 15.7618 116.966 16.0215 117.127 15.9116Z" fill="#F3F3F3"/>
<path d="M117.077 15.9216C118.42 15.8617 119.743 15.642 121.036 15.2624C121.216 15.2125 121.146 14.9229 120.956 14.9728C119.693 15.3423 118.4 15.5621 117.077 15.612C116.886 15.632 116.886 15.9316 117.077 15.9216Z" fill="#F3F3F3"/>
<path d="M116.836 15.8221C116.034 16.8508 115.242 17.8795 114.441 18.9082C114.32 19.058 114.581 19.2078 114.701 19.058C115.503 18.0293 116.295 17.0006 117.097 15.9719C117.217 15.8221 116.956 15.6723 116.836 15.8221Z" fill="#F3F3F3"/>
<path d="M40.1068 50.3485C39.8562 50.2785 40.0065 49.949 40.1168 49.8391C40.2371 49.7192 40.5378 49.7292 40.6982 49.7292C40.9888 49.7192 41.2795 49.7292 41.5802 49.7192C42.1816 49.7192 42.783 49.7093 43.3844 49.7093C44.5873 49.6993 45.7901 49.6993 46.9929 49.6893C49.3684 49.6793 51.734 49.6593 54.1095 49.6493C58.8907 49.6194 63.6619 49.5994 68.443 49.5894C77.9653 49.5594 87.4776 49.5594 96.9998 49.6094C99.6059 49.6294 102.222 49.6294 104.828 49.7392C106.121 49.7892 107.414 49.8691 108.707 49.9889C109.349 50.0488 110 50.1187 110.642 50.1986C110.852 50.2286 111.063 50.2486 111.273 50.2885C111.444 50.3185 111.544 50.2885 111.604 50.4483C111.764 50.8279 111.253 51.2174 110.942 51.2373C110.752 51.2473 110.752 51.547 110.942 51.537C111.614 51.487 112.085 50.8079 111.835 50.1687C111.814 50.1187 111.784 50.0688 111.734 50.0688C106.953 49.3597 102.112 49.3597 97.2905 49.3297C92.3089 49.2998 87.3372 49.2898 82.3556 49.2798C72.3722 49.2798 62.3789 49.3197 52.3955 49.3697C49.5889 49.3897 46.7824 49.3996 43.9758 49.4196C43.3043 49.4196 42.6427 49.4296 41.9711 49.4296C41.4098 49.4296 40.7483 49.3397 40.207 49.4995C39.6858 49.6493 39.345 50.4683 40.0266 50.6581C40.207 50.688 40.2872 50.3984 40.1068 50.3485Z" fill="#F3F3F3"/>
<path d="M39.3649 52.1066C38.3626 55.712 37.1397 59.2576 35.6863 62.7133C35.6161 62.8931 35.9068 62.973 35.977 62.7932C37.4304 59.3375 38.6532 55.7919 39.6556 52.1865C39.7057 51.9967 39.415 51.9168 39.3649 52.1066Z" fill="#F3F3F3"/>
<path d="M39.4651 52.406C42.0411 52.7156 44.6973 52.5059 47.2834 52.4759C47.4738 52.4759 47.4738 52.1763 47.2834 52.1763C44.6973 52.2163 42.0411 52.416 39.4651 52.1064C39.2646 52.0864 39.2747 52.3861 39.4651 52.406Z" fill="#F3F3F3"/>
<path d="M46.9627 52.4557C46.1107 55.5918 45.2086 58.7079 44.2564 61.824C44.1962 62.0137 44.4869 62.0836 44.5471 61.9039C45.4993 58.7977 46.4014 55.6716 47.2534 52.5356C47.3035 52.3458 47.0128 52.2659 46.9627 52.4557Z" fill="#F3F3F3"/>
<path d="M35.8267 62.8629C37.24 62.8529 38.6433 62.8429 40.0566 62.8329C40.7482 62.8329 41.4298 62.823 42.1214 62.823C42.7329 62.823 43.3443 62.8429 43.9457 62.7031C44.1362 62.6631 44.056 62.3735 43.8655 62.4134C43.234 62.5633 42.5725 62.5233 41.921 62.5233C41.2294 62.5233 40.5478 62.5333 39.8561 62.5333C38.513 62.5433 37.1699 62.5533 35.8267 62.5533C35.6363 62.5633 35.6363 62.8629 35.8267 62.8629Z" fill="#F3F3F3"/>
<path d="M48.5364 52.5257C55.3122 52.3359 62.0981 52.3459 68.874 52.5656C69.0644 52.5756 69.0644 52.276 68.874 52.266C62.0981 52.0462 55.3122 52.0263 48.5364 52.226C48.346 52.226 48.346 52.5257 48.5364 52.5257Z" fill="#F3F3F3"/>
<path d="M48.2556 54.2839C52.1848 54.2739 56.114 54.2739 60.0532 54.264C60.2436 54.264 60.2436 53.9644 60.0532 53.9644C56.124 53.9743 52.1948 53.9743 48.2556 53.9843C48.0551 53.9843 48.0551 54.2839 48.2556 54.2839Z" fill="#F3F3F3"/>
<path d="M44.2163 62.5132C44.3967 62.2136 44.527 61.894 44.5971 61.5644C44.6372 61.3746 44.3466 61.2947 44.3065 61.4845C44.2363 61.7941 44.1261 62.0937 43.9557 62.3634C43.8554 62.5232 44.116 62.673 44.2163 62.5132Z" fill="#F3F3F3"/>
<path d="M81.8242 53.4051C81.0223 57.2204 80.2505 61.0356 79.4988 64.8509C79.4587 65.0406 79.7493 65.1205 79.7894 64.9308C80.5412 61.1155 81.313 57.3003 82.1149 53.485C82.155 53.2953 81.8643 53.2154 81.8242 53.4051Z" fill="#F3F3F3"/>
<path d="M79.559 65.1004C83.6787 65.2103 87.7883 65.3201 91.9079 65.43C95.9775 65.5399 100.047 65.7097 104.116 65.7097C104.307 65.7097 104.307 65.41 104.116 65.41C100.047 65.41 95.9775 65.2303 91.9079 65.1304C87.7883 65.0205 83.6787 64.9106 79.559 64.8008C79.3686 64.7908 79.3686 65.0904 79.559 65.1004Z" fill="#F3F3F3"/>
<path d="M79.8596 65.0702C81.1025 63.7319 82.3454 62.3836 83.5883 61.0452C83.5182 61.0452 83.448 61.0452 83.3778 61.0452C83.7888 61.5546 84.2699 61.9741 84.8312 62.3136C85.0016 62.4135 85.152 62.1538 84.9816 62.054C84.4403 61.7344 83.9793 61.3249 83.5883 60.8355C83.5382 60.7755 83.428 60.7855 83.3778 60.8355C82.1349 62.1738 80.892 63.5221 79.6491 64.8605C79.5188 65.0003 79.7293 65.21 79.8596 65.0702Z" fill="#F3F3F3"/>
<path d="M84.9115 62.2142C86.2447 60.6462 87.5878 59.0881 88.9209 57.5201C89.0412 57.3703 88.8307 57.1605 88.7104 57.3103C87.3773 58.8784 86.0342 60.4364 84.7011 62.0045C84.5707 62.1443 84.7812 62.354 84.9115 62.2142Z" fill="#F3F3F3"/>
<path d="M88.7102 57.3701C88.9808 57.7296 89.2515 58.0792 89.5221 58.4387C89.5822 58.5186 89.6724 58.5386 89.7627 58.4687C90.9855 57.4699 92.1783 56.4213 93.331 55.3426C93.4713 55.2128 93.2608 55.0031 93.1205 55.1329C91.9678 56.2115 90.775 57.2602 89.5522 58.2589C89.6323 58.2689 89.7125 58.2789 89.7927 58.2889C89.5221 57.9294 89.2515 57.5798 88.9808 57.2203C88.8505 57.0605 88.5899 57.2103 88.7102 57.3701Z" fill="#F3F3F3"/>
<path d="M93.0104 55.4723C94.6843 56.7907 96.2981 58.179 97.8617 59.6172C98.0021 59.747 98.2126 59.5373 98.0722 59.4074C96.5086 57.9592 94.8948 56.5809 93.2209 55.2626C93.0705 55.1427 92.86 55.3525 93.0104 55.4723Z" fill="#F3F3F3"/>
<path d="M98.042 59.5765C100.107 58.2682 101.59 56.2507 103.605 54.8724C103.765 54.7625 103.615 54.5029 103.455 54.6127C101.44 55.991 99.9565 58.0085 97.8916 59.3169C97.7313 59.4167 97.8816 59.6764 98.042 59.5765Z" fill="#F3F3F3"/>
<path d="M101.851 55.183C102.482 55.0732 103.094 54.9134 103.705 54.7236C103.645 54.6637 103.585 54.6037 103.525 54.5438C103.415 55.0432 103.314 55.5426 103.204 56.042C103.164 56.2317 103.455 56.3116 103.495 56.1219C103.605 55.6225 103.705 55.1231 103.816 54.6237C103.836 54.5138 103.745 54.404 103.635 54.4439C103.024 54.6337 102.412 54.7935 101.781 54.9034C101.59 54.9333 101.671 55.223 101.851 55.183Z" fill="#F3F3F3"/>
<path d="M85.5129 54.1941C85.1621 57.7596 84.8013 61.3252 84.4504 64.8908C84.4304 65.0805 84.7311 65.0805 84.7511 64.8908C85.102 61.3252 85.4628 57.7596 85.8136 54.1941C85.8237 54.0043 85.523 54.0043 85.5129 54.1941Z" fill="#F3F3F3"/>
<path d="M89.9631 53.5645C89.5922 57.3898 89.2915 61.225 89.071 65.0602C89.061 65.2499 89.3617 65.2499 89.3717 65.0602C89.5922 61.225 89.8929 57.3898 90.2638 53.5645C90.2738 53.3648 89.9731 53.3748 89.9631 53.5645Z" fill="#F3F3F3"/>
<path d="M98.3628 53.4548C97.9719 57.4498 97.6913 61.4448 97.5209 65.4598C97.5108 65.6496 97.8115 65.6496 97.8216 65.4598C97.992 61.4548 98.2726 57.4498 98.6635 53.4548C98.6836 53.2651 98.3829 53.2651 98.3628 53.4548Z" fill="#F3F3F3"/>
<path d="M93.3411 51.997C93.0805 56.4514 92.8199 60.8959 92.5593 65.3503C92.5493 65.5401 92.85 65.5401 92.86 65.3503C93.1206 60.8959 93.3812 56.4514 93.6418 51.997C93.6518 51.7972 93.3511 51.7972 93.3411 51.997Z" fill="#F3F3F3"/>
<path d="M62.098 54.2337C64.1327 54.4135 66.1675 53.9641 68.2023 54.2138C68.3927 54.2337 68.3927 53.9341 68.2023 53.9142C66.1675 53.6645 64.1327 54.1139 62.098 53.9341C61.8975 53.9242 61.9075 54.2238 62.098 54.2337Z" fill="#F3F3F3"/>
<path d="M30.5344 36.2165C34.0827 35.6971 37.5007 37.1153 40.6481 38.5935C43.5649 39.9718 46.4516 41.38 49.6892 41.7895C56.6054 42.6484 63.2309 39.752 69.7361 37.9243C73.555 36.8557 77.5143 36.1066 81.4936 36.606C81.6841 36.626 81.6841 36.3263 81.4936 36.3064C74.4471 35.4175 67.7916 38.3738 61.156 40.2015C57.7882 41.1303 54.3 41.8295 50.7918 41.5997C47.2736 41.37 44.1763 39.9518 41.039 38.4637C37.7412 36.8956 34.1929 35.3875 30.4542 35.9368C30.2638 35.9568 30.354 36.2464 30.5344 36.2165Z" fill="#F3F3F3"/>
<path d="M49.5188 38.943C58.3495 39.4124 66.5286 35.4873 74.9784 33.5997C77.4141 33.0604 79.8899 32.6809 82.3957 32.6309C82.5862 32.6309 82.5862 32.3313 82.3957 32.3313C73.5751 32.531 65.5062 36.576 56.9262 38.1241C54.4804 38.5635 52.0046 38.7832 49.5188 38.6534C49.3284 38.6234 49.3284 38.9231 49.5188 38.943Z" fill="#F3F3F3"/>
<path d="M32.5288 28.7254C36.5281 29.0051 40.1766 30.7828 43.8653 32.1711C47.614 33.5793 51.5232 34.3684 55.5326 34.2685C57.8279 34.2086 60.1133 33.879 62.3385 33.2997C62.5289 33.2497 62.4487 32.9601 62.2583 33.0101C58.2188 34.0687 53.9789 34.2685 49.8593 33.5594C45.9301 32.8802 42.3918 31.1723 38.6731 29.844C36.6885 29.1349 34.6437 28.5756 32.5288 28.4358C32.3283 28.4158 32.3383 28.7154 32.5288 28.7254Z" fill="#F3F3F3"/>
<path d="M59.7225 9.51939C59.6423 10.0188 59.512 10.5082 59.3316 10.9876C59.2915 11.0874 59.3917 11.1773 59.4719 11.1773C65.8569 11.457 72.2418 11.5169 78.6268 11.3471C78.8172 11.3371 78.8172 11.0375 78.6268 11.0475C72.2418 11.2173 65.8468 11.1673 59.4719 10.8777C59.522 10.9376 59.5721 11.0075 59.6122 11.0675C59.7927 10.5881 59.923 10.1087 60.0032 9.59929C60.0433 9.40953 59.7526 9.32963 59.7225 9.51939Z" fill="#F3F3F3"/>
<path d="M59.923 9.62971C66.348 9.70961 72.763 9.78951 79.188 9.86941C79.3785 9.86941 79.3785 9.56978 79.188 9.56978C72.763 9.48988 66.348 9.40998 59.923 9.33008C59.7325 9.32009 59.7325 9.61972 59.923 9.62971Z" fill="#F3F3F3"/>
<path d="M79.1579 9.68931C78.9574 10.1587 78.8071 10.6481 78.7269 11.1575C78.6968 11.3473 78.9875 11.4272 79.0176 11.2374C79.0977 10.758 79.2281 10.2886 79.4185 9.83912C79.4887 9.65935 79.228 9.50953 79.1579 9.68931Z" fill="#F3F3F3"/>
<path d="M8.15205 67.0083C6.43804 67.4178 4.71401 67.8273 3 68.2368C3.89209 73.8497 4.59373 76.6462 5.08488 76.6063C5.50586 76.5763 5.7765 74.479 5.89678 70.3142C6.84901 69.9846 7.80123 69.665 8.75346 69.3354C8.55299 68.5664 8.35252 67.7873 8.15205 67.0083Z" fill="#2D2D2D" stroke="#2D2D2D" stroke-width="4.07942" stroke-miterlimit="10"/>
<path d="M19.8695 46.0842C19.649 46.7433 19.3182 47.792 18.9774 49.1204C18.2657 51.8869 18.2357 53.0654 17.514 56.581C16.652 60.7658 16.2109 61.4849 15.9303 61.8944C14.6573 63.7121 12.8932 64.5411 11.9309 64.9905C9.60547 66.0791 7.4404 66.179 6.1574 66.1291C6.10729 66.7183 6.05717 68.1565 6.91918 69.6047C7.35019 70.3238 7.86139 70.8132 8.2523 71.1228C9.54533 71.1927 11.7705 71.1428 14.2764 70.174C15.3489 69.7645 18.0853 68.6659 20.1702 65.9393C21.7739 63.8419 22.215 61.7945 22.7061 59.4974C23.6583 55.0729 22.4756 54.4038 23.6583 50.6484C24.37 48.3713 25.1919 47.2527 24.6106 46.4137C23.919 45.385 21.7439 45.6547 19.8695 46.0842Z" fill="#FF6871"/>
<path opacity="0.09" d="M19.9899 46.0945C19.8897 47.1631 19.7393 48.6413 19.5288 50.3991C19.3384 51.9472 19.1279 53.6251 18.7871 55.5826C18.1957 58.9384 17.895 60.6163 17.2535 62.0146C16.6922 63.2331 15.6097 65.4902 13.1238 67.1981C10.5378 68.9659 7.86154 69.1357 6.66875 69.1457C6.52842 68.8261 6.38809 68.4166 6.29788 67.9472C6.16758 67.268 6.16758 66.6788 6.20767 66.2393C6.97948 66.2493 8.04196 66.1894 9.27485 65.9197C11.4199 65.4403 12.8532 64.5714 13.2241 64.3417C14.1362 63.7724 15.0884 63.1831 15.8703 62.0246C16.4015 61.2455 16.622 60.5364 16.9829 59.0583C17.5141 56.881 17.7848 55.8024 18.0053 54.2043C18.2458 52.3567 18.7771 49.66 19.9899 46.0945Z" fill="#2D2D2D"/>
<path opacity="0.12" d="M6.22754 66.2091C6.18745 66.6486 6.1674 67.2478 6.30773 67.937C6.40796 68.4464 6.55832 68.8658 6.69864 69.1954C8.07186 68.9058 12.392 67.8072 15.0682 63.8721C15.8601 62.7035 16.3312 61.5549 16.6219 60.5662C16.3512 61.1954 15.8801 62.1142 15.0482 63.0031C13.6148 64.5312 11.971 65.0905 10.7882 65.49C9.78587 65.8396 8.22221 66.2391 6.22754 66.2091Z" fill="#2D2D2D"/>
<path d="M19.1377 76.177C18.3559 78.3243 17.5741 80.4716 16.7922 82.6289C22.2851 83.2681 25.0816 83.358 25.1819 82.8786C25.262 82.5091 23.6382 81.78 20.3305 80.7113C20.7816 79.383 21.2426 78.0547 21.6937 76.7263C20.8417 76.5465 19.9897 76.3568 19.1377 76.177Z" fill="#2D2D2D" stroke="#2D2D2D" stroke-width="4.07942" stroke-miterlimit="10"/>
<path d="M27.2868 47.2228C27.397 48.7009 27.4972 50.7184 27.4772 53.0955C27.4271 59.6573 26.535 64.5811 26.2744 65.9194C25.6028 69.4251 24.4401 73.9494 22.3452 79.0031C21.6837 79.033 20.0498 79.0131 18.416 77.9943C17.4137 77.3651 16.7922 76.6061 16.4514 76.0967C17.0628 74.9382 17.8146 73.4101 18.5463 71.5424C19.8393 68.2465 20.4007 65.6198 20.7615 63.892C21.5734 60.0068 21.9844 58.0692 21.6536 55.9918C21.3328 54.0243 20.8116 53.6847 20.8918 52.0068C20.9118 51.6373 21.1624 47.3327 23.8688 46.5137C25.262 46.1042 26.6453 46.8233 27.2868 47.2228Z" fill="#FF6871"/>
<path opacity="0.14" d="M24.9099 46.4733C25.802 46.8528 25.5113 49.3497 25.4312 50.0089C24.3586 59.4171 25.8321 54.3534 24.5391 60.1562C22.7649 68.1262 20.3693 75.7867 19.5273 78.4234C19.3269 78.4234 19.0462 78.4034 18.7455 78.2636C18.4649 78.1337 18.4047 77.9639 18.0639 77.6943C17.693 77.4046 17.5627 77.4246 17.2821 77.2249C17.0315 77.0451 16.7208 76.7255 16.5003 76.1362C17.0215 75.1175 17.6429 73.8091 18.2744 72.2311C19.0763 70.2336 19.5173 68.7155 19.9984 67.0775C19.9984 67.0775 21.502 61.914 21.7726 57.9689C21.8227 57.1799 21.7826 56.6406 21.7225 56.2511C21.6323 55.6318 21.502 55.3222 21.3015 54.5831C21.2514 54.3934 20.9707 53.3147 20.8805 52.5057C20.6299 50.1187 21.9029 48.2011 22.5043 47.512C22.7148 47.2623 22.9955 46.9926 23.3964 46.7829C23.5467 46.713 24.4188 46.2635 24.9099 46.4733Z" fill="#2D2D2D"/>
<path opacity="0.11" d="M22.6159 62.7237C22.4455 65.1507 21.8742 65.8698 20.2103 71.8323C19.4786 74.4491 18.9373 76.5964 18.5865 77.9747C18.3059 77.8648 17.955 77.685 17.5942 77.4054C17.0529 76.9859 16.7322 76.5265 16.5518 76.2069C17.0529 75.1781 17.7245 73.71 18.376 71.8823C18.6366 71.1632 18.807 70.6138 18.9674 70.1145C21.2527 62.8136 21.6136 60.5964 21.7238 59.0783C21.8141 57.7899 21.7439 56.7512 21.7238 56.4216C21.6236 55.0433 21.383 54.0945 21.383 54.0945C21.383 54.0945 22.9467 58.0096 22.6159 62.7237Z" fill="#2D2D2D"/>
<path d="M9.94693 42.7593C9.96698 42.7294 10.0672 42.7393 10.2677 42.7593C10.6085 42.7893 10.7187 42.8392 10.9393 42.8592C11.1497 42.8692 11.4304 42.8892 11.5106 42.7593C11.6208 42.5895 11.27 42.2599 10.7789 41.5508C9.93691 40.3523 9.977 39.9328 10.0472 39.7431C10.0672 39.6931 10.1274 39.5034 10.2577 39.4734C10.4281 39.4335 10.6185 39.6632 10.7989 39.8929C11.0996 40.2624 11.2199 40.5521 11.25 40.5321C11.3101 40.5121 10.9593 39.7631 11.0395 38.8442C11.0595 38.5945 11.0996 38.235 11.28 38.185C11.4404 38.1351 11.681 38.3348 11.8714 38.6544C11.8714 38.6145 11.9215 38.0652 12.112 38.0252C12.2623 37.9953 12.4327 38.2849 12.6031 38.5646C12.7435 38.7943 12.8337 39.004 12.8838 39.1438C12.8738 38.8642 13.0241 38.6345 13.2346 38.5646C13.4652 38.4946 13.6757 38.6744 13.6857 38.6844C13.9162 38.8941 13.8962 39.2637 13.8962 39.3935C13.8761 39.9628 13.9363 40.9216 14.0666 42.3199C14.3272 42.22 14.7081 42.0402 15.1291 41.7606C15.5601 41.4709 16.0111 41.0914 17.1237 39.7631C17.5547 39.2437 17.7752 38.984 18.1561 38.4747C19.5293 36.647 20.3412 35.5683 21.1632 34.0402C21.4238 33.5508 21.8448 32.7219 22.7168 31.9828C22.9975 31.7431 23.5487 31.2937 23.8695 31.4634C24.1 31.5833 24.1201 31.9628 24.1101 32.5221C24.1 33.7406 24.09 34.3398 23.8795 35.1688C23.3984 37.0864 22.5063 38.4247 22.3058 38.7244C21.514 39.8829 20.7221 40.5521 19.6997 41.421C18.6373 42.3199 17.7552 43.0589 16.3619 43.6182C15.4498 43.9778 14.7281 44.1076 13.9663 44.2475C12.7034 44.4672 12.0519 44.577 11.4003 44.2974C10.4681 43.8979 9.83667 42.9091 9.94693 42.7593Z" fill="white"/>
<path d="M23.8289 31.3228C22.7464 31.4726 22.1049 32.4814 21.5235 33.3103C20.7818 34.369 20.0801 35.4576 19.3584 36.5263C18.6367 37.605 17.885 38.6636 17.033 39.6524C16.622 40.1218 16.201 40.5812 15.74 41.0007C15.2288 41.4801 14.6675 42.0294 13.9959 42.2591C13.8155 42.3191 13.8957 42.6087 14.0761 42.5488C15.1285 42.1992 16.0206 41.2005 16.7523 40.4114C17.5943 39.5026 18.3461 38.5138 19.0577 37.4951C19.7794 36.4564 20.471 35.3877 21.1727 34.339C21.8342 33.3603 22.6161 31.7922 23.9091 31.6124C24.0995 31.5825 24.0193 31.3028 23.8289 31.3228Z" fill="#2D2D2D"/>
<path d="M14.3471 44.4067C15.6301 44.2869 16.7126 43.6976 17.7851 43.0185C18.8476 42.3493 19.86 41.5803 20.7621 40.7014C21.9248 39.5828 22.9071 38.2544 23.5586 36.7663C24.2001 35.2782 24.5008 33.6502 24.2903 32.0322C24.2703 31.8425 23.9696 31.8425 23.9896 32.0322C24.3304 34.7388 23.2479 37.4255 21.5038 39.4829C20.722 40.4017 19.8099 41.2107 18.8476 41.9298C17.5245 42.9086 16.021 43.9573 14.3371 44.1171C14.1566 44.1271 14.1566 44.4267 14.3471 44.4067Z" fill="#2D2D2D"/>
<path d="M14.3466 44.0966C13.7552 44.0866 13.1839 44.2265 12.6025 44.2664C11.931 44.3163 11.3697 44.1166 10.8184 43.7471C10.5978 43.5972 10.3573 43.4175 10.217 43.1778C9.92628 42.6684 10.5277 42.968 10.7382 43.028C11.079 43.1278 11.3897 43.0879 11.6503 42.8582C11.8007 42.7283 11.5801 42.5186 11.4398 42.6484C10.9888 43.0479 10.1468 42.1591 9.84609 42.6684C9.61555 43.0579 10.1468 43.6172 10.4074 43.827C10.8585 44.1965 11.4097 44.4961 12.0011 44.566C12.783 44.6559 13.5648 44.3862 14.3466 44.4062C14.5371 44.3962 14.5371 44.0966 14.3466 44.0966Z" fill="#2D2D2D"/>
<path d="M11.6702 42.6885C11.4697 42.0193 11.0187 41.5 10.6578 40.9107C10.6077 40.8308 10.0063 39.7422 10.2068 39.6523C10.5576 39.4925 11.0588 40.5013 11.1289 40.701C11.1891 40.8808 11.4798 40.8009 11.4196 40.6211C11.2592 40.1617 10.9786 39.7322 10.5576 39.4526C10.3371 39.3028 10.0163 39.1929 9.91611 39.5325C9.7858 39.9919 10.1266 40.6111 10.3571 40.9906C10.718 41.5799 11.1891 42.0893 11.3895 42.7684C11.4397 42.9582 11.7303 42.8783 11.6702 42.6885Z" fill="#2D2D2D"/>
<path d="M11.5098 40.6109C11.4196 40.2413 11.2993 39.8618 11.2391 39.4823C11.199 39.2525 11.189 39.0228 11.2091 38.7931C11.2391 38.4935 11.2993 38.1938 11.5398 38.5434C11.9107 39.0927 12.031 39.8418 12.2114 40.461C12.2615 40.6508 12.5522 40.5709 12.5021 40.3811C12.3517 39.8518 12.2315 39.2925 12.0109 38.7831C11.9007 38.5334 11.6501 37.9741 11.2993 37.9741C10.9384 37.9741 10.9284 38.5334 10.9084 38.7831C10.8583 39.4323 11.0587 40.0516 11.2191 40.6708C11.2592 40.8805 11.5499 40.8006 11.5098 40.6109Z" fill="#2D2D2D"/>
<path d="M12.2116 39.1928C12.1615 38.983 12.0612 38.6335 12.1414 38.4237C12.2918 38.0342 12.5123 38.7334 12.5724 38.8832C12.7929 39.4125 12.9132 39.9718 12.9433 40.5411C12.9533 40.7309 13.254 40.7309 13.244 40.5411C13.2039 39.9918 13.1137 39.4624 12.9232 38.9531C12.813 38.6435 12.6526 38.0942 12.3519 37.9244C11.6703 37.5349 11.8607 39.033 11.9109 39.2827C11.961 39.4624 12.2517 39.3825 12.2116 39.1928Z" fill="#2D2D2D"/>
<path d="M13.2241 39.5421C13.2141 39.4422 13.1439 38.9029 13.2642 38.803C13.595 38.5134 13.6852 39.0427 13.7253 39.2025C13.7954 39.5421 13.7854 39.9216 13.8155 40.2712C13.8656 40.9903 13.9157 41.6994 13.9658 42.4185C13.9759 42.6082 14.2766 42.6082 14.2665 42.4185C14.2164 41.6994 14.1663 40.9903 14.1162 40.2712C14.0861 39.7718 14.1262 39.1126 13.8656 38.6632C13.7253 38.4235 13.4847 38.2037 13.2041 38.3835C12.8432 38.6232 12.8933 39.2624 12.9434 39.622C12.9635 39.8117 13.2542 39.7318 13.2241 39.5421Z" fill="#2D2D2D"/>
<path opacity="0.09" d="M23.9392 31.6724C23.889 31.6724 23.9291 32.4614 23.6184 33.56C23.3778 34.399 22.9869 35.198 21.724 36.8559C20.5613 38.384 19.7193 39.4926 18.2559 40.791C16.6521 42.2192 15.8502 42.9283 14.7477 43.198C12.3621 43.7872 10.1669 42.4189 9.95644 42.8784C9.84618 43.128 10.4476 43.6274 10.6781 43.7972C10.9688 44.0069 11.5301 44.3365 12.8532 44.3565C14.2665 44.3765 15.3491 44.0369 15.5896 43.957C18.1356 43.1181 19.8095 41.4601 20.7016 40.5413C21.8843 39.3428 22.8466 38.364 23.4781 36.726C24.4904 34.1792 24.0394 31.6724 23.9392 31.6724Z" fill="#2D2D2D"/>
<path opacity="0.13" d="M23.7386 35.5273C23.6684 35.4873 23.2474 36.1864 22.646 37.0154C22.646 37.0154 21.2027 39.0129 19.3383 40.7108C18.3159 41.6396 16.4515 43.0778 13.4946 44.2064C14.106 44.2464 15.0182 44.2264 16.0306 43.8868C16.3513 43.777 17.1532 43.4773 19.0877 41.7994C20.6313 40.4611 21.4933 39.722 22.3553 38.4236C23.2875 37.0354 23.8388 35.5772 23.7386 35.5273Z" fill="#2D2D2D"/>
<path d="M24.9922 30.2253C24.3607 30.445 23.9698 30.8345 23.5588 31.244C22.4162 32.3926 22.0052 33.6909 21.6845 34.7396C20.7222 37.8957 20.2311 39.4637 20.0105 40.842C19.7499 42.41 19.5294 44.4874 19.5996 46.9444C20.1208 47.3039 20.8625 47.7633 21.8047 48.1629C22.8873 48.6223 23.8595 49.0318 25.1125 48.9319C25.6136 48.8919 26.4757 48.7521 27.4379 48.1629C27.488 47.5137 27.5983 46.5049 27.889 45.3164C28.3901 43.209 28.9314 42.5998 29.8135 39.9831C30.5051 37.9157 30.8459 36.857 30.7958 35.5886C30.7557 34.6997 30.6755 32.9619 29.3624 31.6036C28.3601 30.5748 26.5659 29.676 24.9922 30.2253Z" fill="white"/>
<path d="M24.5405 30.2947C23.3376 31.0138 22.6059 32.2123 22.0045 33.4407C21.363 34.7691 20.8819 36.1673 20.5311 37.6055C19.7994 40.6018 19.6189 43.7079 19.4987 46.7841C19.4886 46.9738 19.7893 46.9738 19.7994 46.7841C19.9096 43.8477 20.08 40.9014 20.7416 38.025C21.0623 36.6168 21.5034 35.2285 22.1148 33.9102C22.7062 32.6218 23.4379 31.2934 24.6908 30.5544C24.8512 30.4545 24.7008 30.1948 24.5405 30.2947Z" fill="#2D2D2D"/>
<path d="M28.4195 30.9438C29.5521 31.8227 30.3339 33.0612 30.5845 34.4694C30.8652 36.0774 30.4743 37.7154 29.933 39.2235C29.4118 40.6817 28.7302 42.0699 28.2591 43.5481C27.788 44.9963 27.4973 46.5044 27.377 48.0225C27.357 48.2123 27.6577 48.2123 27.6777 48.0225C27.8181 46.3146 28.1789 44.6268 28.7603 43.0188C29.3116 41.4807 30.0433 40.0125 30.5144 38.4445C30.9354 37.0362 31.1559 35.5081 30.8051 34.05C30.4943 32.7316 29.7125 31.5631 28.64 30.7441C28.4796 30.6143 28.2691 30.824 28.4195 30.9438Z" fill="#2D2D2D"/>
<path d="M19.5588 46.9833C20.7717 48.0619 22.2752 48.771 23.889 49.0007C25.172 49.1805 26.8259 49.1905 27.6678 48.0419C27.7781 47.8821 27.5175 47.7323 27.4072 47.8921C26.5652 49.0307 24.7009 48.8809 23.478 48.6312C22.0948 48.3516 20.8218 47.7024 19.7693 46.7735C19.629 46.6437 19.4185 46.8534 19.5588 46.9833Z" fill="#2D2D2D"/>
<path opacity="0.11" d="M26.2845 30.2644C26.6253 30.8537 25.3624 31.9423 24.3901 33.6402C23.7687 34.7188 23.5281 35.6577 23.057 37.5353C21.9544 41.9298 22.1649 46.9236 22.2551 48.3718C21.3931 47.9124 20.5411 47.4629 19.6791 47.0035C19.7192 46.0247 19.7994 44.6265 19.9598 42.9486C20.2204 40.2919 20.3707 38.8437 20.8819 36.966C21.333 35.338 21.774 33.8199 22.9768 32.192C23.7586 31.1333 24.5906 30.4042 25.192 29.9448C25.5729 29.9248 26.1041 29.9548 26.2845 30.2644Z" fill="#2D2D2D"/>
<path opacity="0.15" d="M22.4555 33.2808C22.5858 33.3208 22.0545 35.4082 21.2025 40.0224C20.6412 43.0486 20.5109 44.1373 20.962 45.4856C21.5433 47.2134 22.7161 48.2621 22.4956 48.4918C22.3552 48.6316 21.7538 48.4319 19.679 46.8838C19.6289 44.7065 19.7692 41.7003 20.6412 38.2546C21.3328 35.528 22.3151 33.2309 22.4555 33.2808Z" fill="#2D2D2D"/>
<path d="M31.8074 26.1496C32.2785 26.5791 32.2183 27.418 32.1281 28.6365C32.068 29.4855 32.0379 29.9149 31.7472 30.3244C31.1458 31.1733 29.7826 31.5629 28.7101 31.0835C28.5798 31.0235 27.9183 30.7139 27.5574 29.9649C27.0362 28.8862 27.5775 27.8076 27.6877 27.6078C28.5297 26.0398 30.9654 25.3706 31.8074 26.1496Z" fill="#0071BC"/>
<path d="M31.8276 20.626C32.2085 20.7059 32.439 21.2353 32.9001 22.3039C33.291 23.2128 33.4714 23.9519 33.5516 24.3014C33.6819 24.9107 33.7521 25.43 33.7822 25.8195C33.5115 25.8994 33.2409 25.9694 32.9703 26.0493C32.9101 26.3988 32.7798 26.9182 32.5192 27.4974C32.1584 28.2964 31.8577 28.9856 31.156 29.3052C30.3441 29.6747 29.4721 29.3451 29.1814 29.2053C29.0711 29.485 28.9108 29.8046 28.7003 30.1441C28.5499 30.3838 28.3896 30.5836 28.2492 30.7534C27.3371 30.9831 26.9161 30.7434 26.7557 30.6235C25.9138 30.0043 25.9839 28.0068 27.277 25.7496C27.2068 25.6398 27.0965 25.48 26.9562 25.3002C26.6655 24.9406 26.5653 24.9307 26.435 24.7209C26.3949 24.661 26.0842 24.1316 26.3348 23.6522C26.455 23.4225 26.7056 23.2228 26.9863 23.2028C27.3271 23.1728 27.4373 23.4425 27.728 23.5224C28.2292 23.6722 28.7805 23.1329 30.1537 21.8445C31.3064 20.7659 31.5369 20.5661 31.8276 20.626Z" fill="white"/>
<path d="M32.7899 22.264C33.261 23.4425 33.5617 24.671 33.672 25.9394C33.682 26.0793 33.9126 26.0793 33.9025 25.9394C33.7923 24.651 33.4916 23.4026 33.0105 22.2041C32.9603 22.0643 32.7398 22.1242 32.7899 22.264Z" fill="#2D2D2D"/>
<path d="M33.7319 25.8401C33.4613 25.8701 33.1907 25.9101 32.92 25.94C32.7797 25.96 32.7797 26.1797 32.92 26.1697C33.1907 26.1398 33.4613 26.0998 33.7319 26.0699C33.8723 26.0399 33.8723 25.8202 33.7319 25.8401Z" fill="#2D2D2D"/>
<path d="M32.86 26.0395C32.6795 27.0383 32.2686 28.0071 31.597 28.7761C30.7951 29.715 29.5221 29.2256 28.5398 28.8261C28.4095 28.7661 28.3494 28.9859 28.4797 29.0458C29.4019 29.4253 30.725 29.9447 31.5569 29.1457C32.3788 28.3666 32.87 27.1981 33.0705 26.0995C33.1005 25.9596 32.89 25.8997 32.86 26.0395Z" fill="#2D2D2D"/>
<path d="M29.031 29.2557C28.8205 29.7351 28.5599 30.1846 28.2592 30.6141C28.179 30.7339 28.3694 30.8438 28.4496 30.7239C28.7503 30.2944 29.0109 29.835 29.2214 29.3656C29.2816 29.2358 29.0911 29.1259 29.031 29.2557Z" fill="#2D2D2D"/>
<path d="M28.4596 29.0756C28.61 29.2354 28.7804 29.3753 28.9708 29.4751C29.1011 29.545 29.2114 29.3553 29.0811 29.2854C28.9007 29.1855 28.7503 29.0656 28.61 28.9158C28.5198 28.806 28.3594 28.9658 28.4596 29.0756Z" fill="#2D2D2D"/>
<path d="M31.948 23.8923C31.8879 23.7724 31.8979 23.6226 31.9781 23.5228C31.918 23.5028 31.8478 23.4928 31.7877 23.4728C31.8177 23.6426 31.8177 23.8024 31.8077 23.9722C31.8478 23.9322 31.8879 23.8923 31.918 23.8623C31.928 23.8823 31.938 23.9023 31.9581 23.9223C31.9881 23.7824 31.7676 23.7225 31.7375 23.8623C31.7075 23.9822 31.7877 24.092 31.918 24.092C31.9881 24.092 32.0282 24.0421 32.0282 23.9822C32.0483 23.7924 32.0382 23.6126 32.0082 23.4229C31.9982 23.343 31.8678 23.313 31.8177 23.3729C31.6674 23.5627 31.6373 23.8024 31.7576 24.0121C31.8177 24.132 32.0182 24.0221 31.948 23.8923Z" fill="#2D2D2D"/>
<path d="M31.3464 22.5437C31.4868 22.1942 31.8877 22.0943 32.1984 22.2941C32.3187 22.374 32.429 22.1742 32.3087 22.1043C31.8677 21.8147 31.3264 22.0044 31.1259 22.4838C31.0758 22.6236 31.2963 22.6836 31.3464 22.5437Z" fill="#2D2D2D"/>
<path d="M30.8853 24.3415C30.8452 24.3415 30.7951 24.3415 30.755 24.3415C30.745 24.3215 30.745 24.3016 30.735 24.2816C30.755 24.2117 30.7851 24.1917 30.8452 24.2117C30.8552 24.2217 30.8753 24.2416 30.8853 24.2516C30.8853 24.2516 30.8853 24.2516 30.8853 24.2416C30.8552 24.1917 30.7851 24.1717 30.735 24.2017C30.6849 24.2316 30.6648 24.3016 30.6949 24.3515C30.735 24.4014 30.7951 24.4314 30.8552 24.4214C30.9154 24.4014 30.9655 24.3515 30.9655 24.2816C30.9655 24.1318 30.755 24.0918 30.6849 24.2117C30.6548 24.2616 30.6748 24.3315 30.7249 24.3615C30.7851 24.4114 30.8552 24.3914 30.8853 24.3415Z" fill="#2D2D2D"/>
<path d="M31.3863 24.8009C31.3663 24.8209 31.3362 24.8508 31.3061 24.8708C31.3061 24.8708 31.3061 24.8708 31.3162 24.8708C31.2961 24.8708 31.2761 24.8708 31.256 24.8708C31.256 24.8708 31.246 24.8708 31.246 24.8608C31.236 24.8508 31.2159 24.8309 31.2059 24.8209V24.8309C31.2059 24.8009 31.1959 24.771 31.1959 24.741C31.2059 24.731 31.2159 24.721 31.2259 24.711C31.1758 24.751 31.1558 24.8109 31.1859 24.8608C31.2159 24.9108 31.2961 24.9407 31.3362 24.9008C31.4064 24.8508 31.4565 24.751 31.3763 24.6811C31.3462 24.6511 31.2961 24.6311 31.246 24.6511C31.1959 24.6611 31.1758 24.6911 31.1558 24.741C31.1357 24.8009 31.1758 24.8608 31.236 24.8808C31.3061 24.9008 31.3663 24.8608 31.3863 24.8009Z" fill="#2D2D2D"/>
<path d="M30.5946 24.8108C30.5845 24.8108 30.5845 24.8108 30.5745 24.8108C30.4342 24.8108 30.4242 25.0405 30.5745 25.0405C30.5845 25.0405 30.5845 25.0405 30.5946 25.0405C30.7449 25.0405 30.7449 24.8108 30.5946 24.8108Z" fill="#2D2D2D"/>
<path d="M31.4967 26.2895C31.6571 26.7789 31.9077 27.2183 32.4088 27.4081C32.5391 27.458 32.5993 27.2483 32.469 27.1884C32.058 27.0286 31.8475 26.6191 31.7172 26.2196C31.6671 26.0897 31.4566 26.1496 31.4967 26.2895Z" fill="#2D2D2D"/>
<path d="M31.4667 26.4093C31.5268 26.3194 31.6271 26.2695 31.7474 26.2495C31.8075 26.2395 31.8376 26.1596 31.8276 26.1097C31.8075 26.0397 31.7474 26.0198 31.6872 26.0298C31.5168 26.0497 31.3765 26.1496 31.2763 26.2894C31.1861 26.4093 31.3765 26.5291 31.4667 26.4093Z" fill="#2D2D2D"/>
<path d="M27.2068 25.1109C26.5954 25.3306 26.2646 24.3918 26.3749 23.9523C26.435 23.7226 26.5954 23.453 26.836 23.383C27.1667 23.2832 27.4674 23.5428 27.6779 23.7426C27.7782 23.8425 27.9385 23.6827 27.8383 23.5828C27.5677 23.3231 27.2369 23.0734 26.836 23.1533C26.4751 23.2232 26.2546 23.5628 26.1644 23.8924C26.004 24.5016 26.4952 25.6003 27.267 25.3306C27.4073 25.2807 27.3472 25.0609 27.2068 25.1109Z" fill="#2D2D2D"/>
<path d="M31.0355 20.846C30.9152 20.9859 30.7348 21.2156 30.5243 21.5152C29.7625 22.6238 29.8326 23.0732 29.3014 23.3928C28.8904 23.6425 28.259 23.7224 27.7778 23.5227C27.417 23.3729 27.3168 23.1432 27.006 23.1532C26.6652 23.1631 26.3445 23.4428 26.2142 23.7724C26.0538 24.1619 26.2142 24.5214 26.3244 24.7512C26.4247 24.9609 26.565 25.2705 26.8657 25.3404C27.0561 25.3804 27.2265 25.3105 27.3168 25.2605C27.3067 25.3704 27.2867 25.5402 27.2767 25.7499C27.2265 26.6188 27.3268 27.2181 27.3669 27.6076C27.4671 28.5464 27.5573 29.2955 27.2767 30.0046C26.8457 31.0633 25.7731 31.5327 25.3822 31.7025C23.7183 32.4316 22.1747 31.8223 21.9642 31.7324C21.6335 31.5926 20.0498 30.9434 19.6588 29.4653C19.4183 28.5764 19.6889 27.6775 19.7992 27.298C19.8493 27.1382 19.9796 26.7387 20.2402 26.2792C20.8115 25.2605 21.6335 24.6413 22.2048 24.2917C22.3952 23.6026 22.716 22.6138 23.2773 21.4852C23.9088 20.2068 24.2596 19.4977 25.0615 18.8385C26.3345 17.7899 27.7778 17.66 28.2489 17.6301C28.4895 17.6101 29.6723 17.5402 31.0755 18.1095C32.0679 18.509 33.2306 18.9884 33.7117 20.1769C34.263 21.5651 33.4812 22.9434 33.3308 23.2031C33.2907 23.0333 33.2105 22.7736 33.0401 22.5239C32.7896 22.1544 32.5089 22.0046 32.0879 21.7149C31.8173 21.5052 31.4564 21.2355 31.0355 20.846Z" fill="#0071BC"/>
<path d="M26.9059 30.7144C27.3369 30.9641 27.8381 31.024 28.3192 30.8642C28.4997 30.8042 28.4195 30.5146 28.2391 30.5745C27.8381 30.7044 27.4272 30.6644 27.0563 30.4547C26.8859 30.3648 26.7355 30.6245 26.9059 30.7144Z" fill="#2D2D2D"/>
<path opacity="0.14" d="M26.4348 24.7413C26.515 24.971 26.7255 25.1308 26.9561 25.1608C27.2066 25.1908 27.4572 25.0709 27.5875 24.8512C27.5374 25.1808 27.4873 25.8499 27.798 26.589C28.219 27.6077 29.0409 28.0871 29.4018 28.2969C30.2838 28.7963 31.1258 28.8262 31.5368 28.8162C31.4466 28.976 31.2461 29.2357 30.9053 29.4055C30.0934 29.805 29.2414 29.2657 29.1913 29.2357C28.9708 29.7151 28.7402 30.0647 28.5598 30.3144C28.3092 30.654 28.209 30.7339 28.1388 30.7638C27.6577 31.0435 27.0262 30.7538 26.8458 30.6639C26.6453 30.8537 26.3546 31.0934 25.9738 31.3231C25.653 31.5129 24.791 32.0123 23.5982 32.0222C23.5982 32.0222 21.9944 32.0222 20.7014 30.9436C20.2003 30.5241 19.9898 30.1546 19.9296 30.0347C19.8795 29.9348 19.669 29.5353 19.6189 28.8862C19.5086 27.6377 20.0499 26.579 20.3506 26.0996C20.8919 25.2407 21.5835 24.7313 22.0245 24.4617C21.9944 24.5715 21.6236 26.1196 22.4455 26.8687C23.4779 27.7975 25.8134 26.9186 26.3246 25.5803C26.4549 25.2507 26.4549 24.9411 26.4348 24.7413Z" fill="#2D2D2D"/>
<path opacity="0.07" d="M27.658 27.5078C27.5778 27.5478 27.7683 28.0671 27.9487 28.4367C28.2394 29.0459 28.6002 29.4953 28.8608 29.765C28.931 29.5852 29.0012 29.4055 29.0713 29.2357C29.3019 29.3355 29.7329 29.4754 30.2741 29.4454C30.635 29.4254 30.9257 29.3355 31.1261 29.2556C29.5825 29.2257 28.8007 28.7563 28.3697 28.3268C28.0189 27.9772 27.7382 27.4679 27.658 27.5078Z" fill="#2D2D2D"/>
<path d="M52.5559 18.2895C52.4156 18.2096 52.3855 18.0198 52.3655 17.89C52.2953 17.4205 52.6462 17.041 52.7063 16.9611C53.0772 16.5516 53.2877 16.7614 53.6385 16.3818C53.8991 16.1022 53.879 15.8725 54.28 15.5029C54.5406 15.2532 54.6308 15.2832 54.6508 15.2932C54.7912 15.3531 54.6709 15.6627 54.8112 16.1421C54.9315 16.5416 55.0819 16.5416 55.132 16.8812C55.142 16.9711 55.2122 17.4205 54.9415 17.6802C54.8212 17.8001 54.6609 17.83 54.3301 17.89C53.9492 17.9599 53.8991 17.9199 53.6385 17.9699C53.007 18.0897 52.7865 18.4193 52.5559 18.2895Z" fill="white"/>
<path d="M52.5259 17.8701C51.0124 19.4282 49.4988 20.9962 47.9853 22.5543C47.7948 22.774 47.7848 23.1036 47.9552 23.3233C48.1457 23.563 48.4865 23.6229 48.7571 23.4531C50.3107 21.6554 51.8544 19.8476 53.408 18.0499C53.1173 17.99 52.8266 17.93 52.5259 17.8701Z" fill="#2D2D2D"/>
<path d="M47.0532 26.3989C47.1034 26.5287 46.943 26.7984 46.0709 27.3776C45.8204 27.3277 45.6099 27.1879 45.5698 27.0081C45.5096 26.7085 45.9406 26.4588 46.1311 26.3689C46.4819 26.2091 46.9831 26.2191 47.0532 26.3989Z" fill="#2D2D2D"/>
<path d="M29.422 30.5138C28.8807 30.6337 27.9285 30.8634 27.4874 31.6424C27.1968 32.1518 27.2569 32.6911 27.277 32.8809C27.3772 33.7298 27.9686 34.4389 28.6401 34.7485C29.4621 35.1181 30.3141 34.8384 30.7451 34.6886C34.4938 33.4002 36.3682 32.761 37.13 32.3815C39.3352 31.2729 41.7909 30.0244 44.5874 27.7073C45.3091 27.1081 45.8805 26.5787 46.2814 26.1992C46.4418 26.2891 46.8026 26.4589 47.2336 26.409C47.5845 26.369 47.815 26.2092 48.1558 25.9695C48.3964 25.7997 48.677 25.6 48.9276 25.2304C49.1682 24.8809 49.2484 24.5713 49.3185 24.3116C49.3887 24.0219 49.529 23.5026 49.3486 23.3927C49.2183 23.3128 49.078 23.5326 48.7271 23.5425C48.6971 23.5425 48.2661 23.5425 48.0756 23.2729C47.8952 23.0232 48.0856 22.7935 47.9253 22.5937C47.7549 22.374 47.3138 22.394 47.0332 22.4739C46.3816 22.6736 46.0709 23.3927 45.8704 23.7723C45.3192 24.8609 44.5273 25.4502 43.0539 26.5588C41.9112 27.4177 40.8888 27.8172 39.5156 28.3665C38.9743 28.5862 37.9419 28.9857 36.5787 29.3153C34.2833 29.8547 32.4691 29.8347 29.422 30.5138Z" fill="white"/>
<path d="M27.7782 31.5431C28.8106 30.5144 30.4344 30.4744 31.7976 30.2847C33.3914 30.065 34.9851 29.8252 36.5487 29.4557C39.3252 28.8165 42.0817 27.7478 44.2568 25.8702C44.8281 25.3708 45.3594 24.8215 45.8004 24.1923C46.2013 23.623 46.9631 21.9451 47.9053 22.7441C48.0557 22.8639 48.2662 22.6542 48.1158 22.5344C47.755 22.2247 47.2738 22.2048 46.8529 22.4145C46.2615 22.7141 45.9908 23.3733 45.64 23.9026C44.7279 25.2809 43.3447 26.3396 41.9213 27.1486C38.9243 28.8465 35.4762 29.4557 32.1084 29.9451C30.5848 30.1648 28.7405 30.1848 27.5778 31.3334C27.4274 31.4632 27.6379 31.6729 27.7782 31.5431Z" fill="#2D2D2D"/>
<path d="M27.5575 31.1835C26.8859 32.3221 27.0162 33.8302 28.1388 34.6392C29.482 35.608 31.3664 34.6891 32.7396 34.2197C35.9772 33.1011 39.0644 31.583 41.9311 29.7053C43.5248 28.6666 45.0384 27.5081 46.4717 26.2596C46.6221 26.1298 46.4016 25.92 46.2612 26.0499C41.7607 29.965 36.2979 33.0611 30.5044 34.6092C29.512 34.8789 28.4796 34.8189 27.8381 33.9201C27.2768 33.151 27.347 32.1323 27.8181 31.3433C27.9183 31.1735 27.6577 31.0237 27.5575 31.1835Z" fill="#2D2D2D"/>
<path d="M49.158 23.1835C49.2081 23.4132 49.2582 23.6629 49.2382 23.9026C49.1981 24.2322 49.0377 24.3421 48.9174 24.6117C48.8673 24.7316 48.8573 24.8514 48.8172 24.9713C48.737 25.2409 48.6267 25.3009 48.4363 25.4607C48.2258 25.6305 48.1055 25.8302 47.9251 26.02C47.6344 26.3296 47.464 26.2297 47.1032 26.1898C46.8426 26.1598 46.5719 26.1198 46.3113 26.0899C46.1209 26.0699 46.1209 26.3695 46.3113 26.3895C46.7423 26.4494 47.474 26.6991 47.875 26.4894C48.0354 26.4095 48.1256 26.2597 48.2258 26.1198C48.3561 25.9401 48.4764 25.7903 48.6769 25.6904C48.7771 25.6404 48.8272 25.6804 48.9174 25.6005C49.0277 25.5106 49.0577 25.3608 49.0878 25.231C49.158 24.9114 49.2582 24.7016 49.3985 24.422C49.609 24.0125 49.5389 23.5531 49.4487 23.1236C49.4086 22.9139 49.1179 22.9938 49.158 23.1835Z" fill="#2D2D2D"/>
<path d="M47.9253 22.6237C47.6947 22.9633 47.8752 23.4527 48.236 23.6125C48.657 23.8023 49.1281 23.5226 49.3386 23.1531C49.4388 22.9833 49.1782 22.8335 49.078 23.0033C48.9477 23.233 48.677 23.4427 48.4064 23.3528C48.1658 23.2829 48.0355 22.9833 48.1859 22.7736C48.2861 22.6138 48.0255 22.4639 47.9253 22.6237Z" fill="#2D2D2D"/>
<path d="M48.1157 22.764C49.6292 21.196 51.1227 19.6079 52.5961 18C52.7264 17.8601 52.516 17.6404 52.3856 17.7902C50.9122 19.3982 49.4187 20.9862 47.9052 22.5543C47.7649 22.6841 47.9753 22.9038 48.1157 22.764Z" fill="#2D2D2D"/>
<path d="M49.3285 23.0837C50.7719 21.4258 52.2052 19.7678 53.6486 18.1099C53.7789 17.9601 53.5584 17.7504 53.4381 17.9002C51.9947 19.5581 50.5614 21.216 49.118 22.874C48.9877 23.0238 49.1982 23.2335 49.3285 23.0837Z" fill="#2D2D2D"/>
<path d="M46.933 26.3591C46.7426 26.5489 46.5521 26.7486 46.3617 26.9384C46.3015 26.9983 46.2113 27.1281 46.1412 27.1681C45.8906 27.2979 45.7603 27.0482 45.6701 26.8884C45.5698 26.7186 45.3092 26.8685 45.4095 27.0382C45.5598 27.2879 45.8104 27.6075 46.1412 27.5077C46.3216 27.4577 46.4519 27.2779 46.5722 27.1481C46.7626 26.9583 46.9531 26.7586 47.1435 26.5688C47.2838 26.429 47.0633 26.2193 46.933 26.3591Z" fill="#2D2D2D"/>
<path d="M53.5684 18.07C54.1698 18.3396 54.9015 18.1798 55.2122 17.5606C55.3626 17.261 55.3726 16.9014 55.2624 16.5918C55.0719 16.0924 54.3803 15.653 54.9917 15.1336C55.1421 15.0038 54.9216 14.7941 54.7812 14.9239C54.4304 15.2235 54.3302 15.683 54.5607 16.0825C54.7812 16.472 55.132 16.6917 55.0218 17.2011C54.9015 17.8003 54.26 18.05 53.7288 17.8103C53.5383 17.7304 53.388 17.9901 53.5684 18.07Z" fill="#2D2D2D"/>
<path d="M52.576 17.7399C52.6361 17.3005 52.7965 17.0108 53.1874 16.7911C53.3879 16.6813 53.5983 16.5914 53.7788 16.4515C54.1496 16.1519 54.2599 15.6026 54.7009 15.3829C54.8713 15.293 54.721 15.0433 54.5506 15.1232C54.3 15.2431 54.1496 15.4328 54.0093 15.6725C53.7888 16.0221 53.5883 16.2518 53.2175 16.4416C52.616 16.7512 52.3655 17.0608 52.2753 17.7399C52.2552 17.9297 52.5559 17.9297 52.576 17.7399Z" fill="#2D2D2D"/>
<path d="M52.5261 18.0298C52.8067 17.9199 53.0974 17.9599 53.338 18.1396C53.4883 18.2595 53.6387 17.9998 53.4883 17.88C53.1876 17.6502 52.7867 17.6003 52.4359 17.7401C52.2655 17.81 52.3457 18.0997 52.5261 18.0298Z" fill="#2D2D2D"/>
<path d="M53.5184 16.6515C53.9093 16.5217 54.3102 16.5117 54.7112 16.6115C54.9016 16.6615 54.9818 16.3718 54.7913 16.3219C54.3403 16.212 53.8792 16.222 53.4382 16.3619C53.2578 16.4218 53.338 16.7114 53.5184 16.6515Z" fill="#0071BC"/>
<path d="M53.3478 16.6513C54.0795 16.3417 54.3 15.4927 54.9816 15.1132C54.9215 15.0333 54.8613 14.9534 54.8012 14.8735C54.28 15.3429 54.741 15.9821 54.8713 16.5015C54.9415 16.4415 55.0217 16.3916 55.0919 16.3317C54.711 16.1719 54.3301 16.102 53.9191 16.1319C53.9592 16.2118 54.0093 16.2817 54.0494 16.3616C54.1897 16.092 54.3601 15.8523 54.5506 15.6126C54.4704 15.5626 54.3802 15.5127 54.3 15.4628C54.2198 15.6725 54.1196 15.9322 54.1597 16.1519C54.1697 16.2118 54.2399 16.2618 54.3 16.2618C54.5406 16.2518 54.6007 15.9222 54.6809 15.7424C54.5907 15.7125 54.4905 15.6925 54.4002 15.6625C54.4203 15.8123 54.4704 15.9921 54.4504 16.1519C54.4704 16.112 54.5005 16.062 54.5205 16.0221C54.4504 16.062 54.1797 16.0321 54.0594 16.062C53.859 16.102 53.6886 16.1719 53.5081 16.2718C53.3778 16.3417 53.438 16.5614 53.5883 16.5514C53.8389 16.5314 54.0895 16.5015 54.3401 16.4815C54.5305 16.4615 54.5305 16.1619 54.3401 16.1819C54.0895 16.2018 53.8389 16.2318 53.5883 16.2518C53.6184 16.3417 53.6385 16.4415 53.6685 16.5314C53.879 16.4216 54.1096 16.3417 54.3501 16.3317C54.4403 16.3217 54.5807 16.3616 54.6609 16.3017C54.8413 16.1719 54.721 15.8623 54.7009 15.6725C54.6809 15.5427 54.4905 15.4428 54.4203 15.5926C54.4103 15.6226 54.2499 15.9621 54.3 15.9621C54.3501 16.0021 54.4002 16.0321 54.4403 16.072C54.4103 15.9222 54.5305 15.6725 54.5807 15.5427C54.6308 15.4028 54.4203 15.283 54.3301 15.3929C54.1196 15.6425 53.9392 15.9122 53.7788 16.2018C53.7287 16.2917 53.7888 16.4415 53.9091 16.4316C54.2699 16.4016 54.6007 16.4515 54.9315 16.5913C55.0518 16.6413 55.1921 16.5614 55.152 16.4216C55.0518 16.0221 54.6107 15.4328 55.0016 15.0832C55.132 14.9634 54.9616 14.7636 54.8212 14.8435C54.1497 15.2231 53.9091 16.072 53.1874 16.3816C53.017 16.4715 53.1774 16.7212 53.3478 16.6513Z" fill="#0071BC"/>
<path d="M54.8114 14.8036C54.3904 15.0633 54.1298 15.4528 53.8191 15.8224C53.6286 16.0521 53.4181 16.1919 53.2077 16.3916C53.1275 16.4615 53.0573 16.5015 53.0573 16.6114C53.0573 16.6313 53.0673 16.6613 53.0974 16.6713C53.7289 16.9409 54.4305 16.2219 55.052 16.7312C55.0921 16.7612 55.1422 16.7612 55.1723 16.7112C55.3527 16.4516 54.9517 16.2019 54.8014 16.0421C54.7513 15.9921 54.651 16.0421 54.6711 16.112C54.7012 16.2119 54.6911 16.2019 54.7613 16.2818C54.8214 16.3617 54.9517 16.2818 54.8916 16.2019C54.8716 16.1519 54.8415 16.112 54.8214 16.0621C54.7813 16.082 54.7412 16.112 54.6911 16.132C54.7613 16.2019 55.1322 16.4915 55.042 16.6214C55.082 16.6114 55.1221 16.6114 55.1622 16.6014C54.9517 16.4316 54.7112 16.3517 54.4305 16.3617C54.2701 16.3717 54.1098 16.4016 53.9494 16.4316C53.8191 16.4616 53.6988 16.4915 53.5685 16.5015C53.4282 16.5215 53.2578 16.6014 53.368 16.4116C53.4282 16.3117 53.6086 16.2218 53.6888 16.1419C53.8091 16.0221 53.9193 15.8923 54.0196 15.7524C54.2802 15.4328 54.5207 15.1132 54.8716 14.8935C54.9718 14.8835 54.8916 14.7537 54.8114 14.8036Z" fill="#0071BC"/>
<path d="M53.2676 16.7215C53.5684 16.7615 53.859 16.6616 54.1597 16.6216C54.4103 16.5917 54.6108 16.6316 54.8413 16.7115C54.9717 16.7615 55.0518 16.7914 55.1922 16.7715C55.2423 16.7615 55.2724 16.7315 55.2623 16.6816C55.2423 16.5517 55.2122 16.4818 55.1421 16.372C55.0919 16.2921 54.9616 16.372 55.0117 16.4519C55.0819 16.5318 55.112 16.6216 55.122 16.7215C55.1421 16.6916 55.1721 16.6616 55.1922 16.6316C54.9115 16.6616 54.6309 16.4618 54.3402 16.4618C53.9994 16.4718 53.6485 16.6316 53.3077 16.5817C53.2075 16.5617 53.1674 16.7015 53.2676 16.7215Z" fill="#0071BC"/>
<path d="M54.6909 15.0636C54.741 14.9936 54.8011 14.9337 54.8813 14.8938C54.9014 14.8838 54.9715 14.8338 54.9916 14.8538C55.0216 14.8738 54.9415 14.9337 54.9214 14.9437C54.8011 15.0436 54.7209 15.1734 54.6608 15.3133C54.6207 15.4031 54.7711 15.4431 54.8011 15.3532C54.8613 15.2134 54.9615 15.1235 55.0718 15.0136C55.1419 14.9537 55.182 14.8638 55.1119 14.7739C54.9615 14.5742 54.6708 14.8338 54.5706 14.9637C54.5205 15.0336 54.6307 15.1435 54.6909 15.0636Z" fill="#0071BC"/>
<path d="M55.0319 14.7339C54.8615 14.8438 54.7412 15.0136 54.6911 15.2133C54.671 15.3032 54.8113 15.3432 54.8314 15.2533C54.8715 15.0935 54.9617 14.9636 55.102 14.8638C55.1922 14.8038 55.1121 14.674 55.0319 14.7339Z" fill="#0071BC"/>
<path d="M27.6778 31.5233C27.9986 30.8941 29.1613 30.6544 29.8028 30.5745C29.9933 30.5446 29.9131 30.2549 29.7226 30.2849C29.0009 30.3848 27.7881 30.6644 27.4172 31.3735C27.337 31.5433 27.5977 31.7031 27.6778 31.5233Z" fill="#2D2D2D"/>
<path opacity="0.13" d="M27.3371 32.9715C28.2392 32.9116 29.5523 32.7918 31.1059 32.4921C35.5563 31.6432 38.7237 29.9953 40.6582 28.9765C42.262 28.1276 44.387 26.8592 46.7224 25.0315C47.7448 24.7019 48.3763 24.2525 48.7772 23.8929C49.0479 23.6532 49.2483 23.4135 49.3486 23.4634C49.5089 23.5533 49.2584 24.3823 48.9176 24.9815C48.6169 25.5209 48.266 25.8305 48.1558 25.9304C47.8751 26.1701 47.7147 26.3398 47.4441 26.4098C46.9429 26.5396 46.4919 26.2699 46.3415 26.1701C45.9707 26.4597 45.4294 26.8892 44.7578 27.3985C42.0515 29.446 40.6883 30.4747 38.8941 31.4534C37.2402 32.3523 35.857 32.8916 33.1607 33.9303C32.9101 34.0302 32.5793 34.1401 31.9178 34.3598C30.1537 34.9491 29.7327 35.019 29.2415 34.9291C29.0411 34.8891 28.5499 34.7993 28.0989 34.4097C27.5075 33.8804 27.3772 33.2013 27.3371 32.9715Z" fill="#2D2D2D"/>
<path opacity="0.19" d="M35.2857 33.0412C35.2657 33.0113 35.4361 32.8714 39.1949 30.4944C44.1465 27.3583 43.7956 27.638 44.3169 27.2585C46.4819 25.6604 47.4442 24.5818 47.9453 24.9014C48.2861 25.1211 48.3463 25.9201 47.9754 26.2697C47.6547 26.5793 46.9831 26.5493 46.3817 26.1099C45.1688 27.1885 43.3646 28.6567 40.9891 30.1449C38.1825 31.8727 35.3559 33.1611 35.2857 33.0412Z" fill="#2D2D2D"/>
</svg>
