<svg width="21" height="42" viewBox="0 0 21 42" fill="none" xmlns="http://www.w3.org/2000/svg">
<path d="M20.9929 21.0329C20.9943 21.7327 20.7503 22.4108 20.3033 22.9496L5.31101 40.9181C4.80206 41.5297 4.0707 41.9143 3.27783 41.9873C2.48496 42.0603 1.69553 41.8158 1.0832 41.3075C0.470862 40.7991 0.0857893 40.0687 0.0126879 39.2768C-0.0604136 38.4849 0.184444 37.6964 0.693397 37.0848L14.1265 21.0329L1.17315 4.98103C0.92408 4.67471 0.738081 4.32224 0.625844 3.94388C0.513607 3.56552 0.477344 3.16875 0.51914 2.77635C0.560936 2.38395 0.679965 2.00367 0.869389 1.65736C1.05881 1.31106 1.3149 1.00556 1.62292 0.758423C1.93122 0.484161 2.29291 0.276451 2.68533 0.148296C3.07775 0.0201415 3.49244 -0.0256845 3.90341 0.0136755C4.31439 0.0530355 4.7128 0.176735 5.07369 0.377033C5.43457 0.577331 5.75015 0.849914 6.00065 1.17769L20.4832 19.1462C20.8595 19.7005 21.039 20.3648 20.9929 21.0329Z" fill="#979797"/>
</svg>
