<svg width="75" height="74" viewBox="0 0 75 74" fill="none" xmlns="http://www.w3.org/2000/svg">
<path d="M6.69 9.63213C22.324 5.68413 38.184 3.01613 54.116 0.286133C54.43 1.80413 54.722 3.23613 55.024 4.66813C55.528 7.05813 56.018 9.45013 56.564 11.8301C56.656 12.2341 56.932 12.6581 57.246 12.9361C59.65 15.0761 62.07 17.1981 64.516 19.2881C65.118 19.8041 65.468 20.3861 65.64 21.1521C67.732 30.4881 69.834 39.8221 71.954 49.1521C72.606 52.0161 73.322 54.8661 74.04 57.8561C53.462 62.8721 32.93 67.9621 12.558 73.9841C11.922 71.9881 11.296 70.1001 10.718 68.2001C7.382 57.2381 4.062 46.2721 0.722 35.3121C0.54 34.7141 0.623999 34.2341 0.935999 33.6921C2.936 30.2261 5.624 27.3021 8.276 24.3561C8.922 23.6381 9.034 22.9741 8.86 22.0621C8.11 18.1221 7.432 14.1681 6.73 10.2181C6.702 10.0481 6.706 9.87613 6.69 9.63213ZM6.396 33.1601C6.218 33.4341 6.038 33.7061 5.766 34.1221C8.046 34.1221 10.17 34.1221 12.354 34.1221C11.764 32.4181 11.168 30.6981 10.54 28.8841C9.926 29.5341 9.406 30.1001 8.87 30.6481C8.144 31.3881 7.402 32.1161 6.668 32.8481C6.86 32.5921 7.032 32.3181 7.248 32.0841C8.156 31.0921 9.084 30.1181 9.984 29.1181C10.172 28.9081 10.436 28.5881 10.392 28.3761C10.17 27.3321 9.858 26.3061 9.52 25.0641C6.968 28.0981 4.576 30.9441 2.116 33.8681C4.082 34.3441 5.414 34.0941 6.396 33.1601ZM60.124 38.0361C64.378 42.5501 67.566 47.8441 71.192 52.8361C68.914 42.6261 66.634 32.4161 64.344 22.1601C64.108 22.2601 63.942 22.3101 63.796 22.3941C55.448 27.1241 47.104 31.8601 38.75 36.5801C38.4 36.7781 37.96 36.9401 37.57 36.9241C32.96 36.7261 28.35 36.4741 23.74 36.2681C16.812 35.9601 9.882 35.6801 2.952 35.3921C2.794 35.3861 2.636 35.4341 2.272 35.4861C5.722 46.8001 9.144 58.0301 12.568 69.2601C12.678 69.2461 12.79 69.2321 12.9 69.2181C13.488 61.8141 14.52 54.4821 16.336 47.2741C16.374 47.4501 16.378 47.6221 16.354 47.7901C15.39 54.5781 14.414 61.3641 13.468 68.1541C13.33 69.1381 13.274 70.1421 13.288 71.1361C13.298 71.9081 13.57 72.0541 14.282 71.8621C15.172 71.6221 16.06 71.3821 16.946 71.1261C32.53 66.6341 48.242 62.6341 63.994 58.7801C66.486 58.1701 68.982 57.5801 71.47 56.9501C71.72 56.8861 72.13 56.5641 72.102 56.4481C71.908 55.6341 71.788 54.7261 71.33 54.0641C67.76 48.8921 64.118 43.7681 60.502 38.6301C60.366 38.4401 60.248 38.2341 60.124 38.0361ZM53.366 1.92613C38.198 4.50613 23.12 7.09413 8.18 10.6001C8.64 13.2701 9.08 15.8221 9.522 18.3741C10.426 23.5901 11.776 28.6881 13.582 33.6661C13.75 34.1261 14.008 34.3541 14.508 34.3561C15.256 34.3581 16.004 34.3981 16.752 34.4341C23.578 34.7721 30.402 35.1221 37.228 35.4301C37.764 35.4541 38.376 35.2881 38.848 35.0241C45.268 31.4441 51.662 27.8181 58.082 24.2421C58.732 23.8801 58.808 23.5741 58.568 22.9081C56.78 17.9301 55.426 12.8281 54.414 7.63813C54.054 5.78013 53.73 3.91613 53.366 1.92613ZM57.604 15.2341C57.552 15.2581 57.502 15.2801 57.45 15.3041C57.628 15.8941 57.89 16.4741 57.97 17.0781C58.264 19.2961 59.446 20.7301 61.578 21.3941C61.766 21.4521 61.928 21.6061 62.116 21.6481C62.318 21.6941 62.568 21.7281 62.746 21.6501C63.216 21.4421 63.66 21.1701 64.192 20.8801C61.944 18.9521 59.774 17.0941 57.604 15.2341ZM62.148 22.0001C61.082 21.4321 60.128 20.9241 58.982 20.3141C59.37 21.4121 59.672 22.2661 59.992 23.1701C60.72 22.7761 61.382 22.4161 62.148 22.0001Z" fill="#0071BC"/>
<path d="M60.124 38.0361C60.25 38.2361 60.366 38.4401 60.502 38.6321C64.12 43.7721 67.76 48.8941 71.33 54.0661C71.786 54.7281 71.906 55.6361 72.102 56.4501C72.13 56.5661 71.72 56.8881 71.47 56.9521C68.982 57.5821 66.486 58.1721 63.994 58.7821C48.242 62.6361 32.53 66.6361 16.946 71.1281C16.06 71.3841 15.172 71.6241 14.282 71.8641C13.57 72.0561 13.296 71.9121 13.288 71.1381C13.276 70.1441 13.332 69.1401 13.468 68.1561C14.414 61.3661 15.39 54.5801 16.354 47.7921C16.378 47.6241 16.376 47.4521 16.336 47.2761C14.52 54.4821 13.488 61.8141 12.9 69.2201C12.79 69.2341 12.678 69.2481 12.568 69.2621C9.144 58.0321 5.72 46.8021 2.272 35.4881C2.634 35.4361 2.794 35.3861 2.952 35.3941C9.882 35.6821 16.81 35.9621 23.74 36.2701C28.35 36.4741 32.96 36.7281 37.57 36.9261C37.96 36.9421 38.4 36.7801 38.75 36.5821C47.104 31.8621 55.448 27.1261 63.796 22.3961C63.942 22.3121 64.108 22.2621 64.344 22.1621C66.634 32.4181 68.912 42.6281 71.192 52.8381C67.566 47.8441 64.376 42.5501 60.124 38.0361ZM55.302 46.1041C46.128 52.4081 36.186 56.0061 24.802 55.8921C25.372 56.7341 25.756 57.4621 26.286 58.0561C27.92 59.8841 29.96 61.1401 32.316 61.7661C37.392 63.1181 42.264 62.4181 46.854 59.9441C50.216 58.1321 52.924 55.5881 54.664 52.1381C55.602 50.2801 55.87 48.3081 55.302 46.1041ZM33.018 46.4521C33.026 46.5041 33.034 46.5541 33.042 46.6061C32.056 46.9061 31.072 47.2061 30.086 47.5081C28.646 47.9481 27.884 48.4301 27.442 49.2501C28.384 48.9861 29.25 48.7701 30.1 48.5001C31.428 48.0761 32.748 47.6261 34.062 47.1661C34.322 47.0761 34.548 46.8921 34.79 46.7501C34.594 46.5141 34.444 46.1821 34.192 46.0581C31.96 44.9641 29.716 43.8901 27.456 42.8541C27.016 42.6521 26.488 42.6361 26.002 42.5341C25.984 42.5981 25.966 42.6641 25.948 42.7281C27.47 44.0521 29.494 44.4201 31.292 45.4061C29.748 45.7121 28.296 46.0021 26.844 46.2901C26.86 46.3441 26.876 46.3981 26.89 46.4541C28.932 46.4521 30.974 46.4521 33.018 46.4521ZM46.722 38.6441C47.34 40.2501 47.92 41.8261 48.56 43.3781C48.704 43.7261 49.01 44.0681 49.512 43.8361C50.044 43.5901 49.954 43.1581 49.798 42.7561C49.228 41.2761 48.652 39.7981 48.032 38.3381C47.93 38.0981 47.598 37.9561 47.372 37.7681C47.18 38.0261 46.988 38.2861 46.722 38.6441Z" fill="white"/>
<path d="M53.366 1.92627C53.73 3.91827 54.054 5.78027 54.416 7.63627C55.428 12.8283 56.782 17.9283 58.57 22.9063C58.808 23.5723 58.734 23.8783 58.084 24.2403C51.662 27.8163 45.268 31.4423 38.85 35.0223C38.378 35.2863 37.766 35.4523 37.23 35.4283C30.404 35.1203 23.578 34.7703 16.754 34.4323C16.006 34.3963 15.258 34.3563 14.51 34.3543C14.008 34.3523 13.75 34.1243 13.584 33.6643C11.776 28.6863 10.428 23.5903 9.524 18.3723C9.082 15.8203 8.642 13.2683 8.182 10.5983C23.12 7.09427 38.198 4.50627 53.366 1.92627ZM34.588 7.94627C30.564 7.87627 26.904 10.1623 25.384 13.6983C23.394 18.3283 25.472 24.1023 29.958 26.4043C33.76 28.3543 39.88 27.5043 43.012 24.6003C44.404 23.3083 45.24 21.7403 45.412 19.8423C45.544 18.3723 45.222 16.9703 44.716 15.6003C42.984 10.9203 39.156 8.02627 34.588 7.94627Z" fill="white"/>
<path d="M6.396 33.16C5.414 34.092 4.082 34.342 2.112 33.866C4.572 30.942 6.964 28.098 9.516 25.062C9.854 26.304 10.168 27.33 10.388 28.374C10.432 28.586 10.17 28.906 9.98 29.116C9.08 30.116 8.152 31.088 7.244 32.082C7.03 32.316 6.856 32.59 6.666 32.846C6.578 32.952 6.486 33.056 6.396 33.16Z" fill="white"/>
<path d="M6.396 33.1603C6.486 33.0563 6.578 32.9503 6.666 32.8463C7.4 32.1143 8.14 31.3883 8.868 30.6463C9.406 30.0983 9.924 29.5323 10.538 28.8823C11.166 30.6963 11.762 32.4163 12.352 34.1203C10.17 34.1203 8.044 34.1203 5.764 34.1203C6.038 33.7083 6.218 33.4343 6.396 33.1603Z" fill="white"/>
<path d="M57.604 15.2344C59.774 17.0944 61.944 18.9524 64.192 20.8784C63.66 21.1684 63.216 21.4404 62.746 21.6484C62.568 21.7264 62.32 21.6924 62.116 21.6464C61.928 21.6044 61.766 21.4504 61.578 21.3924C59.444 20.7284 58.264 19.2944 57.97 17.0764C57.89 16.4724 57.628 15.8924 57.45 15.3024C57.502 15.2804 57.554 15.2584 57.604 15.2344Z" fill="white"/>
<path d="M62.148 21.9999C61.38 22.4159 60.718 22.7759 59.99 23.1719C59.67 22.2679 59.368 21.4139 58.98 20.3159C60.128 20.9239 61.082 21.4319 62.148 21.9999Z" fill="white"/>
<path d="M55.302 46.104C55.87 48.31 55.602 50.28 54.666 52.136C52.924 55.586 50.218 58.13 46.856 59.942C42.264 62.416 37.392 63.116 32.318 61.764C29.962 61.136 27.922 59.882 26.288 58.054C25.756 57.46 25.374 56.734 24.804 55.89C36.186 56.006 46.13 52.406 55.302 46.104ZM31.51 59.406C31.674 59.816 31.808 60.242 32.01 60.63C32.124 60.85 32.324 61.128 32.532 61.176C34.192 61.562 35.87 61.852 37.62 61.702C37.374 60.66 37.138 59.658 36.9 58.656C37.166 59.482 37.446 60.304 37.692 61.134C37.836 61.618 38.08 61.842 38.616 61.732C39.226 61.606 39.856 61.576 40.462 61.438C41.662 61.166 42.85 60.848 44.108 60.532C43.34 58.198 42.628 56.032 41.904 53.834C39.914 54.402 37.992 54.95 36.056 55.504C36.138 55.812 36.2 56.052 36.262 56.29C36.11 56.046 35.958 55.804 35.804 55.556C34.208 55.798 32.616 56.042 31.02 56.278C30.6 56.34 30.534 56.552 30.712 56.9C30.532 56.744 30.356 56.456 30.174 56.452C28.744 56.414 27.314 56.432 25.74 56.432C27.24 58.8 29.378 60.042 31.85 61.036C31.718 60.408 31.614 59.908 31.51 59.406ZM44.338 60.344C46.514 59.466 48.386 58.344 50.008 56.85C50.904 56.024 51.716 55.104 52.542 54.206C52.714 54.02 52.938 53.698 52.882 53.518C52.466 52.152 51.988 50.806 51.552 49.518C48.358 50.996 45.27 52.426 42.126 53.882C42.854 56.006 43.584 58.138 44.338 60.344ZM54.836 46.998C53.814 47.73 52.888 48.382 51.978 49.054C51.878 49.126 51.778 49.328 51.81 49.428C52.224 50.728 52.66 52.02 53.138 53.454C54.426 51.42 55.148 49.436 54.836 46.998Z" fill="#0071BC"/>
<path d="M33.018 46.4522C30.976 46.4522 28.932 46.4522 26.89 46.4522C26.874 46.3982 26.858 46.3442 26.844 46.2882C28.296 46.0002 29.748 45.7102 31.292 45.4042C29.494 44.4182 27.47 44.0502 25.948 42.7262C25.966 42.6622 25.984 42.5962 26.002 42.5322C26.488 42.6342 27.016 42.6502 27.456 42.8522C29.716 43.8882 31.96 44.9622 34.192 46.0562C34.444 46.1802 34.592 46.5122 34.79 46.7482C34.548 46.8902 34.322 47.0742 34.062 47.1642C32.746 47.6242 31.428 48.0762 30.1 48.4982C29.25 48.7682 28.384 48.9862 27.442 49.2482C27.884 48.4282 28.646 47.9462 30.086 47.5062C31.072 47.2042 32.056 46.9062 33.042 46.6042C33.034 46.5542 33.026 46.5022 33.018 46.4522Z" fill="#0071BC"/>
<path d="M46.722 38.6441C46.988 38.2861 47.18 38.0261 47.372 37.7661C47.598 37.9541 47.93 38.0961 48.032 38.3361C48.652 39.7961 49.23 41.2741 49.798 42.7541C49.952 43.1561 50.044 43.5901 49.512 43.8341C49.01 44.0661 48.702 43.7261 48.56 43.3761C47.922 41.8261 47.34 40.2521 46.722 38.6441Z" fill="#0071BC"/>
<path d="M34.588 7.9459C39.156 8.0259 42.984 10.9179 44.716 15.5999C45.222 16.9699 45.544 18.3719 45.412 19.8419C45.24 21.7399 44.406 23.3079 43.012 24.5999C39.88 27.5039 33.758 28.3539 29.958 26.4039C25.472 24.1019 23.394 18.3279 25.384 13.6979C26.904 10.1639 30.562 7.8759 34.588 7.9459ZM34.832 26.2899C37.006 26.3259 39.03 25.7599 40.876 24.6399C42.692 23.5399 43.922 21.9739 44.122 19.7959C44.662 13.8859 39.044 8.4179 33.148 9.0739C29.3 9.5039 25.974 12.7699 25.68 16.4079C25.216 22.1359 29.018 26.2379 34.832 26.2899Z" fill="#0071BC"/>
<path d="M44.338 60.3441C43.584 58.1381 42.854 56.0061 42.126 53.8801C45.268 52.4261 48.358 50.9961 51.552 49.5161C51.988 50.8041 52.468 52.1501 52.882 53.5161C52.938 53.6981 52.714 54.0181 52.542 54.2041C51.714 55.1021 50.904 56.0221 50.008 56.8481C48.386 58.3441 46.514 59.4661 44.338 60.3441Z" fill="white"/>
<path d="M36.262 56.2919C36.2 56.0539 36.136 55.8139 36.056 55.5059C37.992 54.9539 39.914 54.4039 41.904 53.8359C42.628 56.0339 43.34 58.1999 44.108 60.5339C42.85 60.8499 41.662 61.1659 40.462 61.4399C39.856 61.5779 39.226 61.6079 38.616 61.7339C38.082 61.8439 37.836 61.6199 37.692 61.1359C37.446 60.3039 37.166 59.4819 36.9 58.6579C36.688 57.8679 36.474 57.0799 36.262 56.2919Z" fill="white"/>
<path d="M36.262 56.2922C36.474 57.0802 36.688 57.8682 36.9 58.6562C37.136 59.6582 37.374 60.6602 37.62 61.7022C35.87 61.8522 34.194 61.5622 32.532 61.1762C32.324 61.1282 32.124 60.8482 32.01 60.6302C31.808 60.2402 31.672 59.8162 31.51 59.4062C31.244 58.5702 30.978 57.7362 30.712 56.9002C30.534 56.5542 30.6 56.3402 31.02 56.2782C32.614 56.0422 34.208 55.7982 35.804 55.5562C35.958 55.8062 36.11 56.0482 36.262 56.2922Z" fill="white"/>
<path d="M30.712 56.9003C30.978 57.7363 31.244 58.5703 31.51 59.4063C31.614 59.9083 31.718 60.4083 31.848 61.0363C29.376 60.0423 27.238 58.8003 25.738 56.4323C27.312 56.4323 28.742 56.4163 30.172 56.4523C30.356 56.4583 30.532 56.7443 30.712 56.9003Z" fill="white"/>
<path d="M54.836 46.998C55.146 49.434 54.424 51.42 53.136 53.454C52.658 52.02 52.222 50.7281 51.808 49.4281C51.776 49.3281 51.878 49.126 51.976 49.054C52.89 48.382 53.814 47.73 54.836 46.998Z" fill="white"/>
<path d="M34.832 26.2899C29.018 26.2379 25.216 22.1359 25.68 16.4079C25.974 12.7699 29.302 9.50192 33.148 9.07392C39.044 8.41592 44.662 13.8859 44.122 19.7959C43.924 21.9719 42.692 23.5379 40.876 24.6399C39.028 25.7579 37.006 26.3259 34.832 26.2899ZM31.162 21.7339C30.956 21.7799 30.752 21.8259 30.526 21.8779C32.178 24.6459 36.374 24.9079 38.604 23.8379C41.092 22.6439 42.522 19.6779 41.776 17.1239C40.824 17.6259 39.914 18.1939 38.936 18.6039C36.352 19.6899 33.74 20.7079 31.138 21.7519L31.162 21.7339ZM28.638 17.2259C29.732 16.7099 30.696 16.1579 31.938 16.5719C31.374 16.9159 30.936 17.1839 30.498 17.4519C30.52 17.4879 30.54 17.5239 30.562 17.5599C31.086 17.4239 31.608 17.2879 32.268 17.1159C32.058 17.4379 31.95 17.6059 31.854 17.7519C32.44 17.5139 33.002 17.2859 33.566 17.0559C33.068 15.5979 30.154 15.5859 28.638 17.2259ZM37.976 13.5139C37.842 13.5779 37.708 13.6419 37.574 13.7059C37.834 14.4419 38.076 15.1879 38.37 15.9099C38.418 16.0299 38.702 16.1199 38.864 16.1059C38.97 16.0959 39.166 15.8159 39.132 15.7479C38.768 14.9919 38.366 14.2559 37.976 13.5139Z" fill="white"/>
<path d="M31.14 21.7501C33.742 20.7061 36.354 19.6881 38.938 18.6021C39.916 18.1921 40.826 17.6241 41.778 17.1221C42.524 19.6761 41.092 22.6441 38.606 23.8361C36.376 24.9061 32.182 24.6441 30.528 21.8761C30.754 21.8241 30.96 21.7781 31.162 21.7341C31.14 21.9121 31.042 22.1921 31.114 22.2481C31.706 22.6941 32.332 23.0961 33.094 23.6121C33.008 23.0901 32.966 22.8361 32.924 22.5821C33.62 23.7561 34.252 24.0381 35.736 23.8021C35.562 23.3841 35.398 22.9781 35.224 22.5721C34.48 20.8261 34.478 20.8261 32.718 21.5561C32.698 21.5641 32.684 21.5921 32.644 21.6361C32.738 21.9441 32.838 22.2701 32.936 22.5941C32.724 22.2801 32.512 21.9681 32.31 21.6721C31.914 21.6981 31.526 21.7241 31.14 21.7501ZM38.994 19.9781C38.834 19.7741 38.676 19.5721 38.492 19.3361C38.052 19.5441 37.612 19.7101 37.222 19.9581C37.094 20.0401 37.098 20.3281 37.042 20.5221C36.134 19.8521 35.55 20.8001 34.71 20.8861C35.124 21.8561 35.48 22.7281 35.874 23.5821C35.938 23.7221 36.178 23.8921 36.314 23.8741C36.936 23.7881 37.552 23.6401 38.158 23.5161C38.068 23.1361 38.014 22.8981 37.958 22.6601C38.132 22.8801 38.306 23.1001 38.516 23.3641C38.83 23.1401 39.11 22.9401 39.39 22.7421C39.856 22.4121 40.014 22.0641 39.66 21.5081C39.36 21.0361 39.194 20.4781 38.972 19.9601C39.36 20.6221 39.748 21.2841 40.14 21.9541C41.37 20.8301 41.424 19.7941 40.31 18.4601C39.82 18.7041 39.32 18.9541 38.838 19.1941C38.9 19.5081 38.948 19.7421 38.994 19.9781ZM40.59 18.2941C40.844 18.7861 41.062 19.2041 41.28 19.6241C41.342 19.6081 41.404 19.5941 41.464 19.5781C41.508 19.0001 41.554 18.4201 41.61 17.7001C41.222 17.9241 40.954 18.0821 40.59 18.2941Z" fill="#0071BC"/>
<path d="M28.638 17.2263C30.154 15.5883 33.066 15.5983 33.566 17.0563C33.002 17.2863 32.44 17.5123 31.854 17.7523C31.95 17.6043 32.058 17.4383 32.268 17.1163C31.608 17.2883 31.084 17.4243 30.562 17.5603C30.54 17.5243 30.52 17.4883 30.498 17.4523C30.936 17.1843 31.374 16.9183 31.938 16.5723C30.696 16.1583 29.734 16.7103 28.638 17.2263Z" fill="#0071BC"/>
<path d="M37.976 13.5142C38.368 14.2562 38.768 14.9922 39.134 15.7482C39.166 15.8162 38.97 16.0962 38.866 16.1062C38.702 16.1222 38.42 16.0302 38.372 15.9102C38.078 15.1882 37.836 14.4442 37.576 13.7062C37.706 13.6422 37.84 13.5782 37.976 13.5142Z" fill="#0071BC"/>
<path d="M37.958 22.6581C38.014 22.8961 38.07 23.1321 38.158 23.5141C37.552 23.6381 36.936 23.7861 36.314 23.8721C36.18 23.8901 35.94 23.7221 35.874 23.5801C35.48 22.7261 35.124 21.8541 34.71 20.8841C35.55 20.7961 36.134 19.8501 37.042 20.5201C37.348 21.2341 37.652 21.9461 37.958 22.6581Z" fill="white"/>
<path d="M37.958 22.6579C37.654 21.9459 37.348 21.2339 37.044 20.5219C37.1 20.3279 37.096 20.0399 37.224 19.9579C37.614 19.7099 38.054 19.5439 38.494 19.3359C38.678 19.5719 38.836 19.7739 38.996 19.9779L38.972 19.9559C39.196 20.4759 39.362 21.0339 39.662 21.5059C40.016 22.0619 39.856 22.4119 39.392 22.7399C39.112 22.9379 38.832 23.1379 38.518 23.3619C38.306 23.0979 38.132 22.8779 37.958 22.6579Z" fill="white"/>
<path d="M32.938 22.596C32.838 22.27 32.738 21.946 32.644 21.636C32.684 21.592 32.698 21.566 32.718 21.556C34.478 20.826 34.478 20.826 35.224 22.572C35.396 22.976 35.562 23.384 35.736 23.802C34.252 24.038 33.62 23.756 32.922 22.58C32.918 22.58 32.938 22.596 32.938 22.596Z" fill="white"/>
<path d="M38.994 19.978C38.948 19.744 38.9 19.51 38.838 19.192C39.32 18.952 39.82 18.702 40.31 18.458C41.424 19.792 41.372 20.828 40.14 21.952C39.748 21.282 39.36 20.62 38.972 19.958C38.97 19.954 38.994 19.978 38.994 19.978Z" fill="white"/>
<path d="M31.14 21.7499C31.528 21.7239 31.914 21.6979 32.312 21.6699C32.512 21.9659 32.724 22.2779 32.938 22.5919C32.94 22.5939 32.92 22.5759 32.922 22.5779C32.966 22.8339 33.008 23.0879 33.094 23.6079C32.332 23.0919 31.706 22.6899 31.114 22.2439C31.042 22.1899 31.14 21.9079 31.162 21.7299C31.162 21.7339 31.14 21.7499 31.14 21.7499Z" fill="white"/>
<path d="M40.59 18.2942C40.954 18.0822 41.222 17.9262 41.61 17.7002C41.554 18.4202 41.51 19.0002 41.464 19.5782C41.402 19.5942 41.34 19.6082 41.28 19.6242C41.064 19.2042 40.846 18.7842 40.59 18.2942Z" fill="white"/>
</svg>
