<svg width="70" height="73" viewBox="0 0 70 73" fill="none" xmlns="http://www.w3.org/2000/svg">
<path d="M69.184 72.5381C67.48 72.4401 65.842 72.3661 64.208 72.2501C55.096 71.6001 45.97 71.1981 36.836 71.4041C27.134 71.6201 17.438 72.0381 7.74 72.3621C6.218 72.4141 4.696 72.4241 3.176 72.4961C2.65 72.5221 2.494 72.3301 2.436 71.8341C1.11 60.5821 0.717998 49.2921 1.056 37.9761C1.176 33.9621 1.498 29.9541 1.712 25.9441C1.752 25.1981 2.026 24.6401 2.616 24.1541C5.814 21.5241 8.974 18.8461 12.178 16.2241C12.874 15.6541 13.166 15.0281 13.232 14.1281C13.51 10.2461 13.848 6.37005 14.206 2.49405C14.348 0.958053 14.396 0.948053 15.938 0.884053C25.166 0.498053 34.32 1.04205 43.42 2.71605C49.738 3.87805 55.906 5.51605 61.938 7.70805C62.526 7.92205 62.542 8.23605 62.472 8.72205C61.992 12.1041 61.522 15.4881 61.05 18.8721C60.932 19.7121 60.832 20.5541 60.686 21.3901C60.598 21.9001 60.806 22.2321 61.164 22.5601C63.506 24.6961 65.824 26.8581 68.178 28.9781C68.752 29.4961 68.966 30.0461 68.924 30.8141C68.342 41.7881 68.252 52.7641 68.864 63.7421C69.016 66.4581 69.102 69.1761 69.214 71.8941C69.226 72.0641 69.202 72.2381 69.184 72.5381ZM67.59 31.3521C67.224 31.4621 66.986 31.5261 66.754 31.6041C59.518 34.0721 52.266 36.4921 45.06 39.0461C43.2 39.7061 41.576 39.7321 39.682 39.0841C29.056 35.4501 18.382 31.9601 7.728 28.4101C6.128 27.8761 4.544 27.2901 2.948 26.7261C1.734 31.9701 2.43 67.8261 3.74 70.6801C4.404 70.0681 5.1 69.4301 5.794 68.7881C6.49 68.1441 7.166 67.4781 7.882 66.8581C8.618 66.2221 9.374 65.6101 10.152 65.0261C10.878 64.4821 11.644 63.9881 12.392 63.4741C12.414 63.5101 12.436 63.5441 12.46 63.5801C9.752 66.0461 7.044 68.5101 4.336 70.9761C4.386 71.0941 4.436 71.2121 4.486 71.3301C25.38 70.0841 46.276 69.3461 67.366 71.1581C64.928 67.5661 61.976 64.6901 59.314 61.5721C62.624 64.2241 65.258 67.4881 67.802 70.8781C66.896 57.7261 66.92 44.5981 67.59 31.3521ZM21.94 1.90805C19.994 1.90805 18.05 1.91605 16.104 1.90205C15.572 1.89805 15.256 2.01805 15.278 2.65005C15.296 3.14405 15.18 3.64205 15.148 4.13805C14.914 7.72205 14.592 11.3041 14.478 14.8941C14.328 19.5561 14.344 24.2221 14.284 28.8881C14.278 29.3761 14.458 29.6441 14.954 29.8041C23.936 32.7001 32.91 35.6161 41.894 38.5081C42.25 38.6221 42.708 38.6541 43.054 38.5361C48.144 36.8001 53.226 35.0401 58.298 33.2521C58.544 33.166 58.816 32.7801 58.842 32.5101C58.948 31.4181 58.98 30.3201 59.008 29.2221C59.184 22.6721 60.07 16.2021 61.216 9.76405C61.344 9.04005 61.218 8.72805 60.494 8.46405C48.042 3.93805 35.152 1.94805 21.94 1.90805ZM12.93 29.0901C12.93 26.2901 12.93 23.5901 12.93 20.6641C10.248 22.6401 7.744 24.4861 5.078 26.4501C7.86 27.3841 10.376 28.2301 12.93 29.0901ZM2.688 25.6861C3.676 25.8201 4.298 26.5581 5.19 25.8541C7.364 24.1421 9.586 22.4921 11.81 20.8441C13.038 19.9361 13.42 18.8441 12.914 17.2641C9.546 20.0381 6.202 22.7921 2.688 25.6861ZM67.564 29.9961C65.192 27.7721 62.896 25.6161 60.452 23.3241C60.414 24.1201 60.348 24.6641 60.378 25.2041C60.396 25.5001 60.5 25.8581 60.696 26.0661C62.08 27.5301 63.486 28.9741 64.918 30.3921C65.104 30.5761 65.512 30.6781 65.772 30.6201C66.348 30.4921 66.894 30.2381 67.564 29.9961ZM60.184 32.6041C61.644 32.0961 63.112 31.5861 64.7 31.0341C63.23 29.4561 61.83 27.9561 60.43 26.4541C60.348 26.4921 60.266 26.5301 60.184 26.5681C60.184 28.5501 60.184 30.5301 60.184 32.6041Z" fill="#0071BC"/>
<path d="M67.59 31.352C66.92 44.596 66.898 57.724 67.802 70.88C65.258 67.49 62.626 64.224 59.314 61.574C61.976 64.69 64.926 67.566 67.366 71.16C46.274 69.348 25.38 70.086 4.48599 71.332C4.43599 71.214 4.38599 71.096 4.33599 70.978C7.04399 68.512 9.75199 66.048 12.46 63.582C12.438 63.546 12.416 63.512 12.392 63.476C11.644 63.992 10.878 64.484 10.152 65.028C9.37399 65.612 8.61599 66.224 7.88199 66.86C7.16599 67.48 6.48999 68.146 5.79399 68.79C5.09999 69.432 4.40399 70.07 3.73999 70.682C2.43199 67.828 1.73399 31.972 2.94799 26.728C4.54599 27.292 6.12799 27.88 7.72799 28.412C18.382 31.962 29.056 35.452 39.682 39.086C41.576 39.734 43.2 39.708 45.06 39.048C52.264 36.494 59.518 34.074 66.754 31.606C66.986 31.526 67.224 31.462 67.59 31.352ZM42.836 53.496C47.182 52.64 51.608 52.224 54.886 48.85C51.018 51.108 46.836 52.334 42.388 52.746C37.952 53.156 33.646 52.486 29.374 51.358C25.034 50.21 21.294 48.022 18.064 44.902C18.13 45.152 18.252 45.306 18.382 45.456C20.52 47.92 23.16 49.666 26.174 50.858C26.726 51.076 26.916 51.34 26.878 51.954C26.732 54.368 26.544 56.788 26.992 59.196C27.714 63.086 29.648 66.068 33.436 67.558C37.828 69.286 42.744 66.836 43.626 62.384C43.938 60.808 43.794 59.108 43.654 57.484C43.542 56.154 43.126 54.852 42.836 53.496ZM52.466 43.952C52.458 43.952 52.45 43.952 52.442 43.952C52.442 43.628 52.448 43.304 52.44 42.982C52.43 42.53 52.344 42.088 51.784 42.076C51.258 42.066 51.13 42.512 51.13 42.914C51.128 43.71 51.158 44.51 51.264 45.296C51.292 45.5 51.648 45.802 51.85 45.798C52.058 45.794 52.39 45.502 52.438 45.286C52.532 44.86 52.466 44.4 52.466 43.952ZM22.34 40.07C22.32 40.068 22.3 40.066 22.28 40.066C22.258 39.668 22.298 39.256 22.194 38.88C22.13 38.648 21.858 38.334 21.66 38.32C21.452 38.306 21.038 38.594 21.03 38.766C20.988 39.704 21.014 40.648 21.092 41.584C21.106 41.75 21.472 42.002 21.676 42.002C21.856 42.002 22.152 41.736 22.196 41.54C22.308 41.064 22.3 40.562 22.34 40.07Z" fill="white"/>
<path d="M21.94 1.90783C35.15 1.94783 48.04 3.93783 60.498 8.46583C61.222 8.72983 61.348 9.04183 61.22 9.76583C60.074 16.2038 59.186 22.6738 59.012 29.2238C58.982 30.3218 58.952 31.4198 58.846 32.5118C58.82 32.7818 58.548 33.1678 58.302 33.2538C53.23 35.0418 48.148 36.8018 43.058 38.5378C42.712 38.6558 42.254 38.6238 41.898 38.5098C32.916 35.6178 23.94 32.6998 14.958 29.8058C14.462 29.6458 14.282 29.3778 14.288 28.8898C14.348 24.2258 14.332 19.5578 14.482 14.8958C14.598 11.3078 14.918 7.72583 15.152 4.13983C15.184 3.64183 15.3 3.14383 15.282 2.65183C15.258 2.01983 15.576 1.90183 16.108 1.90383C18.05 1.91583 19.996 1.90783 21.94 1.90783ZM36.164 25.1318C40.076 25.1738 42.496 24.4798 44.634 22.9798C47.344 21.0758 48.552 18.4498 47.976 15.1398C47.188 10.6138 44.622 7.39383 40.552 5.35383C38.408 4.27983 36.17 4.00783 33.804 4.57983C29.632 5.58583 26.852 8.14383 25.882 12.2558C24.926 16.3078 26.216 19.8298 29.458 22.5558C31.774 24.5038 34.504 25.1538 36.164 25.1318Z" fill="white"/>
<path d="M12.93 29.0901C10.376 28.2301 7.86 27.3841 5.078 26.4481C7.744 24.4841 10.248 22.6381 12.93 20.6621C12.93 23.5901 12.93 26.2901 12.93 29.0901Z" fill="white"/>
<path d="M2.68799 25.6862C6.20199 22.7922 9.54599 20.0382 12.914 17.2642C13.42 18.8462 13.038 19.9362 11.81 20.8442C9.58599 22.4902 7.36199 24.1422 5.18999 25.8542C4.29799 26.5582 3.67599 25.8202 2.68799 25.6862Z" fill="white"/>
<path d="M67.564 29.9963C66.894 30.2383 66.348 30.4923 65.774 30.6183C65.512 30.6763 65.106 30.5743 64.92 30.3903C63.488 28.9743 62.082 27.5303 60.698 26.0643C60.502 25.8563 60.398 25.4983 60.38 25.2023C60.348 24.6643 60.416 24.1183 60.454 23.3223C62.896 25.6163 65.192 27.7703 67.564 29.9963Z" fill="white"/>
<path d="M60.184 32.6041C60.184 30.5301 60.184 28.5501 60.184 26.5681C60.266 26.5301 60.348 26.4921 60.43 26.4541C61.83 27.9561 63.23 29.4561 64.7 31.0341C63.112 31.5861 61.644 32.0961 60.184 32.6041Z" fill="white"/>
<path d="M42.836 53.4959C43.126 54.8539 43.542 56.1559 43.654 57.4819C43.792 59.1079 43.938 60.8059 43.626 62.3819C42.744 66.8339 37.828 69.2839 33.436 67.5559C29.648 66.0659 27.716 63.0839 26.992 59.1939C26.544 56.7859 26.732 54.3659 26.878 51.9519C26.916 51.3379 26.724 51.0739 26.174 50.8559C23.16 49.6639 20.52 47.9179 18.382 45.4539C18.252 45.3039 18.13 45.1499 18.064 44.8999C21.294 48.0199 25.032 50.2079 29.374 51.3559C33.646 52.4839 37.952 53.1539 42.388 52.7439C46.836 52.3319 51.018 51.1059 54.886 48.8479C51.606 52.2219 47.182 52.6379 42.836 53.4959ZM36.76 60.2059C36.692 59.8799 36.604 59.5559 36.562 59.2259C36.338 57.4719 36.12 55.7159 35.916 53.9579C35.864 53.5059 35.71 53.2859 35.198 53.2239C34.138 53.0959 33.08 52.9019 32.038 52.6599C30.516 52.3059 29.012 51.8839 27.428 51.4739C27.426 54.2379 27.202 56.9919 27.836 59.6819C28.652 63.1319 30.522 65.7559 34.022 66.9699C37.78 68.2719 42.68 66.0219 43.074 61.2599C43.242 59.2319 42.844 57.2899 42.438 55.3399C42.074 53.5919 42.042 53.5899 40.268 53.5679C39.004 53.5519 37.738 53.5639 36.428 53.5639C36.566 55.7279 37.262 57.9279 36.76 60.2059Z" fill="#0071BC"/>
<path d="M52.466 43.9523C52.466 44.4003 52.532 44.8603 52.438 45.2883C52.39 45.5043 52.058 45.7963 51.85 45.8003C51.648 45.8043 51.292 45.5003 51.264 45.2983C51.158 44.5123 51.128 43.7103 51.13 42.9163C51.13 42.5143 51.258 42.0683 51.784 42.0783C52.344 42.0883 52.43 42.5323 52.44 42.9843C52.446 43.3083 52.442 43.6323 52.442 43.9543C52.45 43.9523 52.458 43.9523 52.466 43.9523Z" fill="#0071BC"/>
<path d="M22.34 40.0698C22.3 40.5618 22.306 41.0638 22.198 41.5398C22.154 41.7338 21.858 42.0018 21.678 42.0018C21.474 41.9998 21.108 41.7498 21.094 41.5838C21.016 40.6478 20.99 39.7038 21.032 38.7658C21.04 38.5958 21.454 38.3058 21.662 38.3198C21.86 38.3338 22.132 38.6498 22.196 38.8798C22.3 39.2538 22.26 39.6678 22.282 40.0658C22.3 40.0678 22.32 40.0678 22.34 40.0698Z" fill="#0071BC"/>
<path d="M36.164 25.132C34.506 25.154 31.776 24.504 29.456 22.554C26.214 19.828 24.924 16.306 25.88 12.254C26.85 8.14204 29.63 5.58404 33.802 4.57804C36.17 4.00604 38.408 4.27804 40.55 5.35204C44.62 7.39204 47.186 10.614 47.974 15.138C48.55 18.448 47.342 21.076 44.632 22.978C42.496 24.482 40.074 25.174 36.164 25.132ZM37.252 24.232C39.43 24.288 41.462 23.784 43.344 22.702C46.456 20.912 47.762 18.196 46.952 14.694C45.97 10.45 43.348 7.48604 39.344 5.79404C37.222 4.89604 35.082 4.90004 32.862 5.65604C27.954 7.32604 24.302 13.604 27.882 19.428C30.026 22.922 33.316 24.226 37.252 24.232Z" fill="#0071BC"/>
<path d="M36.76 60.2061C37.262 57.9281 36.566 55.7281 36.43 53.5661C37.74 53.5661 39.004 53.5541 40.27 53.5701C42.044 53.5921 42.074 53.5961 42.44 55.3421C42.846 57.2901 43.244 59.2341 43.076 61.2621C42.682 66.0241 37.782 68.2741 34.024 66.9721C30.524 65.7581 28.652 63.1341 27.838 59.6841C27.202 56.9961 27.428 54.2401 27.43 51.4761C29.012 51.8881 30.518 52.3081 32.04 52.6621C33.082 52.9041 34.138 53.0981 35.2 53.2261C35.712 53.2881 35.866 53.5061 35.918 53.9601C36.122 55.7181 36.342 57.4721 36.564 59.2281C36.604 59.5561 36.694 59.8801 36.76 60.2061Z" fill="white"/>
<path d="M37.252 24.2322C33.314 24.2282 30.026 22.9222 27.878 19.4302C24.298 13.6062 27.95 7.32623 32.858 5.65823C35.08 4.90223 37.218 4.89823 39.34 5.79623C43.344 7.48823 45.966 10.4522 46.948 14.6962C47.758 18.1982 46.452 20.9142 43.34 22.7042C41.462 23.7842 39.43 24.2862 37.252 24.2322ZM31.276 14.7262C31.9 15.5582 32.524 15.9582 34.124 16.4282C34.834 16.6362 35.096 16.9702 35.1 17.7362C35.116 20.1582 36.868 21.9122 39.28 22.0322C40.862 22.1102 41.936 20.9482 41.72 19.3782C41.676 19.0582 41.596 18.7422 41.526 18.4262C41.412 17.9002 41.294 17.3742 41.172 16.8282C41.572 16.6922 41.9 16.5882 42.224 16.4682C42.546 16.3482 42.864 16.2142 43.184 16.0882C39.062 17.2462 35.112 17.2042 31.276 14.7262ZM42.312 10.7722C42.044 11.0862 41.874 12.2882 42.106 12.5362C42.18 12.6162 42.48 12.6182 42.562 12.5382C42.884 12.2242 42.706 11.1122 42.312 10.7722ZM32.064 10.5062C31.962 10.5522 31.862 10.5982 31.76 10.6462C31.76 11.1142 31.728 11.5862 31.776 12.0502C31.794 12.2222 32 12.3742 32.12 12.5362C32.22 12.3902 32.38 12.2542 32.406 12.0942C32.46 11.7782 32.496 11.4422 32.438 11.1322C32.398 10.9082 32.194 10.7142 32.064 10.5062Z" fill="white"/>
<path d="M31.276 14.7261C35.112 17.2061 39.062 17.2461 43.186 16.0861C42.866 16.2141 42.548 16.3481 42.226 16.4661C41.902 16.5861 41.574 16.6901 41.174 16.8261C41.296 17.3741 41.414 17.8981 41.528 18.4241C41.596 18.7401 41.678 19.0561 41.722 19.3761C41.938 20.9461 40.866 22.1101 39.282 22.0301C36.868 21.9101 35.116 20.1581 35.102 17.7341C35.098 16.9681 34.834 16.6341 34.126 16.4261C32.524 15.9581 31.9 15.5581 31.276 14.7261ZM38.486 17.1481C38.634 17.8421 38.754 18.4061 38.874 18.9681C38.816 18.9821 38.756 18.9961 38.698 19.0081C38.576 18.5601 38.488 18.0981 38.32 17.6681C38.234 17.4481 38.024 17.1461 37.834 17.1181C37.034 17.0001 36.22 16.9721 35.412 16.9101C35.34 19.5121 36.772 21.3201 39.088 21.6021C40.41 21.7621 41.324 21.0321 41.282 19.7181C41.258 18.9341 41.048 18.1481 40.864 17.3781C40.822 17.2021 40.538 16.9601 40.368 16.9641C39.752 16.9721 39.14 17.0741 38.486 17.1481Z" fill="#0071BC"/>
<path d="M42.312 10.772C42.706 11.112 42.886 12.226 42.562 12.538C42.48 12.618 42.18 12.616 42.106 12.536C41.874 12.286 42.044 11.084 42.312 10.772Z" fill="#0071BC"/>
<path d="M32.064 10.5059C32.196 10.7139 32.4 10.9059 32.44 11.1299C32.498 11.4399 32.464 11.7779 32.408 12.0919C32.38 12.2519 32.22 12.3879 32.122 12.5339C32.002 12.3719 31.796 12.2199 31.778 12.0479C31.73 11.5839 31.762 11.1119 31.762 10.6439C31.862 10.5999 31.962 10.5539 32.064 10.5059Z" fill="#0071BC"/>
<path d="M38.486 17.1482C39.14 17.0762 39.752 16.9742 40.366 16.9622C40.534 16.9582 40.82 17.2022 40.862 17.3762C41.046 18.1462 41.256 18.9302 41.28 19.7162C41.32 21.0302 40.408 21.7622 39.086 21.6002C36.772 21.3182 35.34 19.5102 35.41 16.9082C36.218 16.9702 37.032 16.9982 37.832 17.1162C38.022 17.1442 38.23 17.4462 38.318 17.6662C38.486 18.0962 38.574 18.5582 38.696 19.0062C38.754 18.9922 38.814 18.9782 38.872 18.9662C38.754 18.4042 38.634 17.8422 38.486 17.1482Z" fill="white"/>
</svg>
