<svg width="27" height="20" viewBox="0 0 27 20" fill="none" xmlns="http://www.w3.org/2000/svg">
<path d="M25.7864 3.74868C25.6406 3.17624 25.3549 2.65421 24.9577 2.23483C24.5605 1.81545 24.0658 1.51344 23.5232 1.35901C21.5258 0.792481 13.5189 0.79248 13.5189 0.79248C13.5189 0.79248 5.51197 0.79248 3.51453 1.356C2.97166 1.50992 2.47674 1.81177 2.07948 2.23123C1.68223 2.65068 1.39662 3.17298 1.25134 3.74567C0.71698 5.85509 0.71698 10.2547 0.71698 10.2547C0.71698 10.2547 0.71698 14.6544 1.25134 16.7608C1.54567 17.924 2.41437 18.8401 3.51453 19.1505C5.51197 19.717 13.5189 19.717 13.5189 19.717C13.5189 19.717 21.5258 19.717 23.5232 19.1505C24.6262 18.8401 25.4921 17.924 25.7864 16.7608C26.3208 14.6544 26.3208 10.2547 26.3208 10.2547C26.3208 10.2547 26.3208 5.85509 25.7864 3.74868ZM10.9756 14.2928V6.21671L17.6052 10.2246L10.9756 14.2928Z" fill="#2D2D2D"/>
</svg>
