<svg width="55" height="70" viewBox="0 0 55 70" fill="none" xmlns="http://www.w3.org/2000/svg">
<path d="M49.7951 70C49.5914 70 49.3862 70 49.1826 70C48.2102 68.1332 47.1168 66.3347 46.0005 64.5514C37.4405 50.8814 28.2664 37.6135 19.1352 24.3168C19.0786 24.2333 19.0418 24.077 18.8244 24.1544C19.0464 24.5126 19.2578 24.8556 19.4706 25.1986C26.1747 36.0199 32.5434 47.0324 38.5859 58.2301C39.0958 59.1741 39.0285 59.2849 37.9382 59.2258C34.8725 59.0588 31.9416 58.3349 29.1546 57.0554C24.7245 55.0232 21.0524 52.0121 17.8137 48.4409C12.2551 42.3093 8.21856 35.2595 5.04569 27.6861C4.79149 27.0791 4.95228 26.9197 5.58471 27.0047C7.15124 27.2141 8.72236 27.3932 10.2935 27.5784C10.6028 27.6148 10.9228 27.7165 11.246 27.5511C11.1878 27.4555 11.1694 27.4038 11.1342 27.372C11.0392 27.287 10.9397 27.2081 10.8371 27.1322C5.62758 23.3166 2.47156 18.2004 0.888188 12.0173C-0.278668 7.47019 0.0612823 2.90643 0.00615519 0.778594C-0.0106892 0.119906 0.170005 -0.0895383 0.791716 0.0333965C1.20364 0.166955 1.60943 0.315691 2.02595 0.431038C6.63978 1.71199 11.076 3.43156 15.261 5.75062C23.9941 10.5861 31.2019 16.9832 36.047 25.786C38.4343 30.1221 40.6271 34.5417 42.1539 39.2602C42.552 40.4896 42.8322 41.7493 43.1477 43.0029C43.2089 40.8432 43.016 38.7032 42.7036 36.5769C41.8644 30.8779 40.203 25.4764 36.7713 20.7289C36.5248 20.389 36.4788 20.0581 36.5952 19.662C37.2675 17.3535 37.9428 15.0466 38.5859 12.7321C39.6119 9.04255 42.2044 7.18183 45.8688 6.59296C49.3372 6.03444 52.2467 7.53546 53.8668 10.6301C54.4013 11.6515 54.6769 12.7534 55 13.8446C55 14.0981 55 14.35 55 14.6034C52.7444 14.2954 50.8379 15.0724 49.9237 16.8603C48.9728 18.7225 49.5118 20.433 50.7613 21.9978C51.6587 23.1209 52.2605 24.4064 52.7199 25.7526C54.4732 30.8809 54.5927 36.1322 53.7076 41.4063C52.6877 47.4786 49.8364 52.5448 44.8199 56.2981C44.3421 56.6563 44.4661 56.9188 44.7341 57.2922C46.2103 59.3532 47.6222 61.4583 48.9896 63.5937C50.2912 65.6244 50.4183 67.7553 49.7951 70ZM50.5439 10.3356C50.5347 9.46447 49.9252 8.85738 49.0524 8.8498C48.1459 8.84221 47.5119 9.47358 47.5211 10.3736C47.5303 11.2705 48.1796 11.8852 49.0922 11.8594C49.9605 11.8351 50.5516 11.2144 50.5439 10.3356Z" fill="#0071BC"/>
</svg>
