<svg width="11" height="8" viewBox="0 0 11 8" fill="none" xmlns="http://www.w3.org/2000/svg">
<path d="M0.0617247 0.285876C0.0168467 0.372154 -0.0036869 0.469024 0.00232697 0.566089C0.00834084 0.663154 0.0406752 0.756749 0.0958595 0.836827L4.89611 7.77039C4.9452 7.84124 5.01072 7.89913 5.08708 7.93912C5.16343 7.97911 5.24834 8 5.33454 8C5.42073 8 5.50564 7.97911 5.58199 7.93912C5.65835 7.89913 5.72387 7.84124 5.77296 7.77039L10.5732 0.836827C10.6286 0.756811 10.661 0.663173 10.667 0.566052C10.6729 0.468932 10.6522 0.37203 10.6071 0.285838C10.5619 0.199647 10.494 0.127451 10.4108 0.0770675C10.3275 0.026684 10.2321 3.28507e-05 10.1348 1.36027e-08L0.534283 1.28088e-07C0.436925 -1.59145e-05 0.341418 0.0266159 0.258118 0.0770092C0.174817 0.127402 0.106899 0.199634 0.0617247 0.285876Z" fill="#2D2D2D"/>
</svg>
