<svg width="59" height="59" viewBox="0 0 59 59" fill="none" xmlns="http://www.w3.org/2000/svg">
<path d="M29.5 0C13.233 0 0 13.233 0 29.5C0 35.0494 1.54194 40.4366 4.46698 45.1146C3.30173 49.1969 1.19702 56.9191 1.17433 56.9997C1.0654 57.3991 1.18227 57.8257 1.48067 58.1127C1.77908 58.3998 2.21023 58.5019 2.60281 58.3816L14.2962 54.7849C18.8766 57.5443 24.1219 59 29.5 59C45.767 59 59 45.767 59 29.5C59 13.233 45.767 0 29.5 0ZM29.5 56.7308C24.3727 56.7308 19.3781 55.2978 15.0552 52.5883C14.8725 52.4737 14.6626 52.4158 14.4527 52.4158C14.3404 52.4158 14.2281 52.4328 14.1192 52.4658L3.90875 55.6086C4.65873 52.8708 6.00665 47.9738 6.7884 45.2496C6.87917 44.9342 6.82812 44.5938 6.64998 44.3181C3.78394 39.9078 2.26923 34.7839 2.26923 29.5C2.26923 14.4856 14.4856 2.26923 29.5 2.26923C44.5144 2.26923 56.7308 14.4856 56.7308 29.5C56.7308 44.5144 44.5144 56.7308 29.5 56.7308Z" fill="#2D2D2D"/>
<path d="M48.7714 36.4504C46.6769 35.2874 44.8933 34.121 43.5919 33.2701C42.598 32.6211 41.8798 32.1525 41.3533 31.8881C39.8817 31.154 38.7664 31.6725 38.3421 32.1014C38.2887 32.1548 38.2411 32.2126 38.2002 32.2739C36.6719 34.567 34.6761 36.7602 34.0918 36.8782C33.4167 36.7726 30.2568 34.9765 27.1162 32.3613C23.9098 29.6892 21.8924 27.1307 21.5963 25.3879C23.6533 23.2707 24.3942 21.9387 24.3942 20.4228C24.3942 18.8605 20.7499 12.3376 20.0906 11.6784C19.4292 11.018 17.9394 10.9148 15.6622 11.3686C15.4433 11.4129 15.2413 11.5206 15.0824 11.6784C14.8067 11.9541 8.35531 18.5314 11.421 26.5032C14.7863 35.2523 23.4241 45.4218 34.4367 47.0738C35.6882 47.261 36.8614 47.3541 37.9597 47.3541C44.4384 47.3541 48.262 44.0943 49.3388 37.6281C49.4193 37.155 49.1912 36.683 48.7714 36.4504ZM34.7737 44.8295C23.128 43.0834 15.7927 31.5455 13.5394 25.6886C11.3042 19.8794 15.4262 14.6998 16.461 13.5289C17.3029 13.386 18.189 13.3258 18.5589 13.3837C19.3316 14.4582 22.007 19.5129 22.125 20.4228C22.125 21.0185 21.931 21.8479 19.6209 24.1591C19.4076 24.3713 19.2885 24.6595 19.2885 24.9613C19.2885 30.9021 31.8192 39.144 34.0385 39.144C35.9684 39.144 38.485 35.9001 39.918 33.7863C40.0009 33.7897 40.1404 33.8181 40.339 33.918C40.7474 34.1233 41.4554 34.5851 42.3507 35.1706C43.5329 35.9432 45.1032 36.9689 46.9572 38.0321C46.1153 42.0826 43.7621 46.1797 34.7737 44.8295Z" fill="#2D2D2D"/>
</svg>
