<svg width="22" height="22" viewBox="0 0 22 22" fill="none" xmlns="http://www.w3.org/2000/svg">
<path d="M18.4587 3.15417C16.4275 1.12134 13.7264 0.00126465 10.8484 0.00012207C4.91868 0.00012207 0.092578 4.82438 0.0902049 10.7542C0.0894432 12.6497 0.584824 14.4999 1.52625 16.1308L0 21.7039L5.70308 20.2084C7.27444 21.0652 9.04356 21.5167 10.8441 21.5174H10.8486C16.7777 21.5174 21.6043 16.6926 21.6067 10.7627C21.6078 7.8891 20.4899 5.18699 18.4587 3.15417ZM10.8486 19.7011H10.8449C9.24041 19.7005 7.6667 19.2696 6.29382 18.4551L5.96727 18.2614L2.58299 19.1489L3.48633 15.8503L3.27366 15.5121C2.37858 14.0889 1.90585 12.4439 1.90655 10.7549C1.90849 5.8263 5.91978 1.81653 10.852 1.81653C13.2403 1.81744 15.4854 2.74849 17.1737 4.43807C18.8619 6.12765 19.7911 8.37358 19.7902 10.7621C19.7883 15.6911 15.777 19.7011 10.8486 19.7011ZM15.7533 13.0063C15.4845 12.8718 14.1629 12.2217 13.9165 12.132C13.6701 12.0423 13.4909 11.9975 13.3116 12.2665C13.1325 12.5355 12.6173 13.1408 12.4605 13.3202C12.3037 13.4995 12.1469 13.5219 11.8781 13.3874C11.6093 13.2529 10.7431 12.9691 9.7164 12.0536C8.91732 11.3412 8.37779 10.4611 8.22099 10.192C8.0642 9.923 8.20433 9.7776 8.33889 9.6436C8.45979 9.52322 8.60769 9.32974 8.7421 9.17283C8.87648 9.01594 8.92131 8.9038 9.0109 8.72447C9.10052 8.54511 9.05569 8.38817 8.98849 8.25367C8.92131 8.11917 8.38368 6.79647 8.15968 6.25843C7.9415 5.73443 7.71984 5.80533 7.55484 5.7971C7.39822 5.7893 7.21884 5.78766 7.03966 5.78766C6.86048 5.78766 6.56924 5.8549 6.32285 6.12393C6.07646 6.39296 5.38204 7.04309 5.38204 8.36576C5.38204 9.68842 6.34523 10.9663 6.47965 11.1456C6.61406 11.3249 8.37513 14.0393 11.0717 15.2033C11.713 15.4801 12.2137 15.6455 12.6041 15.7693C13.2481 15.9738 13.8341 15.945 14.2973 15.8758C14.8137 15.7987 15.8876 15.2257 16.1117 14.598C16.3357 13.9703 16.3357 13.4323 16.2685 13.3202C16.2013 13.2081 16.0221 13.1408 15.7533 13.0063Z" fill="white"/>
</svg>
